<?xml version="1.0" encoding="UTF-8" standalone="no"?><svg xmlns="http://www.w3.org/2000/svg" xmlns:xlink="http://www.w3.org/1999/xlink" contentScriptType="text/ecmascript" fill="#1a3756" width="64.7" zoomAndPan="magnify" contentStyleType="text/css" viewBox="-0.4 5.5 64.7 53.0" height="53" preserveAspectRatio="xMidYMid meet" version="1"><g id="change1_1"><path d="m38.00006,48.5c-.00006,0,2.99994,0,2.99994,0,1.3136-.02173,1.315-1.97809,0-2h-3c-1.3136.02173-1.315,1.97809.00006,2Z"/></g><g id="change1_2"><path d="m54.99506,27.42657c-.00446-.05719-.02991-.10822-.04382-.16321,9.41034-6.66565,4.72522-21.7265-6.95142-21.76331-6.51715-.00006-11.8266,5.2251-11.98492,11.70544-2.48792-.93079-5.54187-.93079-8.02979,0-.15833-6.48035-5.46777-11.70551-11.98511-11.70551-11.70959.08337-16.35846,15.04584-6.95129,21.76331-.01398.05505-.03912.1062-.04352.16345-4.33789,2.52649-7.03674,7.37073-7.00519,12.40332v4c0,.39941.23828.76172.60547.91895,4.93927,2.10138,10.43365,3.05969,15.80292,2.65356-.59564,1.98407-.36292,5.34222-.40845,7.42749.00006.40039.23932.7627.60748.91992,4.21521,1.7923,8.81854,2.73053,13.39258,2.75,4.57367-.01782,9.19885-.95422,13.39453-2.75098.36719-.15723.60547-.51953.60547-.91895-.06128-2.11011.19019-5.39941-.41577-7.4281,5.37146.40771,10.8689-.55072,15.8103-2.65295.36719-.15723.60547-.51953.60547-.91895v-4c.03339-5.02606-2.66901-9.88184-7.00494-12.4035Zm-6.99506-19.92657c5.51416,0,10,4.48633,10,10,.1557,7.12286-7.77942,12.20819-14.17023,9.06818-.58636-3.59949-2.77228-6.66095-5.80963-8.43231-.3844-5.72095,4.24249-10.65802,9.97986-10.63586Zm4.43567,21.14014c-.74658,1.55817-2.2666,4.12549-4.43665,4.8208-1.81366-.57666-3.17584-2.45587-4.04504-4.05231.01526-.20215.02582-.40558.03088-.61041,2.66937.98969,5.85339.9137,8.45081-.15808Zm-20.43567-10.14014c5.51416,0,10,4.48633,10,10-.5495,13.26636-19.45251,13.26245-20-.00006,0-5.51361,4.48584-9.99994,10-9.99994Zm4.43848,21.13916c-.70117,1.57489-2.50562,4.28595-4.4375,4.82178-2.16595-.69476-3.68457-3.25354-4.43591-4.8205,2.71661,1.13562,6.15717,1.13513,8.87341-.00128ZM6,17.5c0-5.51367,4.48584-10,10-10,5.7373-.02228,10.36432,4.9151,9.97986,10.63586-3.03735,1.77136-5.22327,4.83282-5.80963,8.43231-6.3916,3.13995-14.32562-1.94537-14.17023-9.06818Zm14.04602,11.90808c-.86902,1.59583-2.23096,3.47552-4.04504,4.05286-2.16602-.69403-3.68475-3.2533-4.43597-4.8205,2.59741,1.07153,5.78082,1.1474,8.45013.15778.00507.20465.01562.4079.03088.60986Zm-8.86383,15.71765c-2.46271-.37726-4.88721-1.03461-7.18219-1.96265v-3.33301c-.01978-4.20801,2.13861-8.24329,5.68597-10.4798.59192,1.26794,1.62457,3.09247,3.11786,4.45264l-1.62164,11.32281Zm4.81781.37427c-.94299,0-1.88867-.04785-2.83234-.13293l1.47644-10.30902c.95447.53516,1.75684.53589,2.71198.00293l1.47363,10.29865c-.94727.08466-1.89545.14038-2.82971.14038Zm4.60376-13.26257c.8067,2.45319,2.38416,4.55432,4.44495,6.02588-.01361.05359-.03949.10321-.04407.15894-1.83881,1.08282-3.37494,2.54706-4.53656,4.27002l-1.27216-8.8905c.52429-.47729.99274-1.00873,1.40784-1.56433Zm6.5788,23.88568c-2.45483-.37775-4.87915-1.03424-7.18256-1.961v-3.33203c-.01282-4.21497,2.11188-8.21741,5.68628-10.47913.59204,1.26794,1.62451,3.09204,3.11755,4.45197l-1.62128,11.32019Zm4.81744.37689c-.94177,0-1.88751-.04797-2.83221-.13373l1.47632-10.30823c.94141.5321,1.76227.53699,2.71173-.00012l1.4765,10.30914c-.94366.08508-1.88934.13293-2.83234.13293Zm12-2.33691c-2.29498.92804-4.71948,1.58539-7.18219,1.96265l-1.62292-11.33167c1.40564-1.21362,2.5647-3.21588,3.12103-4.44348,3.52863,2.20367,5.7146,6.32605,5.68408,10.47949v3.33301Zm-.47345-11.43329c-1.1394-1.74927-2.74121-3.26038-4.53149-4.30322-.00446-.05719-.02991-.10822-.04382-.16321,2.06079-1.47156,3.63831-3.57275,4.44501-6.02594.4151.5556.88354,1.08704,1.40784,1.56433l-1.27753,8.92804Zm4.47345,2.7702c-.93427,0-1.88245-.05573-2.82971-.14038l1.47363-10.29865c.95563.53339,1.75806.5318,2.71198-.00293l1.47644,10.30902c-.94366.08508-1.88934.13293-2.83234.13293Zm12-2.33691c-2.29498.92804-4.71948,1.58539-7.18219,1.96265l-1.62164-11.32257c1.49725-1.36328,2.53021-3.19165,3.11871-4.45337,3.54633,2.23596,5.70569,6.27667,5.68512,10.48029v3.33301Z"/></g><g id="change1_3"><path d="m53,36.5c0,.55273.44775,1,1,1h3c.55225,0,1-.44727,1-1s-.44775-1-1-1h-3c-.55225,0-1,.44727-1,1Z"/></g><g id="change1_4"><path d="m6,36.5c0,.55273.44775,1,1,1h3c.55225,0,1-.44727,1-1s-.44775-1-1-1h-3c-.55225,0-1,.44727-1,1Z"/></g></svg>