<svg width="364" height="103" viewBox="0 0 364 103" xmlns="http://www.w3.org/2000/svg" xmlns:xlink="http://www.w3.org/1999/xlink" overflow="hidden"><g fill="none" fill-rule="evenodd"><path d="M342.9 45.5911 322.965 45.5911C312.841 45.5911 312.841 43.6771 312.841 39.0571 312.841 32.3761 314.708 31.4501 328.188 31.4501L335.339 31.4501C349.298 31.4501 351.274 32.0261 351.627 36.8791L362.531 36.8791C362.243 25.3531 355.679 20.8381 339.396 20.8381L324.889 20.8381C310.769 20.8381 302.017 23.7961 302.017 38.5221 302.017 56.0021 312.144 56.8171 331.559 56.8171L344.343 56.8171C352.108 56.8171 352.956 58.1241 352.956 63.2751 352.956 69.4611 351.591 71.2631 342.555 71.2631L321.658 71.2631C313.537 71.2631 312.909 68.8681 312.909 65.4901L312.909 64.8091 302.085 64.8091 302.085 65.6451C302.085 81.8751 316.621 81.8751 322.828 81.8751L341.525 81.8751C349.304 81.8751 363.779 81.8751 363.779 65.0311L363.779 61.4411C363.779 47.2311 351.864 45.5911 342.9 45.5911" fill="#000000"/><path d="M275.853 21.448 248.02 65.835 220.186 21.448 206.175 21.448 206.175 81.265 217.411 81.265 217.411 38.066 244.365 81.265 251.674 81.265 278.628 38.063 278.628 81.265 289.868 81.265 289.868 21.448Z" fill="#000000"/><path d="M184.233 63.8857C184.233 69.6907 183.059 71.2627 174.799 71.2627L151.22 71.2627C145.394 71.2627 141.786 69.6687 141.786 61.7457L141.786 40.9667C141.786 33.0437 145.394 31.4497 151.22 31.4497L174.591 31.4497C180.582 31.4497 183.718 31.7937 183.749 38.9557L194.167 38.9557 194.167 36.8417C194.167 29.5397 191.068 20.8377 176.311 20.8377L150.531 20.8377C132.922 20.8377 130.545 32.4407 130.545 43.7927L130.545 58.9207C130.545 70.2727 132.922 81.8747 150.531 81.8747L175.966 81.8747C191.815 81.8747 195.06 74.8067 195.06 64.1907L195.06 63.6847 184.233 63.6847Z" fill="#000000"/><g fill="#3155A5"><path d="M62.2971 9.23044C62.2731 12.5314 59.5731 15.1874 56.2731 15.1604 52.9731 15.1324 50.3151 12.4364 50.3441 9.13544 50.3671 5.83544 53.0671 3.17844 56.3681 3.20644 59.6681 3.23044 62.3251 5.92644 62.2971 9.23044"/><path d="M112.168 50.9368C111.948 79.2128 86.8815 101.949 56.1855 101.711 25.4845 101.468 0.781458 78.3488 1.00146 50.0628 1.18846 26.6308 18.4405 7.01584 41.8115 1.11584L41.8165 1.11584 41.8205 1.11584C42.4515 0.933837 43.1105 1.29784 43.2925 1.92884 43.3255 2.04084 43.3395 2.15284 43.3395 2.25984 43.3395 2.77884 42.9985 3.25084 42.4795 3.40484L42.4745 3.40484C24.5135 9.30984 11.4795 26.0658 11.3255 45.9388 11.1335 70.8748 31.2915 91.2608 56.3585 91.4568 81.4255 91.6488 101.905 71.5898 102.101 46.6438 102.26 26.3038 88.8765 9.01084 70.3445 3.20384L70.3405 3.20384C69.7515 3.01184 69.4195 2.38584 69.6065 1.79284 69.7885 1.19984 70.4145 0.867837 71.0085 1.04984L71.0125 1.04984C94.8655 6.96884 112.355 27.1218 112.168 50.9368"/><path d="M98.4344 49.1383C98.2664 70.9583 79.3884 88.5043 56.2794 88.3273 33.1744 88.1453 14.5764 70.3093 14.7454 48.4843 14.8854 30.4053 27.8714 15.2753 45.4644 10.7103L45.4644 10.7063C45.9554 10.5703 46.4644 10.8553 46.6044 11.3463 46.6274 11.4303 46.6374 11.5093 46.6374 11.5933 46.6374 11.9863 46.3754 12.3553 45.9784 12.4763 45.9734 12.4763 45.9694 12.4813 45.9644 12.4813 32.4494 17.0403 22.6354 29.9713 22.5184 45.2983 22.3684 64.5443 37.5464 80.2643 56.4144 80.4133 75.2824 80.5633 90.7034 65.0823 90.8524 45.8313 90.9784 30.1393 80.9074 16.7933 66.9584 12.3173L66.9534 12.3173C66.5004 12.1773 66.2384 11.6963 66.3784 11.2383 66.5144 10.7813 66.9954 10.5193 67.4534 10.6543L67.4574 10.6543C85.4154 15.2233 98.5794 30.7603 98.4344 49.1383"/><path d="M87.1481 47.9284C87.0221 63.9984 73.2921 76.9194 56.4941 76.7934 39.6861 76.6584 26.1711 63.5264 26.2931 47.4524 26.3961 34.1334 35.8411 22.9924 48.6321 19.6334L48.6321 19.6284C48.9911 19.5304 49.3651 19.7404 49.4631 20.1004 49.4771 20.1614 49.4871 20.2224 49.4871 20.2784 49.4871 20.5724 49.2951 20.8384 49.0051 20.9274 49.0011 20.9274 48.9961 20.9324 48.9911 20.9324 39.1631 24.2954 32.0341 33.8164 31.9451 45.1024 31.8331 59.2804 42.8671 70.8564 56.5921 70.9634 70.3121 71.0704 81.5191 59.6674 81.6311 45.4904 81.7241 33.9324 74.4001 24.1134 64.2621 20.8104L64.2581 20.8104C63.9261 20.7034 63.7351 20.3524 63.8371 20.0164 63.9351 19.6804 64.2861 19.4884 64.6221 19.5914L64.6221 19.5864C77.6791 22.9454 87.2511 34.3954 87.1481 47.9284"/></g></g></svg>