<?xml version="1.0" encoding="UTF-8" standalone="no"?><svg xmlns="http://www.w3.org/2000/svg" xmlns:xlink="http://www.w3.org/1999/xlink" contentScriptType="text/ecmascript" fill="#ffffff" width="512" zoomAndPan="magnify" contentStyleType="text/css" viewBox="0.0 48.0 512.0 432.0" height="432" data-name="Layer 1" preserveAspectRatio="xMidYMid meet" version="1"><g id="change1_1"><path fill="inherit" d="M447.953,48H64.047A64.123,64.123,0,0,0,0,112.049V415.955A64.123,64.123,0,0,0,64.047,480H447.953A64.123,64.123,0,0,0,512,415.955V112.049A64.123,64.123,0,0,0,447.953,48ZM64.047,80H447.953A32.082,32.082,0,0,1,480,112.049V128H32V112.049A32.082,32.082,0,0,1,64.047,80ZM447.953,448H64.047A32.082,32.082,0,0,1,32,415.955V160H480V415.955A32.082,32.082,0,0,1,447.953,448Z"/></g><g id="change1_2"><path fill="inherit" d="M204.492,230a15.994,15.994,0,0,0-22.484-2.5l-80,64a16.007,16.007,0,0,0,0,25l80,64a16,16,0,0,0,19.984-25L137.609,304l64.383-51.5A16.005,16.005,0,0,0,204.492,230Z"/></g><g id="change1_3"><path fill="inherit" d="M329.992,227.5a16,16,0,0,0-19.984,25L374.391,304l-64.383,51.5a16,16,0,0,0,19.984,25l80-64a16.007,16.007,0,0,0,0-25Z"/></g></svg>