<?xml version="1.0" encoding="UTF-8" standalone="no"?><svg xmlns="http://www.w3.org/2000/svg" xmlns:xlink="http://www.w3.org/1999/xlink" contentScriptType="text/ecmascript" fill="#ffffff" width="980" zoomAndPan="magnify" contentStyleType="text/css" viewBox="-27.7 -50.8 979.8 973.6" height="974" preserveAspectRatio="xMidYMid meet" version="1"><g data-name="Layer 2"><g id="change1_1" data-name="Layer 1"><path d="M711.4,624.16,687,578.65a258.27,258.27,0,0,0,18-43.64l49.46-14.94a23,23,0,0,0,16.35-22V418a23,23,0,0,0-16.35-22l-49.46-14.94a257.93,257.93,0,0,0-18-43.64l24.39-45.51a23,23,0,0,0-4-27.13l-56.6-56.6a23,23,0,0,0-27.13-4l-45.51,24.4a258.27,258.27,0,0,0-43.64-18l-14.94-49.46a23,23,0,0,0-22-16.35h-80a23,23,0,0,0-22,16.35l-14.94,49.46a258.27,258.27,0,0,0-43.64,18l-45.51-24.4a23,23,0,0,0-27.13,4l-56.59,56.6a23,23,0,0,0-4,27.13l24.39,45.51A257.93,257.93,0,0,0,210,381.06L160.57,396a23,23,0,0,0-16.35,22v80a23,23,0,0,0,16.35,22L210,535a258.27,258.27,0,0,0,18.05,43.64l-24.39,45.51a23,23,0,0,0,4,27.13l56.59,56.59a23,23,0,0,0,27.13,4l45.51-24.39a257.41,257.41,0,0,0,43.64,18L395.51,755a23,23,0,0,0,22,16.35h80a23,23,0,0,0,22-16.35l14.94-49.47a257.07,257.07,0,0,0,43.64-18l45.51,24.39a23,23,0,0,0,27.13-4l56.6-56.59A23,23,0,0,0,711.4,624.16ZM664.07,511A211.72,211.72,0,0,1,641,566.69a23,23,0,0,0-.49,22.6l22.27,41.55-32.44,32.44L588.8,641a23,23,0,0,0-22.6.49,212.06,212.06,0,0,1-55.74,23.06,23,23,0,0,0-16.33,15.63l-13.65,45.17H434.61L421,680.19a23,23,0,0,0-16.33-15.63,212.06,212.06,0,0,1-55.74-23.06,23,23,0,0,0-22.6-.49l-41.55,22.27L252.3,630.84l22.27-41.55a23,23,0,0,0-.49-22.6A211.86,211.86,0,0,1,251,511a23,23,0,0,0-15.63-16.33L190.22,481V435.09l45.17-13.64A23,23,0,0,0,251,405.12a211.58,211.58,0,0,1,23.06-55.74,23,23,0,0,0,.49-22.6L252.3,285.23l32.44-32.44,41.55,22.27a23,23,0,0,0,22.6-.49,211.86,211.86,0,0,1,55.74-23.06A23,23,0,0,0,421,235.88l13.65-45.17h45.87l13.65,45.17a23,23,0,0,0,16.33,15.63,211.86,211.86,0,0,1,55.74,23.06,23,23,0,0,0,22.6.49l41.55-22.27,32.44,32.44-22.27,41.55a23,23,0,0,0,.49,22.6,211.58,211.58,0,0,1,23.06,55.74,23,23,0,0,0,15.63,16.33l45.17,13.64V481L679.7,494.62A23,23,0,0,0,664.07,511Z"/><path d="M457.55,300.46C370.66,300.46,300,371.15,300,458S370.66,615.6,457.55,615.6,615.12,544.92,615.12,458,544.43,300.46,457.55,300.46Zm0,269.14A111.57,111.57,0,1,1,569.12,458,111.7,111.7,0,0,1,457.55,569.6Z"/><path d="M581.1,851.23c-148.46,46.48-308.32,6.43-417.2-104.49C86.86,668.25,45,564.46,46,454.49S90.77,241.66,169.16,164.64l4.83-4.56-.81,2.88a23,23,0,0,0,44.33,12.32L238.15,101A30.29,30.29,0,0,0,201.4,63.56L126.75,82.82a23,23,0,0,0,11.49,44.54l4.66-1.2-5.49,5.19-.32.3A457.82,457.82,0,0,0,350.15,903.29a459.28,459.28,0,0,0,244.69-8.16,23,23,0,0,0-13.74-43.9Z"/><path d="M884.63,289.42A458,458,0,0,0,321.7,21a23,23,0,1,0,13.75,43.9c148.44-46.49,308.31-6.47,417.2,104.44,77.05,78.48,118.93,182.26,117.92,292.24S825.84,674.36,747.47,751.4L742.64,756l.8-2.89a23,23,0,0,0-44.32-12.31L678.48,815a30.32,30.32,0,0,0,36.76,37.44l74.64-19.27a23,23,0,0,0-11.5-44.54l-4.66,1.2,5.5-5.19.32-.31A458.2,458.2,0,0,0,884.63,289.42Z"/></g></g></svg>