<?xml version="1.0" encoding="UTF-8" standalone="no"?><svg xmlns="http://www.w3.org/2000/svg" xmlns:xlink="http://www.w3.org/1999/xlink" contentScriptType="text/ecmascript" fill="#f8f8f8" width="24" zoomAndPan="magnify" contentStyleType="text/css" viewBox="0.0 1.0 24.0 22.0" height="22" preserveAspectRatio="xMidYMid meet" version="1"><g id="change1_5"><path fill="inherit" d="M21.5,23h-19C1.121,23,0,21.879,0,20.5v-17C0,2.121,1.121,1,2.5,1h19C22.879,1,24,2.121,24,3.5v17 C24,21.879,22.879,23,21.5,23z M2.5,2C1.673,2,1,2.673,1,3.5v17C1,21.327,1.673,22,2.5,22h19c0.827,0,1.5-0.673,1.5-1.5v-17 C23,2.673,22.327,2,21.5,2H2.5z"/></g><g id="change1_3"><path fill="inherit" d="M23.5,6h-23C0.224,6,0,5.776,0,5.5S0.224,5,0.5,5h23C23.776,5,24,5.224,24,5.5S23.776,6,23.5,6z"/></g><g id="change1_2"><path fill="inherit" d="M12.5,17.5H10c-0.276,0-0.5-0.224-0.5-0.5s0.224-0.5,0.5-0.5h2.5c0.552,0,1-0.448,1-1s-0.448-1-1-1h-1 c-1.103,0-2-0.897-2-2s0.897-2,2-2H14c0.276,0,0.5,0.224,0.5,0.5s-0.224,0.5-0.5,0.5h-2.5c-0.552,0-1,0.448-1,1s0.448,1,1,1h1 c1.103,0,2,0.897,2,2S13.603,17.5,12.5,17.5z"/></g><g id="change1_1"><path fill="inherit" d="M12,19c-0.276,0-0.5-0.224-0.5-0.5V17c0-0.276,0.224-0.5,0.5-0.5s0.5,0.224,0.5,0.5v1.5C12.5,18.776,12.276,19,12,19z"/></g><g id="change1_4"><path fill="inherit" d="M12,11.5c-0.276,0-0.5-0.224-0.5-0.5V9.5C11.5,9.224,11.724,9,12,9s0.5,0.224,0.5,0.5V11C12.5,11.276,12.276,11.5,12,11.5z"/></g></svg>