<?xml version="1.0" encoding="UTF-8" standalone="no"?><svg xmlns="http://www.w3.org/2000/svg" xmlns:xlink="http://www.w3.org/1999/xlink" contentScriptType="text/ecmascript" fill="#000000" width="2500" zoomAndPan="magnify" contentStyleType="text/css" viewBox="0 0 2500 2500" height="2500" preserveAspectRatio="xMidYMid meet" version="1"><path fill="#8c9bac" d="M1174.3,39.2c.1,0,.2,0,.2-.2s0-.2-.2-.2-.2,0-.2.2,0,.2.2.2Z"/><path fill="#8c9bac" d="M1250,39.2c.1,0,.2,0,.2-.2s0-.2-.2-.2-.2,0-.2.2,0,.2.2.2Z"/><path fill="#8c9bac" d="M1325.7,39.2c.1,0,.2,0,.2-.2s0-.2-.2-.2-.2,0-.2.2,0,.2.2.2Z"/><path fill="#8c9bac" d="M871.6,115.1c.2,0,.4-.2.4-.4s-.2-.4-.4-.4-.4.2-.4.4.2.4.4.4Z"/><path fill="#8c9bac" d="M947.2,115.5c.5,0,.8-.4.8-.8s-.4-.8-.8-.8-.8.4-.8.8.4.8.8.8Z"/><path fill="#8c9bac" d="M1022.9,115.9c.7,0,1.3-.6,1.3-1.3s-.6-1.3-1.3-1.3-1.3.6-1.3,1.3.6,1.3,1.3,1.3h0Z"/><path fill="#8c9bac" d="M1098.6,116.4c.9,0,1.7-.8,1.7-1.7s-.8-1.7-1.7-1.7-1.7.8-1.7,1.7.8,1.7,1.7,1.7Z"/><path fill="#8c9bac" d="M1174.3,116.6c1,0,1.9-.8,1.9-1.9s-.8-1.9-1.9-1.9-1.9.8-1.9,1.9.8,1.9,1.9,1.9Z"/><path fill="#8c9bac" d="M1250,116.6c1,0,1.9-.8,1.9-1.9s-.8-1.9-1.9-1.9-1.9.8-1.9,1.9.8,1.9,1.9,1.9Z"/><path fill="#8c9bac" d="M1325.7,116.6c1,0,1.9-.8,1.9-1.9s-.8-1.9-1.9-1.9-1.9.8-1.9,1.9.8,1.9,1.9,1.9Z"/><circle fill="#8c9bac" r="1.7" cx="1401.4" cy="114.7"/><path fill="#8c9bac" d="M1477.1,115.9c.7,0,1.3-.6,1.3-1.3s-.6-1.3-1.3-1.3-1.3.6-1.3,1.3.6,1.3,1.3,1.3Z"/><path fill="#8c9bac" d="M1552.8,115.5c.5,0,.8-.4.8-.8s-.4-.8-.8-.8-.8.4-.8.8.4.8.8.8Z"/><path fill="#8c9bac" d="M1628.4,115.1c.2,0,.4-.2.4-.4s-.2-.4-.4-.4-.4.2-.4.4.2.4.4.4Z"/><path fill="#8c9bac" d="M720.2,191c.3,0,.6-.3.6-.6s-.3-.6-.6-.6-.6.3-.6.6.3.6.6.6Z"/><path fill="#8c9bac" d="M795.9,191.8c.8,0,1.5-.7,1.5-1.5s-.7-1.5-1.5-1.5-1.5.7-1.5,1.5.7,1.5,1.5,1.5Z"/><path fill="#8c9bac" d="M871.6,192.7c1.3,0,2.3-1,2.3-2.3s-1-2.3-2.3-2.3-2.3,1-2.3,2.3,1,2.3,2.3,2.3Z"/><path fill="#8c9bac" d="M947.2,193.3c1.6,0,2.9-1.3,2.9-2.9s-1.3-2.9-2.9-2.9-2.9,1.3-2.9,2.9,1.3,2.9,2.9,2.9Z"/><path fill="#8c9bac" d="M1022.9,193.7c1.9,0,3.4-1.5,3.4-3.4s-1.5-3.4-3.4-3.4-3.4,1.5-3.4,3.4,1.5,3.4,3.4,3.4h0Z"/><path fill="#8c9bac" d="M1098.6,194.1c2.1,0,3.8-1.7,3.8-3.8s-1.7-3.8-3.8-3.8-3.8,1.7-3.8,3.8,1.7,3.8,3.8,3.8Z"/><path fill="#8c9bac" d="M1174.3,194.4c2.2,0,4-1.8,4-4s-1.8-4-4-4-4,1.8-4,4,1.8,4,4,4Z"/><path fill="#8c9bac" d="M1250,194.6c2.3,0,4.2-1.9,4.2-4.2s-1.9-4.2-4.2-4.2-4.2,1.9-4.2,4.2,1.9,4.2,4.2,4.2Z"/><path fill="#8c9bac" d="M1325.7,194.4c2.2,0,4-1.8,4-4s-1.8-4-4-4-4,1.8-4,4,1.8,4,4,4Z"/><path fill="#8c9bac" d="M1401.4,194.1c2.1,0,3.8-1.7,3.8-3.8s-1.7-3.8-3.8-3.8-3.8,1.7-3.8,3.8,1.7,3.8,3.8,3.8Z"/><path fill="#8c9bac" d="M1477.1,193.9c2,0,3.6-1.6,3.6-3.6s-1.6-3.6-3.6-3.6-3.6,1.6-3.6,3.6,1.6,3.6,3.6,3.6Z"/><path fill="#8c9bac" d="M1552.8,193.3c1.6,0,2.9-1.3,2.9-2.9s-1.3-2.9-2.9-2.9-2.9,1.3-2.9,2.9,1.3,2.9,2.9,2.9Z"/><path fill="#8c9bac" d="M1628.4,192.7c1.3,0,2.3-1,2.3-2.3s-1-2.3-2.3-2.3-2.3,1-2.3,2.3,1,2.3,2.3,2.3Z"/><path fill="#8c9bac" d="M1704.1,191.8c.8,0,1.5-.7,1.5-1.5s-.7-1.5-1.5-1.5-1.5.7-1.5,1.5.7,1.5,1.5,1.5Z"/><path fill="#8c9bac" d="M1779.8,191c.3,0,.6-.3.6-.6s-.3-.6-.6-.6-.6.3-.6.6.3.6.6.6Z"/><path fill="#8c9bac" d="M568.8,266.5c.2,0,.4-.2.4-.4s-.2-.4-.4-.4-.4.2-.4.4.2.4.4.4Z"/><path fill="#8c9bac" d="M644.5,267.3c.7,0,1.3-.6,1.3-1.3s-.6-1.3-1.3-1.3-1.3.6-1.3,1.3.6,1.3,1.3,1.3Z"/><path fill="#8c9bac" d="M720.2,268.6c1.4,0,2.5-1.1,2.5-2.5s-1.1-2.5-2.5-2.5-2.5,1.1-2.5,2.5,1.1,2.5,2.5,2.5Z"/><path fill="#8c9bac" d="M795.9,269.4c1.8,0,3.4-1.5,3.4-3.4s-1.5-3.4-3.4-3.4-3.4,1.5-3.4,3.4,1.5,3.4,3.4,3.4Z"/><path fill="#8c9bac" d="M871.6,270.2c2.3,0,4.2-1.9,4.2-4.2s-1.9-4.2-4.2-4.2-4.2,1.9-4.2,4.2,1.9,4.2,4.2,4.2Z"/><path fill="#8c9bac" d="M947.2,271.1c2.8,0,5-2.2,5-5s-2.3-5-5-5-5,2.3-5,5,2.2,5,5,5Z"/><path fill="#8c9bac" d="M1022.9,271.7c3.1,0,5.7-2.5,5.7-5.7s-2.5-5.7-5.7-5.7-5.7,2.5-5.7,5.7,2.5,5.7,5.7,5.7Z"/><path fill="#8c9bac" d="M1098.6,272.1c3.4,0,6.1-2.7,6.1-6.1s-2.7-6.1-6.1-6.1-6.1,2.7-6.1,6.1,2.7,6.1,6.1,6.1Z"/><path fill="#8c9bac" d="M1174.3,272.4c3.5,0,6.3-2.8,6.3-6.3s-2.8-6.3-6.3-6.3-6.3,2.8-6.3,6.3,2.8,6.3,6.3,6.3Z"/><path fill="#8c9bac" d="M1250,272.4c3.5,0,6.3-2.8,6.3-6.3s-2.8-6.3-6.3-6.3-6.3,2.8-6.3,6.3,2.8,6.3,6.3,6.3Z"/><path fill="#8c9bac" d="M1325.7,272.4c3.5,0,6.3-2.8,6.3-6.3s-2.8-6.3-6.3-6.3-6.3,2.8-6.3,6.3,2.8,6.3,6.3,6.3Z"/><path fill="#8c9bac" d="M1401.4,272.1c3.4,0,6.1-2.7,6.1-6.1s-2.7-6.1-6.1-6.1-6.1,2.7-6.1,6.1,2.7,6.1,6.1,6.1Z"/><path fill="#8c9bac" d="M1477.1,271.7c3.1,0,5.7-2.5,5.7-5.7s-2.5-5.7-5.7-5.7-5.7,2.5-5.7,5.7,2.5,5.7,5.7,5.7Z"/><path fill="#8c9bac" d="M1552.8,271.1c2.8,0,5-2.2,5-5s-2.2-5-5-5-5,2.3-5,5,2.3,5,5,5Z"/><path fill="#8c9bac" d="M1628.4,270.5c2.4,0,4.4-2,4.4-4.4s-2-4.4-4.4-4.4-4.4,2-4.4,4.4,2,4.4,4.4,4.4Z"/><path fill="#8c9bac" d="M1704.1,269.6c2,0,3.6-1.6,3.6-3.6s-1.6-3.6-3.6-3.6-3.6,1.6-3.6,3.6,1.6,3.6,3.6,3.6Z"/><path fill="#8c9bac" d="M1779.8,268.6c1.4,0,2.5-1.1,2.5-2.5s-1.1-2.5-2.5-2.5-2.5,1.1-2.5,2.5,1.1,2.5,2.5,2.5Z"/><path fill="#8c9bac" d="M1855.5,267.5c.8,0,1.5-.7,1.5-1.5s-.7-1.5-1.5-1.5-1.5.7-1.5,1.5.7,1.5,1.5,1.5Z"/><path fill="#8c9bac" d="M1931.2,266.5c.2,0,.4-.2.4-.4s-.2-.4-.4-.4-.4.2-.4.4.2.4.4.4Z"/><path fill="#8c9bac" d="M493.1,342.4c.4,0,.6-.3.6-.6s-.3-.6-.6-.6-.6.3-.6.6.3.6.6.6Z"/><path fill="#8c9bac" d="M568.8,343.6c1,0,1.9-.8,1.9-1.9s-.8-1.9-1.9-1.9-1.9.9-1.9,1.9.8,1.9,1.9,1.9Z"/><path fill="#8c9bac" d="M644.5,344.9c1.7,0,3.2-1.4,3.2-3.1s-1.4-3.1-3.2-3.1-3.2,1.4-3.2,3.1,1.4,3.1,3.2,3.1Z"/><path fill="#8c9bac" d="M720.2,346.1c2.4,0,4.4-2,4.4-4.4s-2-4.4-4.4-4.4-4.4,2-4.4,4.4,2,4.4,4.4,4.4Z"/><path fill="#8c9bac" d="M795.9,347.2c3,0,5.5-2.4,5.5-5.5s-2.4-5.5-5.5-5.5-5.5,2.4-5.5,5.5,2.4,5.5,5.5,5.5Z"/><path fill="#8c9bac" d="M871.6,348c3.5,0,6.3-2.8,6.3-6.3s-2.8-6.3-6.3-6.3-6.3,2.8-6.3,6.3,2.8,6.3,6.3,6.3Z"/><path fill="#8c9bac" d="M947.2,348.9c3.9,0,7.1-3.2,7.1-7.1s-3.2-7.1-7.1-7.1-7.1,3.2-7.1,7.1,3.2,7.1,7.1,7.1Z"/><path fill="#8c9bac" d="M1022.9,349.5c4.3,0,7.8-3.5,7.8-7.8s-3.5-7.8-7.8-7.8-7.8,3.5-7.8,7.8,3.5,7.8,7.8,7.8h0Z"/><path fill="#8c9bac" d="M1098.6,349.9c4.5,0,8.2-3.7,8.2-8.2s-3.7-8.2-8.2-8.2-8.2,3.7-8.2,8.2,3.7,8.2,8.2,8.2Z"/><circle fill="#8c9bac" r="8.4" cx="1174.3" cy="341.8"/><circle fill="#8c9bac" r="8.6" cx="1250" cy="341.7"/><circle fill="#8c9bac" r="8.6" cx="1325.7" cy="341.7"/><path fill="#8c9bac" d="M1401.4,349.9c4.5,0,8.2-3.7,8.2-8.2s-3.7-8.2-8.2-8.2-8.2,3.7-8.2,8.2,3.7,8.2,8.2,8.2Z"/><path fill="#8c9bac" d="M1477.1,349.5c4.3,0,7.8-3.5,7.8-7.8s-3.5-7.8-7.8-7.8-7.8,3.5-7.8,7.8,3.5,7.8,7.8,7.8Z"/><path fill="#8c9bac" d="M1552.8,348.9c3.9,0,7.1-3.2,7.1-7.1s-3.2-7.1-7.1-7.1-7.1,3.2-7.1,7.1,3.2,7.1,7.1,7.1Z"/><path fill="#8c9bac" d="M1628.4,348.2c3.6,0,6.5-2.9,6.5-6.5s-2.9-6.5-6.5-6.5-6.5,2.9-6.5,6.5,2.9,6.5,6.5,6.5Z"/><path fill="#8c9bac" d="M1704.1,347.2c3,0,5.5-2.4,5.5-5.5s-2.4-5.5-5.5-5.5-5.5,2.4-5.5,5.5,2.4,5.5,5.5,5.5Z"/><path fill="#8c9bac" d="M1779.8,346.1c2.4,0,4.4-2,4.4-4.4s-2-4.4-4.4-4.4-4.4,2-4.4,4.4,2,4.4,4.4,4.4Z"/><path fill="#8c9bac" d="M1855.5,345.1c1.8,0,3.4-1.5,3.4-3.4s-1.5-3.4-3.4-3.4-3.4,1.5-3.4,3.4,1.5,3.4,3.4,3.4Z"/><path fill="#8c9bac" d="M1931.2,343.8c1.2,0,2.1-.9,2.1-2.1s-.9-2.1-2.1-2.1-2.1.9-2.1,2.1.9,2.1,2.1,2.1Z"/><path fill="#8c9bac" d="M2006.9,342.4c.3,0,.6-.3.6-.6s-.3-.6-.6-.6-.6.3-.6.6.3.6.6.6Z"/><path fill="#8c9bac" d="M417.4,418.3c.5,0,.8-.4.8-.8s-.4-.8-.8-.8-.8.4-.8.8.4.8.8.8Z"/><path fill="#8c9bac" d="M493.1,419.7c1.3,0,2.3-1,2.3-2.3s-1-2.3-2.3-2.3-2.3,1-2.3,2.3,1,2.3,2.3,2.3Z"/><path fill="#8c9bac" d="M568.8,421c2,0,3.6-1.6,3.6-3.6s-1.6-3.6-3.6-3.6-3.6,1.6-3.6,3.6,1.6,3.6,3.6,3.6Z"/><path fill="#8c9bac" d="M644.5,422.5c2.8,0,5-2.2,5-5s-2.2-5-5-5-5,2.3-5,5,2.2,5,5,5Z"/><path fill="#8c9bac" d="M720.2,423.7c3.5,0,6.3-2.8,6.3-6.3s-2.8-6.3-6.3-6.3-6.3,2.8-6.3,6.3,2.8,6.3,6.3,6.3Z"/><path fill="#8c9bac" d="M795.9,424.8c4.1,0,7.3-3.3,7.3-7.4s-3.3-7.4-7.3-7.4-7.3,3.3-7.3,7.4,3.3,7.4,7.3,7.4Z"/><path fill="#8c9bac" d="M871.6,425.8c4.6,0,8.4-3.8,8.4-8.4s-3.8-8.4-8.4-8.4-8.4,3.8-8.4,8.4,3.8,8.4,8.4,8.4Z"/><path fill="#8c9bac" d="M947.2,426.7c5.1,0,9.2-4.1,9.2-9.2s-4.1-9.2-9.2-9.2-9.2,4.1-9.2,9.2,4.1,9.2,9.2,9.2Z"/><circle fill="#8c9bac" r="9.9" cx="1022.9" transform="translate(447 1360.3) rotate(-80.8)" cy="417.4"/><path fill="#8c9bac" d="M1098.6,427.7c5.7,0,10.3-4.6,10.3-10.3s-4.6-10.3-10.3-10.3-10.3,4.6-10.3,10.3,4.6,10.3,10.3,10.3Z"/><path fill="#8c9bac" d="M1174.3,428.1c5.9,0,10.7-4.8,10.7-10.7s-4.8-10.7-10.7-10.7-10.7,4.8-10.7,10.7,4.8,10.7,10.7,10.7Z"/><path fill="#8c9bac" d="M1250,428.1c5.9,0,10.7-4.8,10.7-10.7s-4.8-10.7-10.7-10.7-10.7,4.8-10.7,10.7,4.8,10.7,10.7,10.7Z"/><path fill="#8c9bac" d="M1325.7,428.1c5.9,0,10.7-4.8,10.7-10.7s-4.8-10.7-10.7-10.7-10.7,4.8-10.7,10.7,4.8,10.7,10.7,10.7Z"/><circle fill="#8c9bac" r="10.5" cx="1401.4" cy="417.4"/><circle fill="#8c9bac" r="9.9" cx="1477.1" cy="417.4"/><path fill="#8c9bac" d="M1552.8,426.7c5.1,0,9.2-4.1,9.2-9.2s-4.1-9.2-9.2-9.2-9.2,4.1-9.2,9.2,4.1,9.2,9.2,9.2Z"/><circle fill="#8c9bac" r="8.4" cx="1628.4" cy="417.4"/><path fill="#8c9bac" d="M1704.1,425c4.2,0,7.6-3.4,7.6-7.6s-3.4-7.6-7.6-7.6-7.6,3.4-7.6,7.6,3.4,7.6,7.6,7.6Z"/><path fill="#8c9bac" d="M1779.8,423.7c3.5,0,6.3-2.8,6.3-6.3s-2.8-6.3-6.3-6.3-6.3,2.8-6.3,6.3,2.8,6.3,6.3,6.3Z"/><path fill="#8c9bac" d="M1855.5,422.5c2.8,0,5-2.2,5-5s-2.2-5-5-5-5,2.3-5,5,2.3,5,5,5Z"/><path fill="#8c9bac" d="M1931.2,421.2c2.1,0,3.8-1.7,3.8-3.8s-1.7-3.8-3.8-3.8-3.8,1.7-3.8,3.8,1.7,3.8,3.8,3.8Z"/><path fill="#8c9bac" d="M2006.9,419.7c1.3,0,2.3-1,2.3-2.3s-1-2.3-2.3-2.3-2.3,1-2.3,2.3,1,2.3,2.3,2.3Z"/><path fill="#8c9bac" d="M2082.6,418.3c.5,0,.8-.4.8-.8s-.4-.8-.8-.8-.8.4-.8.8.4.8.8.8Z"/><path fill="#8c9bac" d="M341.7,493.8c.4,0,.6-.3.6-.6s-.3-.6-.6-.6-.6.3-.6.6.3.6.6.6Z"/><path fill="#8c9bac" d="M417.4,495.4c1.3,0,2.3-1,2.3-2.3s-1-2.3-2.3-2.3-2.3,1-2.3,2.3,1,2.3,2.3,2.3Z"/><path fill="#8c9bac" d="M493.1,496.9c2.1,0,3.8-1.7,3.8-3.8s-1.7-3.8-3.8-3.8-3.8,1.7-3.8,3.8,1.7,3.8,3.8,3.8Z"/><path fill="#8c9bac" d="M568.8,498.4c2.9,0,5.2-2.4,5.2-5.2s-2.3-5.2-5.2-5.2-5.2,2.4-5.2,5.2,2.3,5.2,5.2,5.2Z"/><path fill="#8c9bac" d="M644.5,499.8c3.7,0,6.7-3,6.7-6.7s-3-6.7-6.7-6.7-6.7,3-6.7,6.7,3,6.7,6.7,6.7Z"/><path fill="#8c9bac" d="M720.2,501.3c4.5,0,8.2-3.7,8.2-8.2s-3.7-8.2-8.2-8.2-8.2,3.7-8.2,8.2,3.7,8.2,8.2,8.2Z"/><path fill="#8c9bac" d="M795.9,502.4c5.1,0,9.2-4.1,9.2-9.2s-4.1-9.2-9.2-9.2-9.2,4.1-9.2,9.2,4.1,9.2,9.2,9.2Z"/><path fill="#8c9bac" d="M871.6,503.4c5.7,0,10.3-4.6,10.3-10.3s-4.6-10.3-10.3-10.3-10.3,4.6-10.3,10.3,4.6,10.3,10.3,10.3Z"/><path fill="#8c9bac" d="M947.2,504.5c6.3,0,11.3-5.1,11.3-11.3s-5.1-11.3-11.3-11.3-11.3,5.1-11.3,11.3,5.1,11.3,11.3,11.3Z"/><circle fill="#8c9bac" r="12" cx="1022.9" transform="translate(175.9 1249.5) rotate(-67.5)" cy="493.1"/><circle fill="#8c9bac" r="12.6" cx="1098.6" transform="translate(222.6 1319.4) rotate(-67.5)" cy="493.1"/><circle fill="#8c9bac" r="13" cx="1174.3" cy="493.1"/><circle fill="#8c9bac" r="13" cx="1250" cy="493.1"/><circle fill="#8c9bac" r="13" cx="1325.7" cy="493.1"/><circle fill="#8c9bac" r="12.6" cx="1401.4" cy="493.1"/><path fill="#8c9bac" d="M1477.1,505.3c6.7,0,12.2-5.5,12.2-12.2s-5.4-12.2-12.2-12.2-12.2,5.5-12.2,12.2,5.4,12.2,12.2,12.2Z"/><path fill="#8c9bac" d="M1552.8,504.5c6.3,0,11.3-5.1,11.3-11.3s-5.1-11.3-11.3-11.3-11.3,5.1-11.3,11.3,5.1,11.3,11.3,11.3Z"/><circle fill="#8c9bac" r="10.5" cx="1628.5" cy="493.1"/><circle fill="#8c9bac" r="9.4" cx="1704.1" transform="translate(150.4 1349.4) rotate(-45)" cy="493.1"/><path fill="#8c9bac" d="M1779.8,501.3c4.5,0,8.2-3.7,8.2-8.2s-3.7-8.2-8.2-8.2-8.2,3.7-8.2,8.2,3.7,8.2,8.2,8.2Z"/><path fill="#8c9bac" d="M1855.5,500c3.8,0,6.9-3.1,6.9-6.9s-3.1-6.9-6.9-6.9-6.9,3.1-6.9,6.9,3.1,6.9,6.9,6.9Z"/><path fill="#8c9bac" d="M1931.2,498.6c3,0,5.5-2.4,5.5-5.5s-2.4-5.5-5.5-5.5-5.5,2.4-5.5,5.5,2.4,5.5,5.5,5.5Z"/><circle fill="#8c9bac" r="4" cx="2006.9" cy="493.1"/><path fill="#8c9bac" d="M2082.6,495.4c1.3,0,2.3-1,2.3-2.3s-1-2.3-2.3-2.3-2.3,1-2.3,2.3,1,2.3,2.3,2.3Z"/><path fill="#8c9bac" d="M2158.3,494c.5,0,.8-.4.8-.8s-.4-.8-.8-.8-.8.4-.8.8.4.8.8.8Z"/><path fill="#8c9bac" d="M266,569.2c.2,0,.4-.2.4-.4s-.2-.4-.4-.4-.4.2-.4.4.2.4.4.4Z"/><path fill="#8c9bac" d="M341.7,570.7c1,0,1.9-.8,1.9-1.9s-.9-1.9-1.9-1.9-1.9.8-1.9,1.9.9,1.9,1.9,1.9Z"/><path fill="#8c9bac" d="M417.4,572.4c2,0,3.6-1.6,3.6-3.6s-1.6-3.6-3.6-3.6-3.6,1.6-3.6,3.6,1.6,3.6,3.6,3.6Z"/><path fill="#8c9bac" d="M493.1,574c2.9,0,5.2-2.3,5.2-5.2s-2.4-5.2-5.2-5.2-5.2,2.3-5.2,5.2,2.4,5.2,5.2,5.2Z"/><path fill="#8c9bac" d="M568.8,575.7c3.8,0,6.9-3.1,6.9-6.9s-3.1-6.9-6.9-6.9-6.9,3.1-6.9,6.9,3.1,6.9,6.9,6.9Z"/><path fill="#8c9bac" d="M644.5,577.2c4.6,0,8.4-3.8,8.4-8.4s-3.8-8.4-8.4-8.4-8.4,3.8-8.4,8.4,3.8,8.4,8.4,8.4Z"/><path fill="#8c9bac" d="M720.2,578.7c5.5,0,9.9-4.4,9.9-9.9s-4.4-9.9-9.9-9.9-9.9,4.4-9.9,9.9,4.4,9.9,9.9,9.9Z"/><path fill="#8c9bac" d="M795.9,579.9c6.1,0,11.1-5,11.1-11.1s-5-11.1-11.1-11.1-11.1,5-11.1,11.1,5,11.1,11.1,11.1Z"/><path fill="#8c9bac" d="M871.6,581.2c6.8,0,12.4-5.5,12.4-12.4s-5.5-12.4-12.4-12.4-12.4,5.5-12.4,12.4,5.5,12.4,12.4,12.4Z"/><path fill="#8c9bac" d="M947.2,582c7.3,0,13.2-5.9,13.2-13.2s-5.9-13.2-13.2-13.2-13.2,5.9-13.2,13.2,5.9,13.2,13.2,13.2Z"/><circle fill="#8c9bac" r="14.1" cx="1022.9" cy="568.8"/><path fill="#8c9bac" d="M1098.6,583.5c8.1,0,14.7-6.6,14.7-14.7s-6.6-14.7-14.7-14.7-14.7,6.6-14.7,14.7,6.6,14.7,14.7,14.7Z"/><path fill="#8c9bac" d="M1174.3,583.9c8.3,0,15.1-6.8,15.1-15.1s-6.8-15.1-15.1-15.1-15.1,6.8-15.1,15.1,6.8,15.1,15.1,15.1Z"/><path fill="#8c9bac" d="M1250,583.9c8.3,0,15.1-6.8,15.1-15.1s-6.8-15.1-15.1-15.1-15.1,6.8-15.1,15.1,6.8,15.1,15.1,15.1Z"/><path fill="#8c9bac" d="M1325.7,583.9c8.3,0,15.1-6.8,15.1-15.1s-6.8-15.1-15.1-15.1-15.1,6.8-15.1,15.1,6.8,15.1,15.1,15.1Z"/><path fill="#8c9bac" d="M1401.4,583.5c8.1,0,14.7-6.6,14.7-14.7s-6.6-14.7-14.7-14.7-14.7,6.6-14.7,14.7,6.6,14.7,14.7,14.7Z"/><path fill="#8c9bac" d="M1477.1,583.1c7.9,0,14.3-6.4,14.3-14.3s-6.4-14.3-14.3-14.3-14.3,6.4-14.3,14.3,6.4,14.3,14.3,14.3Z"/><circle fill="#8c9bac" r="13.4" cx="1552.8" cy="568.8"/><circle fill="#8c9bac" r="12.4" cx="1628.4" cy="568.8"/><path fill="#8c9bac" d="M1704.1,580.1c6.3,0,11.3-5.1,11.3-11.3s-5.1-11.3-11.3-11.3-11.3,5.1-11.3,11.3,5.1,11.3,11.3,11.3Z"/><path fill="#8c9bac" d="M1779.8,578.7c5.4,0,9.9-4.4,9.9-9.9s-4.4-9.9-9.9-9.9-9.9,4.4-9.9,9.9,4.4,9.9,9.9,9.9Z"/><path fill="#8c9bac" d="M1855.5,577.4c4.8,0,8.6-3.8,8.6-8.6s-3.8-8.6-8.6-8.6-8.6,3.8-8.6,8.6,3.8,8.6,8.6,8.6Z"/><path fill="#8c9bac" d="M1931.2,575.9c3.9,0,7.1-3.2,7.1-7.1s-3.2-7.1-7.1-7.1-7.1,3.2-7.1,7.1,3.2,7.1,7.1,7.1Z"/><path fill="#8c9bac" d="M2006.9,574.3c3,0,5.5-2.4,5.5-5.5s-2.4-5.5-5.5-5.5-5.5,2.4-5.5,5.5,2.4,5.5,5.5,5.5Z"/><path fill="#8c9bac" d="M2082.6,572.6c2.1,0,3.8-1.7,3.8-3.8s-1.7-3.8-3.8-3.8-3.8,1.7-3.8,3.8,1.7,3.8,3.8,3.8Z"/><path fill="#8c9bac" d="M2158.3,570.9c1.2,0,2.1-.9,2.1-2.1s-.9-2.1-2.1-2.1-2.1.9-2.1,2.1.9,2.1,2.1,2.1Z"/><path fill="#8c9bac" d="M2233.9,569.2c.2,0,.4-.2.4-.4s-.2-.4-.4-.4-.4.2-.4.4.2.4.4.4Z"/><path fill="#8c9bac" d="M266,645.8c.7,0,1.3-.6,1.3-1.3s-.6-1.3-1.3-1.3-1.3.6-1.3,1.3.6,1.3,1.3,1.3Z"/><path fill="#8c9bac" d="M341.7,647.6c1.7,0,3.1-1.4,3.1-3.2s-1.4-3.2-3.1-3.2-3.1,1.4-3.1,3.2,1.4,3.2,3.1,3.2Z"/><path fill="#8c9bac" d="M417.4,649.5c2.8,0,5-2.2,5-5s-2.2-5-5-5-5,2.3-5,5,2.2,5,5,5Z"/><path fill="#8c9bac" d="M493.1,651.2c3.7,0,6.7-3,6.7-6.7s-3-6.7-6.7-6.7-6.7,3-6.7,6.7,3,6.7,6.7,6.7Z"/><path fill="#8c9bac" d="M568.8,652.9c4.6,0,8.4-3.8,8.4-8.4s-3.8-8.4-8.4-8.4-8.4,3.8-8.4,8.4,3.8,8.4,8.4,8.4Z"/><path fill="#8c9bac" d="M644.5,654.6c5.6,0,10.1-4.5,10.1-10.1s-4.5-10.1-10.1-10.1-10.1,4.5-10.1,10.1,4.5,10.1,10.1,10.1Z"/><path fill="#8c9bac" d="M720.2,656c6.4,0,11.5-5.2,11.5-11.5s-5.2-11.5-11.5-11.5-11.5,5.2-11.5,11.5,5.2,11.5,11.5,11.5Z"/><circle fill="#8c9bac" r="13" cx="795.9" cy="644.5"/><path fill="#8c9bac" d="M871.6,658.8c7.9,0,14.3-6.4,14.3-14.3s-6.4-14.3-14.3-14.3-14.3,6.4-14.3,14.3,6.4,14.3,14.3,14.3Z"/><path fill="#8c9bac" d="M947.2,659.8c8.5,0,15.3-6.9,15.3-15.3s-6.9-15.3-15.3-15.3-15.3,6.9-15.3,15.3,6.9,15.3,15.3,15.3Z"/><path fill="#8c9bac" d="M1022.9,660.7c8.9,0,16.2-7.2,16.2-16.2s-7.2-16.2-16.2-16.2-16.2,7.2-16.2,16.2,7.2,16.2,16.2,16.2Z"/><path fill="#8c9bac" d="M1098.6,661.3c9.3,0,16.8-7.5,16.8-16.8s-7.5-16.8-16.8-16.8-16.8,7.5-16.8,16.8,7.5,16.8,16.8,16.8Z"/><path fill="#8c9bac" d="M1174.3,661.7c9.5,0,17.2-7.7,17.2-17.2s-7.7-17.2-17.2-17.2-17.2,7.7-17.2,17.2,7.7,17.2,17.2,17.2Z"/><circle fill="#8c9bac" r="17.4" cx="1250" cy="644.5"/><path fill="#8c9bac" d="M1325.7,661.7c9.5,0,17.2-7.7,17.2-17.2s-7.7-17.2-17.2-17.2-17.2,7.7-17.2,17.2,7.7,17.2,17.2,17.2Z"/><circle fill="#8c9bac" r="17" cx="1401.4" cy="644.5"/><path fill="#8c9bac" d="M1477.1,660.7c8.9,0,16.2-7.2,16.2-16.2s-7.2-16.2-16.2-16.2-16.2,7.2-16.2,16.2,7.2,16.2,16.2,16.2Z"/><path fill="#8c9bac" d="M1552.8,659.8c8.5,0,15.3-6.9,15.3-15.3s-6.9-15.3-15.3-15.3-15.3,6.9-15.3,15.3,6.9,15.3,15.3,15.3Z"/><path fill="#8c9bac" d="M1628.4,658.8c7.9,0,14.3-6.4,14.3-14.3s-6.4-14.3-14.3-14.3-14.3,6.4-14.3,14.3,6.4,14.3,14.3,14.3Z"/><path fill="#8c9bac" d="M1704.1,657.5c7.2,0,13-5.8,13-13s-5.8-13-13-13-13,5.8-13,13,5.8,13,13,13Z"/><path fill="#8c9bac" d="M1779.8,656.2c6.5,0,11.8-5.3,11.8-11.8s-5.3-11.8-11.8-11.8-11.8,5.3-11.8,11.8,5.3,11.8,11.8,11.8Z"/><path fill="#8c9bac" d="M1855.5,654.8c5.7,0,10.3-4.6,10.3-10.3s-4.6-10.3-10.3-10.3-10.3,4.6-10.3,10.3,4.6,10.3,10.3,10.3Z"/><path fill="#8c9bac" d="M1931.2,653.1c4.8,0,8.6-3.8,8.6-8.6s-3.8-8.6-8.6-8.6-8.6,3.8-8.6,8.6,3.8,8.6,8.6,8.6Z"/><path fill="#8c9bac" d="M2006.9,651.4c3.8,0,6.9-3.1,6.9-6.9s-3.1-6.9-6.9-6.9-6.9,3.1-6.9,6.9,3.1,6.9,6.9,6.9Z"/><circle fill="#8c9bac" r="5" cx="2082.6" cy="644.5"/><path fill="#8c9bac" d="M2158.3,647.8c1.9,0,3.4-1.5,3.4-3.4s-1.5-3.4-3.4-3.4-3.4,1.5-3.4,3.4,1.5,3.4,3.4,3.4Z"/><path fill="#8c9bac" d="M2233.9,646c.8,0,1.5-.7,1.5-1.5s-.7-1.5-1.5-1.5-1.5.7-1.5,1.5.7,1.5,1.5,1.5Z"/><path fill="#8c9bac" d="M2309.6,644.7c.1,0,.2,0,.2-.2s0-.2-.2-.2-.2,0-.2.2,0,.2.2.2Z"/><path fill="#8c9bac" d="M190.4,720.8c.4,0,.6-.3.6-.6s-.3-.6-.6-.6-.6.3-.6.6.3.6.6.6Z"/><circle fill="#8c9bac" r="2.5" cx="266" cy="720.2"/><path fill="#8c9bac" d="M341.7,724.6c2.4,0,4.4-2,4.4-4.4s-2-4.4-4.4-4.4-4.4,2-4.4,4.4,2,4.4,4.4,4.4Z"/><path fill="#8c9bac" d="M417.4,726.5c3.5,0,6.3-2.8,6.3-6.3s-2.8-6.3-6.3-6.3-6.3,2.8-6.3,6.3,2.8,6.3,6.3,6.3Z"/><path fill="#8c9bac" d="M493.1,728.4c4.5,0,8.2-3.7,8.2-8.2s-3.7-8.2-8.2-8.2-8.2,3.7-8.2,8.2,3.7,8.2,8.2,8.2Z"/><path fill="#8c9bac" d="M568.8,730c5.5,0,9.9-4.4,9.9-9.9s-4.4-9.9-9.9-9.9-9.9,4.4-9.9,9.9,4.4,9.9,9.9,9.9Z"/><path fill="#8c9bac" d="M644.5,731.7c6.4,0,11.5-5.2,11.5-11.5s-5.2-11.5-11.5-11.5-11.5,5.2-11.5,11.5,5.2,11.5,11.5,11.5Z"/><path fill="#8c9bac" d="M720.2,733.4c7.3,0,13.2-5.9,13.2-13.2s-5.9-13.2-13.2-13.2-13.2,5.9-13.2,13.2,5.9,13.2,13.2,13.2Z"/><path fill="#8c9bac" d="M795.9,734.9c8.1,0,14.7-6.6,14.7-14.7s-6.6-14.7-14.7-14.7-14.7,6.6-14.7,14.7,6.6,14.7,14.7,14.7Z"/><circle fill="#8c9bac" r="16" cx="871.5" cy="720.2"/><path fill="#8c9bac" d="M947.2,737.4c9.5,0,17.2-7.7,17.2-17.2s-7.7-17.2-17.2-17.2-17.2,7.7-17.2,17.2,7.7,17.2,17.2,17.2Z"/><path fill="#8c9bac" d="M1022.9,738.4c10.1,0,18.3-8.2,18.3-18.3s-8.2-18.3-18.3-18.3-18.3,8.2-18.3,18.3,8.2,18.3,18.3,18.3h0Z"/><path fill="#8c9bac" d="M1098.6,739.3c10.6,0,19.1-8.5,19.1-19.1s-8.6-19.1-19.1-19.1-19.1,8.5-19.1,19.1,8.6,19.1,19.1,19.1Z"/><circle fill="#8c9bac" r="19.5" cx="1174.3" cy="720.1"/><path fill="#8c9bac" d="M1250,739.9c10.9,0,19.7-8.8,19.7-19.7s-8.8-19.7-19.7-19.7-19.7,8.8-19.7,19.7,8.8,19.7,19.7,19.7Z"/><circle fill="#8c9bac" r="19.5" cx="1325.7" cy="720.2"/><path fill="#8c9bac" d="M1401.4,739.3c10.6,0,19.1-8.5,19.1-19.1s-8.6-19.1-19.1-19.1-19.1,8.5-19.1,19.1,8.6,19.1,19.1,19.1Z"/><circle fill="#8c9bac" r="18.5" cx="1477.1" cy="720"/><circle fill="#8c9bac" r="17.4" cx="1552.8" transform="translate(293.2 1879.1) rotate(-67.5)" cy="720.2"/><path fill="#8c9bac" d="M1628.4,736.3c8.9,0,16.2-7.2,16.2-16.2s-7.2-16.2-16.2-16.2-16.2,7.2-16.2,16.2,7.2,16.2,16.2,16.2Z"/><path fill="#8c9bac" d="M1704.1,735.1c8.2,0,14.9-6.7,14.9-14.9s-6.7-14.9-14.9-14.9-14.9,6.7-14.9,14.9,6.7,14.9,14.9,14.9Z"/><path fill="#8c9bac" d="M1779.8,733.4c7.3,0,13.2-5.9,13.2-13.2s-5.9-13.2-13.2-13.2-13.2,5.9-13.2,13.2,5.9,13.2,13.2,13.2Z"/><path fill="#8c9bac" d="M1855.5,731.9c6.5,0,11.8-5.3,11.8-11.8s-5.3-11.8-11.8-11.8-11.8,5.3-11.8,11.8,5.3,11.8,11.8,11.8Z"/><path fill="#8c9bac" d="M1931.2,730.3c5.6,0,10.1-4.5,10.1-10.1s-4.5-10.1-10.1-10.1-10.1,4.5-10.1,10.1,4.5,10.1,10.1,10.1Z"/><path fill="#8c9bac" d="M2006.9,728.4c4.5,0,8.2-3.7,8.2-8.2s-3.7-8.2-8.2-8.2-8.2,3.7-8.2,8.2,3.7,8.2,8.2,8.2Z"/><path fill="#8c9bac" d="M2082.6,726.7c3.6,0,6.5-2.9,6.5-6.5s-2.9-6.5-6.5-6.5-6.5,2.9-6.5,6.5,2.9,6.5,6.5,6.5Z"/><path fill="#8c9bac" d="M2158.3,724.6c2.4,0,4.4-2,4.4-4.4s-2-4.4-4.4-4.4-4.4,2-4.4,4.4,2,4.4,4.4,4.4Z"/><path fill="#8c9bac" d="M2233.9,722.7c1.4,0,2.5-1.1,2.5-2.5s-1.1-2.5-2.5-2.5-2.5,1.1-2.5,2.5,1.1,2.5,2.5,2.5Z"/><path fill="#8c9bac" d="M2309.6,720.8c.4,0,.6-.3.6-.6s-.3-.6-.6-.6-.6.3-.6.6.3.6.6.6Z"/><path fill="#8c9bac" d="M190.4,797.3c.8,0,1.5-.7,1.5-1.5s-.7-1.5-1.5-1.5-1.5.7-1.5,1.5.7,1.5,1.5,1.5Z"/><path fill="#8c9bac" d="M266,799.2c1.9,0,3.4-1.5,3.4-3.4s-1.5-3.4-3.4-3.4-3.4,1.5-3.4,3.4,1.5,3.4,3.4,3.4Z"/><path fill="#8c9bac" d="M341.7,801.3c3,0,5.5-2.4,5.5-5.5s-2.4-5.5-5.5-5.5-5.5,2.4-5.5,5.5,2.4,5.5,5.5,5.5Z"/><path fill="#8c9bac" d="M417.4,803.2c4.1,0,7.4-3.3,7.4-7.3s-3.3-7.3-7.4-7.3-7.4,3.3-7.4,7.3,3.3,7.3,7.4,7.3Z"/><path fill="#8c9bac" d="M493.1,805.1c5.1,0,9.2-4.1,9.2-9.2s-4.1-9.2-9.2-9.2-9.2,4.1-9.2,9.2,4.1,9.2,9.2,9.2Z"/><path fill="#8c9bac" d="M568.8,807c6.1,0,11.1-5,11.1-11.1s-5-11.1-11.1-11.1-11.1,5-11.1,11.1,5,11.1,11.1,11.1Z"/><path fill="#8c9bac" d="M644.5,808.9c7.2,0,13-5.8,13-13s-5.8-13-13-13-13,5.8-13,13,5.8,13,13,13Z"/><path fill="#8c9bac" d="M720.2,810.6c8.1,0,14.7-6.6,14.7-14.7s-6.6-14.7-14.7-14.7-14.7,6.6-14.7,14.7,6.6,14.7,14.7,14.7Z"/><path fill="#8c9bac" d="M795.9,812.2c9,0,16.4-7.3,16.4-16.4s-7.3-16.4-16.4-16.4-16.4,7.3-16.4,16.4,7.3,16.4,16.4,16.4Z"/><path fill="#8c9bac" d="M871.6,813.7c9.8,0,17.8-8,17.8-17.8s-8-17.8-17.8-17.8-17.8,8-17.8,17.8,8,17.8,17.8,17.8Z"/><path fill="#8c9bac" d="M947.2,815c10.5,0,19.1-8.5,19.1-19.1s-8.5-19.1-19.1-19.1-19.1,8.5-19.1,19.1,8.5,19.1,19.1,19.1Z"/><path fill="#8c9bac" d="M1022.9,816.2c11.2,0,20.4-9.1,20.4-20.4s-9.1-20.4-20.4-20.4-20.4,9.1-20.4,20.4,9.1,20.4,20.4,20.4h0Z"/><path fill="#8c9bac" d="M1098.6,817.1c11.7,0,21.2-9.5,21.2-21.2s-9.5-21.2-21.2-21.2-21.2,9.5-21.2,21.2,9.5,21.2,21.2,21.2Z"/><path fill="#8c9bac" d="M1174.3,817.5c11.9,0,21.6-9.7,21.6-21.6s-9.7-21.6-21.6-21.6-21.6,9.7-21.6,21.6,9.7,21.6,21.6,21.6Z"/><path fill="#8c9bac" d="M1250,817.7c12.1,0,21.8-9.8,21.8-21.8s-9.8-21.8-21.8-21.8-21.8,9.8-21.8,21.8,9.8,21.8,21.8,21.8Z"/><path fill="#8c9bac" d="M1325.7,817.5c11.9,0,21.6-9.7,21.6-21.6s-9.7-21.6-21.6-21.6-21.6,9.7-21.6,21.6,9.7,21.6,21.6,21.6Z"/><path fill="#8c9bac" d="M1401.4,817.1c11.7,0,21.2-9.5,21.2-21.2s-9.5-21.2-21.2-21.2-21.2,9.5-21.2,21.2,9.5,21.2,21.2,21.2Z"/><path fill="#8c9bac" d="M1477.1,816.2c11.2,0,20.4-9.1,20.4-20.4s-9.1-20.4-20.4-20.4-20.4,9.1-20.4,20.4,9.1,20.4,20.4,20.4Z"/><path fill="#8c9bac" d="M1552.8,815.2c10.7,0,19.3-8.6,19.3-19.3s-8.6-19.3-19.3-19.3-19.3,8.6-19.3,19.3,8.6,19.3,19.3,19.3Z"/><path fill="#8c9bac" d="M1628.4,813.9c10,0,18.1-8.1,18.1-18s-8.1-18-18.1-18-18.1,8.1-18.1,18,8.1,18,18.1,18Z"/><path fill="#8c9bac" d="M1704.1,812.2c9,0,16.4-7.3,16.4-16.4s-7.3-16.4-16.4-16.4-16.4,7.3-16.4,16.4,7.3,16.4,16.4,16.4Z"/><path fill="#8c9bac" d="M1779.8,810.8c8.2,0,14.9-6.7,14.9-14.9s-6.7-14.9-14.9-14.9-14.9,6.7-14.9,14.9,6.7,14.9,14.9,14.9Z"/><path fill="#8c9bac" d="M1855.5,809.1c7.3,0,13.2-5.9,13.2-13.2s-5.9-13.2-13.2-13.2-13.2,5.9-13.2,13.2,5.9,13.2,13.2,13.2Z"/><path fill="#8c9bac" d="M1931.2,807.2c6.3,0,11.3-5.1,11.3-11.3s-5.1-11.3-11.3-11.3-11.3,5.1-11.3,11.3,5.1,11.3,11.3,11.3Z"/><circle fill="#8c9bac" r="9.4" cx="2006.9" transform="translate(25 1652.2) rotate(-45)" cy="795.9"/><path fill="#8c9bac" d="M2082.6,803.4c4.2,0,7.6-3.4,7.6-7.6s-3.4-7.5-7.6-7.5-7.6,3.4-7.6,7.5,3.4,7.6,7.6,7.6Z"/><path fill="#8c9bac" d="M2158.3,801.5c3.1,0,5.7-2.5,5.7-5.7s-2.5-5.7-5.7-5.7-5.7,2.5-5.7,5.7,2.5,5.7,5.7,5.7Z"/><path fill="#8c9bac" d="M2233.9,799.4c2,0,3.6-1.6,3.6-3.6s-1.6-3.6-3.6-3.6-3.6,1.6-3.6,3.6,1.6,3.6,3.6,3.6Z"/><path fill="#8c9bac" d="M2309.6,797.5c.9,0,1.7-.8,1.7-1.7s-.8-1.7-1.7-1.7-1.7.8-1.7,1.7.8,1.7,1.7,1.7Z"/><path fill="#8c9bac" d="M2385.3,796.1c.1,0,.2,0,.2-.2s0-.2-.2-.2-.2,0-.2.2,0,.2.2.2Z"/><path fill="#8c9bac" d="M114.7,872c.2,0,.4-.2.4-.4s-.2-.4-.4-.4-.4.2-.4.4.2.4.4.4Z"/><path fill="#8c9bac" d="M190.4,873.9c1.3,0,2.3-1,2.3-2.3s-1-2.3-2.3-2.3-2.3,1-2.3,2.3,1,2.3,2.3,2.3Z"/><path fill="#8c9bac" d="M266,875.8c2.3,0,4.2-1.9,4.2-4.2s-1.9-4.2-4.2-4.2-4.2,1.9-4.2,4.2,1.9,4.2,4.2,4.2Z"/><path fill="#8c9bac" d="M341.7,877.9c3.5,0,6.3-2.8,6.3-6.3s-2.8-6.3-6.3-6.3-6.3,2.8-6.3,6.3,2.8,6.3,6.3,6.3Z"/><path fill="#8c9bac" d="M417.4,880c4.6,0,8.4-3.8,8.4-8.4s-3.8-8.4-8.4-8.4-8.4,3.8-8.4,8.4,3.8,8.4,8.4,8.4Z"/><path fill="#8c9bac" d="M493.1,881.8c5.7,0,10.3-4.6,10.3-10.3s-4.6-10.3-10.3-10.3-10.3,4.6-10.3,10.3,4.6,10.3,10.3,10.3Z"/><path fill="#8c9bac" d="M568.8,883.9c6.8,0,12.4-5.5,12.4-12.4s-5.5-12.4-12.4-12.4-12.4,5.5-12.4,12.4,5.5,12.4,12.4,12.4Z"/><path fill="#8c9bac" d="M644.5,885.8c7.9,0,14.3-6.4,14.3-14.3s-6.4-14.3-14.3-14.3-14.3,6.4-14.3,14.3,6.4,14.3,14.3,14.3Z"/><circle fill="#8c9bac" r="16" cx="720.1" cy="871.6"/><path fill="#8c9bac" d="M795.9,889.4c9.8,0,17.8-8,17.8-17.8s-8-17.8-17.8-17.8-17.8,8-17.8,17.8,8,17.8,17.8,17.8Z"/><path fill="#8c9bac" d="M871.6,891.1c10.8,0,19.5-8.7,19.5-19.5s-8.7-19.5-19.5-19.5-19.5,8.7-19.5,19.5,8.7,19.5,19.5,19.5Z"/><circle fill="#8c9bac" r="21" cx="947.2" cy="871.6"/><path fill="#8c9bac" d="M1022.9,893.8c12.3,0,22.2-10,22.2-22.2s-10-22.2-22.2-22.2-22.2,10-22.2,22.2,10,22.2,22.2,22.2h0Z"/><path fill="#8c9bac" d="M1098.6,894.7c12.8,0,23.1-10.3,23.1-23.1s-10.3-23.1-23.1-23.1-23.1,10.3-23.1,23.1,10.3,23.1,23.1,23.1Z"/><path fill="#8c9bac" d="M1174.3,895.5c13.2,0,23.9-10.7,23.9-23.9s-10.7-23.9-23.9-23.9-23.9,10.7-23.9,23.9,10.7,23.9,23.9,23.9Z"/><path fill="#8c9bac" d="M1250,895.7c13.3,0,24.1-10.8,24.1-24.1s-10.8-24.1-24.1-24.1-24.1,10.8-24.1,24.1,10.8,24.1,24.1,24.1Z"/><path fill="#8c9bac" d="M1325.7,895.5c13.2,0,23.9-10.7,23.9-23.9s-10.7-23.9-23.9-23.9-23.9,10.7-23.9,23.9,10.7,23.9,23.9,23.9Z"/><path fill="#8c9bac" d="M1401.4,894.9c12.9,0,23.3-10.4,23.3-23.3s-10.4-23.3-23.3-23.3-23.3,10.4-23.3,23.3,10.4,23.3,23.3,23.3Z"/><path fill="#8c9bac" d="M1477.1,893.8c12.3,0,22.2-10,22.2-22.2s-10-22.2-22.2-22.2-22.2,10-22.2,22.2,10,22.2,22.2,22.2Z"/><circle fill="#8c9bac" r="21" cx="1552.7" cy="871.6"/><path fill="#8c9bac" d="M1628.4,891.3c10.9,0,19.7-8.8,19.7-19.7s-8.8-19.7-19.7-19.7-19.7,8.8-19.7,19.7,8.8,19.7,19.7,19.7Z"/><path fill="#8c9bac" d="M1704.1,889.6c10,0,18.1-8.1,18.1-18s-8.1-18-18.1-18-18.1,8.1-18.1,18,8.1,18,18.1,18Z"/><path fill="#8c9bac" d="M1779.8,887.7c8.9,0,16.2-7.2,16.2-16.2s-7.2-16.2-16.2-16.2-16.2,7.2-16.2,16.2,7.2,16.2,16.2,16.2Z"/><path fill="#8c9bac" d="M1855.5,885.8c7.9,0,14.3-6.4,14.3-14.3s-6.4-14.3-14.3-14.3-14.3,6.4-14.3,14.3,6.4,14.3,14.3,14.3Z"/><path fill="#8c9bac" d="M1931.2,884.2c6.9,0,12.6-5.6,12.6-12.6s-5.6-12.6-12.6-12.6-12.6,5.6-12.6,12.6,5.6,12.6,12.6,12.6Z"/><circle fill="#8c9bac" r="10.5" cx="2006.9" cy="871.6"/><path fill="#8c9bac" d="M2082.6,880.2c4.8,0,8.6-3.8,8.6-8.6s-3.9-8.6-8.6-8.6-8.6,3.8-8.6,8.6,3.9,8.6,8.6,8.6Z"/><path fill="#8c9bac" d="M2158.3,878.1c3.6,0,6.5-2.9,6.5-6.5s-2.9-6.5-6.5-6.5-6.5,2.9-6.5,6.5,2.9,6.5,6.5,6.5Z"/><path fill="#8c9bac" d="M2233.9,876c2.4,0,4.4-2,4.4-4.4s-2-4.4-4.4-4.4-4.4,2-4.4,4.4,2,4.4,4.4,4.4Z"/><path fill="#8c9bac" d="M2309.6,873.9c1.3,0,2.3-1,2.3-2.3s-1-2.3-2.3-2.3-2.3,1-2.3,2.3,1,2.3,2.3,2.3Z"/><path fill="#8c9bac" d="M2385.3,872c.2,0,.4-.2.4-.4s-.2-.4-.4-.4-.4.2-.4.4.2.4.4.4Z"/><path fill="#8c9bac" d="M114.7,948.1c.5,0,.8-.4.8-.8s-.4-.8-.8-.8-.8.4-.8.8.4.8.8.8Z"/><path fill="#8c9bac" d="M190.4,950.2c1.6,0,2.9-1.3,2.9-2.9s-1.3-2.9-2.9-2.9-2.9,1.3-2.9,2.9,1.3,2.9,2.9,2.9Z"/><path fill="#8c9bac" d="M266,952.3c2.8,0,5-2.2,5-5s-2.2-5-5-5-5,2.2-5,5,2.3,5,5,5Z"/><path fill="#8c9bac" d="M341.7,954.4c3.9,0,7.1-3.2,7.1-7.1s-3.2-7.1-7.1-7.1-7.1,3.2-7.1,7.1,3.2,7.1,7.1,7.1Z"/><path fill="#8c9bac" d="M417.4,956.5c5.1,0,9.2-4.1,9.2-9.2s-4.1-9.2-9.2-9.2-9.2,4.1-9.2,9.2,4.1,9.2,9.2,9.2Z"/><path fill="#8c9bac" d="M493.1,958.6c6.3,0,11.3-5.1,11.3-11.3s-5.1-11.3-11.3-11.3-11.3,5.1-11.3,11.3,5.1,11.3,11.3,11.3Z"/><path fill="#8c9bac" d="M568.8,960.5c7.3,0,13.2-5.9,13.2-13.2s-5.9-13.2-13.2-13.2-13.2,5.9-13.2,13.2,5.9,13.2,13.2,13.2Z"/><path fill="#8c9bac" d="M644.5,962.6c8.5,0,15.3-6.9,15.3-15.3s-6.9-15.3-15.3-15.3-15.3,6.9-15.3,15.3,6.9,15.3,15.3,15.3Z"/><path fill="#8c9bac" d="M720.2,964.5c9.5,0,17.2-7.7,17.2-17.2s-7.7-17.2-17.2-17.2-17.2,7.7-17.2,17.2,7.7,17.2,17.2,17.2Z"/><path fill="#8c9bac" d="M795.9,966.3c10.5,0,19.1-8.5,19.1-19.1s-8.5-19.1-19.1-19.1-19.1,8.5-19.1,19.1,8.5,19.1,19.1,19.1Z"/><path fill="#8c9bac" d="M871.6,968.2c11.6,0,21-9.4,21-21s-9.4-21-21-21-21,9.4-21,21,9.4,21,21,21Z"/><path fill="#8c9bac" d="M947.2,969.9c12.5,0,22.7-10.2,22.7-22.7s-10.2-22.7-22.7-22.7-22.7,10.2-22.7,22.7,10.2,22.7,22.7,22.7Z"/><path fill="#8c9bac" d="M1022.9,971.4c13.3,0,24.1-10.8,24.1-24.1s-10.8-24.1-24.1-24.1-24.1,10.8-24.1,24.1,10.8,24.1,24.1,24.1h0Z"/><path fill="#8c9bac" d="M1098.6,972.4c13.9,0,25.2-11.3,25.2-25.2s-11.3-25.2-25.2-25.2-25.2,11.3-25.2,25.2,11.3,25.2,25.2,25.2Z"/><path fill="#8c9bac" d="M1174.3,973.3c14.4,0,26-11.7,26-26s-11.7-26-26-26-26,11.7-26,26,11.7,26,26,26Z"/><path fill="#8c9bac" d="M1250,973.5c14.5,0,26.2-11.8,26.2-26.2s-11.8-26.2-26.2-26.2-26.2,11.8-26.2,26.2,11.8,26.2,26.2,26.2Z"/><path fill="#8c9bac" d="M1325.7,973.3c14.4,0,26-11.7,26-26s-11.7-26-26-26-26,11.7-26,26,11.7,26,26,26Z"/><path fill="#8c9bac" d="M1401.4,972.6c14,0,25.4-11.4,25.4-25.4s-11.4-25.4-25.4-25.4-25.4,11.4-25.4,25.4,11.4,25.4,25.4,25.4Z"/><path fill="#8c9bac" d="M1477.1,971.4c13.3,0,24.1-10.8,24.1-24.1s-10.8-24.1-24.1-24.1-24.1,10.8-24.1,24.1,10.8,24.1,24.1,24.1Z"/><path fill="#8c9bac" d="M1552.8,969.9c12.5,0,22.7-10.2,22.7-22.7s-10.2-22.7-22.7-22.7-22.7,10.2-22.7,22.7,10.2,22.7,22.7,22.7Z"/><path fill="#8c9bac" d="M1628.4,968.5c11.7,0,21.2-9.5,21.2-21.2s-9.5-21.2-21.2-21.2-21.2,9.5-21.2,21.2,9.5,21.2,21.2,21.2Z"/><path fill="#8c9bac" d="M1704.1,966.6c10.7,0,19.3-8.6,19.3-19.3s-8.6-19.3-19.3-19.3-19.3,8.6-19.3,19.3,8.6,19.3,19.3,19.3Z"/><path fill="#8c9bac" d="M1779.8,964.7c9.6,0,17.4-7.8,17.4-17.4s-7.8-17.4-17.4-17.4-17.4,7.8-17.4,17.4,7.8,17.4,17.4,17.4Z"/><path fill="#8c9bac" d="M1855.5,962.8c8.6,0,15.5-7,15.5-15.5s-6.9-15.5-15.5-15.5-15.5,7-15.5,15.5,6.9,15.5,15.5,15.5Z"/><path fill="#8c9bac" d="M1931.2,960.7c7.4,0,13.4-6,13.4-13.4s-6-13.4-13.4-13.4-13.4,6-13.4,13.4,6,13.4,13.4,13.4Z"/><path fill="#8c9bac" d="M2006.9,958.6c6.3,0,11.3-5.1,11.3-11.3s-5.1-11.3-11.3-11.3-11.3,5.1-11.3,11.3,5.1,11.3,11.3,11.3Z"/><path fill="#8c9bac" d="M2082.6,956.7c5.2,0,9.4-4.2,9.4-9.5s-4.2-9.4-9.4-9.4-9.4,4.2-9.4,9.4,4.2,9.5,9.4,9.5Z"/><path fill="#8c9bac" d="M2158.3,954.6c4.1,0,7.4-3.3,7.4-7.3s-3.3-7.3-7.4-7.3-7.4,3.3-7.4,7.3,3.3,7.3,7.4,7.3Z"/><path fill="#8c9bac" d="M2233.9,952.5c2.9,0,5.2-2.3,5.2-5.2s-2.4-5.2-5.2-5.2-5.2,2.3-5.2,5.2,2.4,5.2,5.2,5.2Z"/><path fill="#8c9bac" d="M2309.6,950.4c1.7,0,3.1-1.4,3.1-3.2s-1.4-3.2-3.1-3.2-3.1,1.4-3.1,3.2,1.4,3.2,3.1,3.2Z"/><path fill="#8c9bac" d="M2385.3,948.3c.6,0,1.1-.5,1.1-1s-.5-1-1.1-1-1.1.5-1.1,1,.5,1,1.1,1Z"/><path fill="#8c9bac" d="M114.7,1024.2c.7,0,1.3-.6,1.3-1.3s-.6-1.3-1.3-1.3-1.3.6-1.3,1.3.6,1.3,1.3,1.3Z"/><path fill="#8c9bac" d="M190.4,1026.3c1.9,0,3.4-1.5,3.4-3.4s-1.5-3.4-3.4-3.4-3.4,1.5-3.4,3.4,1.5,3.4,3.4,3.4Z"/><path fill="#8c9bac" d="M266,1028.6c3.1,0,5.7-2.5,5.7-5.7s-2.5-5.7-5.7-5.7-5.7,2.5-5.7,5.7,2.5,5.7,5.7,5.7Z"/><path fill="#8c9bac" d="M341.7,1030.7c4.3,0,7.8-3.5,7.8-7.8s-3.5-7.8-7.8-7.8-7.8,3.5-7.8,7.8,3.5,7.8,7.8,7.8Z"/><path fill="#8c9bac" d="M417.4,1032.8c5.5,0,9.9-4.4,9.9-9.9s-4.4-9.9-9.9-9.9-9.9,4.4-9.9,9.9,4.4,9.9,9.9,9.9Z"/><path fill="#8c9bac" d="M493.1,1034.9c6.6,0,12-5.4,12-12s-5.4-12-12-12-12,5.4-12,12,5.4,12,12,12Z"/><path fill="#8c9bac" d="M568.8,1037c7.8,0,14.1-6.3,14.1-14.1s-6.3-14.1-14.1-14.1-14.1,6.3-14.1,14.1,6.3,14.1,14.1,14.1Z"/><path fill="#8c9bac" d="M644.5,1039.1c8.9,0,16.2-7.2,16.2-16.2s-7.2-16.2-16.2-16.2-16.2,7.2-16.2,16.2,7.2,16.2,16.2,16.2Z"/><path fill="#8c9bac" d="M720.2,1041.2c10.1,0,18.3-8.2,18.3-18.3s-8.2-18.3-18.3-18.3-18.3,8.2-18.3,18.3,8.2,18.3,18.3,18.3Z"/><path fill="#8c9bac" d="M795.9,1043.3c11.2,0,20.4-9.1,20.4-20.4s-9.1-20.4-20.4-20.4-20.4,9.1-20.4,20.4,9.1,20.4,20.4,20.4Z"/><path fill="#8c9bac" d="M871.6,1045.2c12.3,0,22.2-10,22.2-22.2s-10-22.2-22.2-22.2-22.2,10-22.2,22.2,10,22.2,22.2,22.2Z"/><path fill="#8c9bac" d="M947.2,1047.1c13.3,0,24.1-10.8,24.1-24.1s-10.8-24.1-24.1-24.1-24.1,10.8-24.1,24.1,10.8,24.1,24.1,24.1Z"/><path fill="#8c9bac" d="M1022.9,1048.5c14.1,0,25.6-11.5,25.6-25.6s-11.5-25.6-25.6-25.6-25.6,11.5-25.6,25.6,11.5,25.6,25.6,25.6h0Z"/><path fill="#8c9bac" d="M1098.6,1050c14.9,0,27.1-12.1,27.1-27.1s-12.1-27.1-27.1-27.1-27.1,12.1-27.1,27.1,12.1,27.1,27.1,27.1Z"/><path fill="#8c9bac" d="M1174.3,1051.1c15.5,0,28.1-12.6,28.1-28.1s-12.6-28.1-28.1-28.1-28.1,12.6-28.1,28.1,12.6,28.1,28.1,28.1Z"/><path fill="#8c9bac" d="M1250,1051.5c15.8,0,28.5-12.8,28.5-28.5s-12.8-28.5-28.5-28.5-28.5,12.8-28.5,28.5,12.8,28.5,28.5,28.5Z"/><path fill="#8c9bac" d="M1325.7,1051.1c15.5,0,28.1-12.6,28.1-28.1s-12.6-28.1-28.1-28.1-28.1,12.6-28.1,28.1,12.6,28.1,28.1,28.1Z"/><path fill="#8c9bac" d="M1401.4,1050.2c15.1,0,27.3-12.2,27.3-27.3s-12.2-27.3-27.3-27.3-27.3,12.2-27.3,27.3,12.2,27.3,27.3,27.3Z"/><path fill="#8c9bac" d="M1477.1,1048.8c14.3,0,25.8-11.6,25.8-25.8s-11.6-25.8-25.8-25.8-25.8,11.6-25.8,25.8,11.6,25.8,25.8,25.8Z"/><path fill="#8c9bac" d="M1552.8,1047.1c13.3,0,24.1-10.8,24.1-24.1s-10.8-24.1-24.1-24.1-24.1,10.8-24.1,24.1,10.8,24.1,24.1,24.1Z"/><path fill="#8c9bac" d="M1628.4,1045.2c12.3,0,22.2-10,22.2-22.2s-10-22.2-22.2-22.2-22.2,10-22.2,22.2,10,22.2,22.2,22.2Z"/><path fill="#8c9bac" d="M1704.1,1043.3c11.2,0,20.4-9.1,20.4-20.4s-9.1-20.4-20.4-20.4-20.4,9.1-20.4,20.4,9.1,20.4,20.4,20.4Z"/><circle fill="#8c9bac" r="18.5" cx="1779.9" transform="translate(-92.2 180.5) rotate(-5.7)" cy="1022.8"/><path fill="#8c9bac" d="M1855.5,1039.3c9,0,16.4-7.3,16.4-16.4s-7.3-16.4-16.4-16.4-16.4,7.3-16.4,16.4,7.3,16.4,16.4,16.4Z"/><path fill="#8c9bac" d="M1931.2,1037.2c7.9,0,14.3-6.4,14.3-14.3s-6.4-14.3-14.3-14.3-14.3,6.4-14.3,14.3,6.4,14.3,14.3,14.3Z"/><path fill="#8c9bac" d="M2006.9,1035.1c6.7,0,12.2-5.4,12.2-12.2s-5.4-12.2-12.2-12.2-12.2,5.5-12.2,12.2,5.4,12.2,12.2,12.2Z"/><path fill="#8c9bac" d="M2082.6,1033c5.6,0,10.1-4.5,10.1-10.1s-4.5-10.1-10.1-10.1-10.1,4.5-10.1,10.1,4.5,10.1,10.1,10.1Z"/><circle fill="#8c9bac" r="8" cx="2158.3" cy="1022.9"/><path fill="#8c9bac" d="M2233.9,1028.8c3.2,0,5.9-2.6,5.9-5.9s-2.6-5.9-5.9-5.9-5.9,2.6-5.9,5.9,2.6,5.9,5.9,5.9Z"/><path fill="#8c9bac" d="M2309.6,1026.5c2,0,3.6-1.6,3.6-3.6s-1.6-3.6-3.6-3.6-3.6,1.6-3.6,3.6,1.6,3.6,3.6,3.6Z"/><path fill="#8c9bac" d="M2385.3,1024.4c.8,0,1.5-.7,1.5-1.5s-.7-1.5-1.5-1.5-1.5.7-1.5,1.5.7,1.5,1.5,1.5Z"/><path fill="#8c9bac" d="M114.7,1100.3c.9,0,1.7-.8,1.7-1.7s-.8-1.7-1.7-1.7-1.7.8-1.7,1.7.8,1.7,1.7,1.7Z"/><path fill="#8c9bac" d="M190.4,1102.4c2.1,0,3.8-1.7,3.8-3.8s-1.7-3.8-3.8-3.8-3.8,1.7-3.8,3.8,1.7,3.8,3.8,3.8Z"/><path fill="#8c9bac" d="M266,1104.7c3.4,0,6.1-2.7,6.1-6.1s-2.7-6.1-6.1-6.1-6.1,2.7-6.1,6.1,2.7,6.1,6.1,6.1Z"/><path fill="#8c9bac" d="M341.7,1106.8c4.5,0,8.2-3.7,8.2-8.2s-3.7-8.2-8.2-8.2-8.2,3.7-8.2,8.2,3.7,8.2,8.2,8.2Z"/><path fill="#8c9bac" d="M417.4,1108.9c5.7,0,10.3-4.6,10.3-10.3s-4.6-10.3-10.3-10.3-10.3,4.6-10.3,10.3,4.6,10.3,10.3,10.3Z"/><path fill="#8c9bac" d="M493.1,1111.2c7,0,12.6-5.6,12.6-12.6s-5.6-12.6-12.6-12.6-12.6,5.6-12.6,12.6,5.6,12.6,12.6,12.6Z"/><path fill="#8c9bac" d="M568.8,1113.3c8.1,0,14.7-6.6,14.7-14.7s-6.6-14.7-14.7-14.7-14.7,6.6-14.7,14.7,6.6,14.7,14.7,14.7Z"/><path fill="#8c9bac" d="M644.5,1115.4c9.3,0,16.8-7.5,16.8-16.8s-7.5-16.8-16.8-16.8-16.8,7.5-16.8,16.8,7.5,16.8,16.8,16.8Z"/><path fill="#8c9bac" d="M720.2,1117.7c10.5,0,19.1-8.6,19.1-19.1s-8.5-19.1-19.1-19.1-19.1,8.6-19.1,19.1,8.5,19.1,19.1,19.1Z"/><path fill="#8c9bac" d="M795.9,1119.8c11.7,0,21.2-9.5,21.2-21.2s-9.5-21.2-21.2-21.2-21.2,9.5-21.2,21.2,9.5,21.2,21.2,21.2Z"/><path fill="#8c9bac" d="M871.6,1121.7c12.8,0,23.1-10.3,23.1-23.1s-10.3-23.1-23.1-23.1-23.1,10.3-23.1,23.1,10.3,23.1,23.1,23.1Z"/><path fill="#8c9bac" d="M947.2,1123.8c13.9,0,25.2-11.3,25.2-25.2s-11.3-25.2-25.2-25.2-25.2,11.3-25.2,25.2,11.3,25.2,25.2,25.2Z"/><path fill="#8c9bac" d="M1022.9,1125.7c15,0,27.1-12.1,27.1-27.1s-12.1-27.1-27.1-27.1-27.1,12.1-27.1,27.1,12.1,27.1,27.1,27.1Z"/><path fill="#8c9bac" d="M1098.6,1127.4c15.9,0,28.8-12.9,28.8-28.8s-12.9-28.8-28.8-28.8-28.8,12.9-28.8,28.8,12.9,28.8,28.8,28.8Z"/><path fill="#8c9bac" d="M1174.3,1128.8c16.7,0,30.2-13.5,30.2-30.2s-13.5-30.2-30.2-30.2-30.2,13.5-30.2,30.2,13.5,30.2,30.2,30.2Z"/><path fill="#8c9bac" d="M1250,1129.3c16.9,0,30.6-13.7,30.6-30.6s-13.7-30.6-30.6-30.6-30.6,13.7-30.6,30.6,13.7,30.6,30.6,30.6Z"/><path fill="#8c9bac" d="M1325.7,1128.8c16.7,0,30.2-13.5,30.2-30.2s-13.5-30.2-30.2-30.2-30.2,13.5-30.2,30.2,13.5,30.2,30.2,30.2Z"/><circle fill="#8c9bac" r="29" cx="1401.4" cy="1098.6"/><path fill="#8c9bac" d="M1477.1,1125.9c15.1,0,27.3-12.2,27.3-27.3s-12.2-27.3-27.3-27.3-27.3,12.2-27.3,27.3,12.2,27.3,27.3,27.3Z"/><path fill="#8c9bac" d="M1552.8,1124c14,0,25.4-11.4,25.4-25.4s-11.4-25.4-25.4-25.4-25.4,11.4-25.4,25.4,11.4,25.4,25.4,25.4Z"/><path fill="#8c9bac" d="M1628.4,1121.9c12.9,0,23.3-10.4,23.3-23.3s-10.4-23.3-23.3-23.3-23.3,10.4-23.3,23.3,10.4,23.3,23.3,23.3Z"/><path fill="#8c9bac" d="M1704.1,1119.8c11.7,0,21.2-9.5,21.2-21.2s-9.5-21.2-21.2-21.2-21.2,9.5-21.2,21.2,9.5,21.2,21.2,21.2Z"/><path fill="#8c9bac" d="M1779.8,1117.9c10.7,0,19.3-8.6,19.3-19.3s-8.6-19.3-19.3-19.3-19.3,8.6-19.3,19.3,8.6,19.3,19.3,19.3Z"/><circle fill="#8c9bac" r="17" cx="1855.5" cy="1098.6"/><path fill="#8c9bac" d="M1931.2,1113.5c8.2,0,14.9-6.7,14.9-14.9s-6.7-14.9-14.9-14.9-14.9,6.7-14.9,14.9,6.7,14.9,14.9,14.9Z"/><path fill="#8c9bac" d="M2006.9,1111.4c7.1,0,12.8-5.7,12.8-12.8s-5.7-12.8-12.8-12.8-12.8,5.7-12.8,12.8,5.7,12.8,12.8,12.8Z"/><circle fill="#8c9bac" r="10.5" cx="2082.6" cy="1098.6"/><path fill="#8c9bac" d="M2158.3,1107c4.6,0,8.4-3.8,8.4-8.4s-3.8-8.4-8.4-8.4-8.4,3.8-8.4,8.4,3.8,8.4,8.4,8.4Z"/><path fill="#8c9bac" d="M2233.9,1104.9c3.5,0,6.3-2.8,6.3-6.3s-2.8-6.3-6.3-6.3-6.3,2.8-6.3,6.3,2.8,6.3,6.3,6.3Z"/><path fill="#8c9bac" d="M2309.6,1102.6c2.2,0,4-1.8,4-4s-1.8-4-4-4-4,1.8-4,4,1.8,4,4,4Z"/><path fill="#8c9bac" d="M2385.3,1100.5c1,0,1.9-.8,1.9-1.9s-.9-1.9-1.9-1.9-1.9.8-1.9,1.9.9,1.9,1.9,1.9Z"/><path fill="#8c9bac" d="M2461,1098.8c.1,0,.2,0,.2-.2s0-.2-.2-.2-.2,0-.2.2,0,.2.2.2Z"/><path fill="#8c9bac" d="M39,1174.5c.1,0,.2,0,.2-.2s0-.2-.2-.2-.2,0-.2.2,0,.2.2.2Z"/><path fill="#8c9bac" d="M114.7,1176.2c1,0,1.9-.8,1.9-1.9s-.8-1.9-1.9-1.9-1.9.8-1.9,1.9.8,1.9,1.9,1.9Z"/><path fill="#8c9bac" d="M190.4,1178.3c2.2,0,4-1.8,4-4s-1.8-4-4-4-4,1.8-4,4,1.8,4,4,4Z"/><path fill="#8c9bac" d="M266,1180.6c3.5,0,6.3-2.8,6.3-6.3s-2.8-6.3-6.3-6.3-6.3,2.8-6.3,6.3,2.8,6.3,6.3,6.3Z"/><path fill="#8c9bac" d="M341.7,1182.7c4.6,0,8.4-3.8,8.4-8.4s-3.8-8.4-8.4-8.4-8.4,3.8-8.4,8.4,3.8,8.4,8.4,8.4Z"/><path fill="#8c9bac" d="M417.4,1185c5.9,0,10.7-4.8,10.7-10.7s-4.8-10.7-10.7-10.7-10.7,4.8-10.7,10.7,4.8,10.7,10.7,10.7Z"/><path fill="#8c9bac" d="M493.1,1187.3c7.2,0,13-5.8,13-13s-5.8-13-13-13-13,5.8-13,13,5.8,13,13,13Z"/><path fill="#8c9bac" d="M568.8,1189.4c8.3,0,15.1-6.8,15.1-15.1s-6.8-15.1-15.1-15.1-15.1,6.8-15.1,15.1,6.8,15.1,15.1,15.1Z"/><path fill="#8c9bac" d="M644.5,1191.5c9.5,0,17.2-7.7,17.2-17.2s-7.7-17.2-17.2-17.2-17.2,7.7-17.2,17.2,7.7,17.2,17.2,17.2Z"/><path fill="#8c9bac" d="M720.2,1193.8c10.8,0,19.5-8.7,19.5-19.5s-8.7-19.5-19.5-19.5-19.5,8.7-19.5,19.5,8.7,19.5,19.5,19.5Z"/><path fill="#8c9bac" d="M795.9,1195.9c11.9,0,21.6-9.7,21.6-21.6s-9.7-21.6-21.6-21.6-21.6,9.7-21.6,21.6,9.7,21.6,21.6,21.6Z"/><circle fill="#8c9bac" r="23.9" cx="871.6" transform="translate(-546.9 1530.1) rotate(-67.5)" cy="1174.3"/><path fill="#8c9bac" d="M947.2,1200.3c14.4,0,26-11.7,26-26s-11.7-26-26-26-26,11.7-26,26,11.7,26,26,26Z"/><path fill="#8c9bac" d="M1022.9,1202.4c15.5,0,28.1-12.6,28.1-28.1s-12.6-28.1-28.1-28.1-28.1,12.6-28.1,28.1,12.6,28.1,28.1,28.1h0Z"/><path fill="#8c9bac" d="M1098.6,1204.5c16.7,0,30.2-13.5,30.2-30.2s-13.5-30.2-30.2-30.2-30.2,13.5-30.2,30.2,13.5,30.2,30.2,30.2Z"/><circle fill="#8c9bac" r="31.9" cx="1174.3" cy="1174.4"/><path fill="#8c9bac" d="M1250,1207.1c18.1,0,32.7-14.7,32.7-32.7s-14.7-32.7-32.7-32.7-32.7,14.7-32.7,32.7,14.7,32.7,32.7,32.7Z"/><path fill="#8c9bac" d="M1325.7,1206.4c17.7,0,32.1-14.4,32.1-32.1s-14.4-32.1-32.1-32.1-32.1,14.4-32.1,32.1,14.4,32.1,32.1,32.1Z"/><circle fill="#8c9bac" r="30.4" cx="1401.4" cy="1174.3"/><path fill="#8c9bac" d="M1477.1,1202.7c15.7,0,28.3-12.7,28.3-28.3s-12.7-28.3-28.3-28.3-28.3,12.7-28.3,28.3,12.7,28.3,28.3,28.3Z"/><path fill="#8c9bac" d="M1552.8,1200.6c14.5,0,26.2-11.8,26.2-26.2s-11.8-26.2-26.2-26.2-26.2,11.8-26.2,26.2,11.8,26.2,26.2,26.2Z"/><path fill="#8c9bac" d="M1628.4,1198.4c13.3,0,24.1-10.8,24.1-24.1s-10.8-24.1-24.1-24.1-24.1,10.8-24.1,24.1,10.8,24.1,24.1,24.1Z"/><path fill="#8c9bac" d="M1704.1,1196.1c12.1,0,21.8-9.8,21.8-21.8s-9.8-21.8-21.8-21.8-21.8,9.8-21.8,21.8,9.8,21.8,21.8,21.8Z"/><path fill="#8c9bac" d="M1779.8,1194c10.9,0,19.7-8.8,19.7-19.7s-8.8-19.7-19.7-19.7-19.7,8.8-19.7,19.7,8.8,19.7,19.7,19.7Z"/><circle fill="#8c9bac" r="17.4" cx="1855.5" cy="1174.3"/><path fill="#8c9bac" d="M1931.2,1189.6c8.5,0,15.3-6.9,15.3-15.3s-6.9-15.3-15.3-15.3-15.3,6.9-15.3,15.3,6.9,15.3,15.3,15.3Z"/><circle fill="#8c9bac" r="13" cx="2006.9" cy="1174.3"/><path fill="#8c9bac" d="M2082.6,1185.2c6,0,10.9-4.9,10.9-10.9s-4.9-10.9-10.9-10.9-10.9,4.9-10.9,10.9,4.9,10.9,10.9,10.9Z"/><path fill="#8c9bac" d="M2158.3,1182.9c4.8,0,8.6-3.8,8.6-8.6s-3.9-8.6-8.6-8.6-8.6,3.8-8.6,8.6,3.9,8.6,8.6,8.6Z"/><path fill="#8c9bac" d="M2233.9,1180.8c3.6,0,6.5-2.9,6.5-6.5s-2.9-6.5-6.5-6.5-6.5,2.9-6.5,6.5,2.9,6.5,6.5,6.5Z"/><path fill="#8c9bac" d="M2309.6,1178.5c2.3,0,4.2-1.9,4.2-4.2s-1.9-4.2-4.2-4.2-4.2,1.9-4.2,4.2,1.9,4.2,4.2,4.2Z"/><path fill="#8c9bac" d="M2385.3,1176.4c1.2,0,2.1-.9,2.1-2.1s-.9-2.1-2.1-2.1-2.1.9-2.1,2.1.9,2.1,2.1,2.1Z"/><path fill="#8c9bac" d="M2461,1174.5c.1,0,.2,0,.2-.2s0-.2-.2-.2-.2,0-.2.2,0,.2.2.2Z"/><path fill="#8c9bac" d="M39,1250.2c.1,0,.2,0,.2-.2s0-.2-.2-.2-.2,0-.2.2,0,.2.2.2Z"/><path fill="#8c9bac" d="M114.7,1251.9c1,0,1.9-.8,1.9-1.9s-.8-1.9-1.9-1.9-1.9.8-1.9,1.9.8,1.9,1.9,1.9Z"/><path fill="#8c9bac" d="M190.4,1254.2c2.3,0,4.2-1.9,4.2-4.2s-1.9-4.2-4.2-4.2-4.2,1.9-4.2,4.2,1.9,4.2,4.2,4.2Z"/><path fill="#8c9bac" d="M266,1256.3c3.5,0,6.3-2.8,6.3-6.3s-2.8-6.3-6.3-6.3-6.3,2.8-6.3,6.3,2.8,6.3,6.3,6.3Z"/><path fill="#8c9bac" d="M341.7,1258.6c4.8,0,8.6-3.8,8.6-8.6s-3.9-8.6-8.6-8.6-8.6,3.8-8.6,8.6,3.9,8.6,8.6,8.6Z"/><path fill="#8c9bac" d="M417.4,1260.7c5.9,0,10.7-4.8,10.7-10.7s-4.8-10.7-10.7-10.7-10.7,4.8-10.7,10.7,4.8,10.7,10.7,10.7Z"/><path fill="#8c9bac" d="M493.1,1263c7.2,0,13-5.8,13-13s-5.8-13-13-13-13,5.8-13,13,5.8,13,13,13Z"/><path fill="#8c9bac" d="M568.8,1265.1c8.3,0,15.1-6.8,15.1-15.1s-6.8-15.1-15.1-15.1-15.1,6.8-15.1,15.1,6.8,15.1,15.1,15.1Z"/><path fill="#8c9bac" d="M644.5,1267.4c9.6,0,17.4-7.8,17.4-17.4s-7.8-17.4-17.4-17.4-17.4,7.8-17.4,17.4,7.8,17.4,17.4,17.4Z"/><path fill="#8c9bac" d="M720.2,1269.7c10.9,0,19.7-8.8,19.7-19.7s-8.8-19.7-19.7-19.7-19.7,8.8-19.7,19.7,8.8,19.7,19.7,19.7Z"/><path fill="#8c9bac" d="M795.9,1271.8c12,0,21.8-9.8,21.8-21.8s-9.8-21.8-21.8-21.8-21.8,9.8-21.8,21.8,9.8,21.8,21.8,21.8Z"/><path fill="#8c9bac" d="M871.6,1274.1c13.3,0,24.1-10.8,24.1-24.1s-10.8-24.1-24.1-24.1-24.1,10.8-24.1,24.1,10.8,24.1,24.1,24.1Z"/><path fill="#8c9bac" d="M947.2,1276.2c14.5,0,26.2-11.8,26.2-26.2s-11.8-26.2-26.2-26.2-26.2,11.8-26.2,26.2,11.8,26.2,26.2,26.2Z"/><path fill="#8c9bac" d="M1022.9,1278.5c15.8,0,28.5-12.8,28.5-28.5s-12.8-28.5-28.5-28.5-28.5,12.8-28.5,28.5,12.8,28.5,28.5,28.5Z"/><path fill="#8c9bac" d="M1098.6,1280.6c16.9,0,30.6-13.7,30.6-30.6s-13.7-30.6-30.6-30.6-30.6,13.7-30.6,30.6,13.7,30.6,30.6,30.6Z"/><path fill="#8c9bac" d="M1174.3,1282.7c18.1,0,32.7-14.7,32.7-32.7s-14.7-32.7-32.7-32.7-32.7,14.7-32.7,32.7,14.7,32.7,32.7,32.7Z"/><circle fill="#8c9bac" r="34.4" cx="1250" cy="1250"/><circle fill="#8c9bac" r="32.9" cx="1325.7" cy="1250"/><path fill="#8c9bac" d="M1401.4,1280.8c17,0,30.8-13.8,30.8-30.8s-13.8-30.8-30.8-30.8-30.8,13.8-30.8,30.8,13.8,30.8,30.8,30.8Z"/><path fill="#8c9bac" d="M1477.1,1278.8c15.9,0,28.8-12.9,28.8-28.8s-12.9-28.8-28.8-28.8-28.8,12.9-28.8,28.8,12.9,28.8,28.8,28.8Z"/><circle fill="#8c9bac" r="26.4" cx="1552.8" cy="1250"/><path fill="#8c9bac" d="M1628.4,1274.3c13.4,0,24.3-10.9,24.3-24.3s-10.9-24.3-24.3-24.3-24.3,10.9-24.3,24.3,10.9,24.3,24.3,24.3Z"/><path fill="#8c9bac" d="M1704.1,1272c12.2,0,22-9.9,22-22s-9.9-22-22-22-22,9.9-22,22,9.9,22,22,22Z"/><circle fill="#8c9bac" r="19.9" cx="1779.9" cy="1249.9"/><path fill="#8c9bac" d="M1855.5,1267.6c9.7,0,17.6-7.9,17.6-17.6s-7.9-17.6-17.6-17.6-17.6,7.9-17.6,17.6,7.9,17.6,17.6,17.6Z"/><path fill="#8c9bac" d="M1931.2,1265.3c8.5,0,15.3-6.9,15.3-15.3s-6.9-15.3-15.3-15.3-15.3,6.9-15.3,15.3,6.9,15.3,15.3,15.3Z"/><path fill="#8c9bac" d="M2006.9,1263.2c7.3,0,13.2-5.9,13.2-13.2s-5.9-13.2-13.2-13.2-13.2,5.9-13.2,13.2,5.9,13.2,13.2,13.2Z"/><circle fill="#8c9bac" r="10.9" cx="2082.6" cy="1250"/><path fill="#8c9bac" d="M2158.3,1258.8c4.9,0,8.8-3.9,8.8-8.8s-3.9-8.8-8.8-8.8-8.8,3.9-8.8,8.8,3.9,8.8,8.8,8.8Z"/><path fill="#8c9bac" d="M2233.9,1256.5c3.6,0,6.5-2.9,6.5-6.5s-2.9-6.5-6.5-6.5-6.5,2.9-6.5,6.5,2.9,6.5,6.5,6.5Z"/><path fill="#8c9bac" d="M2309.6,1254.4c2.4,0,4.4-2,4.4-4.4s-2-4.4-4.4-4.4-4.4,2-4.4,4.4,2,4.4,4.4,4.4Z"/><path fill="#8c9bac" d="M2385.3,1252.1c1.2,0,2.1-.9,2.1-2.1s-.9-2.1-2.1-2.1-2.1.9-2.1,2.1.9,2.1,2.1,2.1Z"/><path fill="#8c9bac" d="M2461,1250.2c.1,0,.2,0,.2-.2s0-.2-.2-.2-.2,0-.2.2,0,.2.2.2Z"/><path fill="#8c9bac" d="M39,1325.9c.1,0,.2,0,.2-.2s0-.2-.2-.2-.2,0-.2.2,0,.2.2.2Z"/><path fill="#8c9bac" d="M114.7,1327.6c1,0,1.9-.8,1.9-1.9s-.8-1.9-1.9-1.9-1.9.8-1.9,1.9.8,1.9,1.9,1.9Z"/><circle fill="#8c9bac" r="4" cx="190.4" cy="1325.7"/><path fill="#8c9bac" d="M266,1332c3.5,0,6.3-2.8,6.3-6.3s-2.8-6.3-6.3-6.3-6.3,2.8-6.3,6.3,2.8,6.3,6.3,6.3Z"/><path fill="#8c9bac" d="M341.7,1334.3c4.8,0,8.6-3.8,8.6-8.6s-3.9-8.6-8.6-8.6-8.6,3.8-8.6,8.6,3.9,8.6,8.6,8.6Z"/><path fill="#8c9bac" d="M417.4,1336.4c5.9,0,10.7-4.8,10.7-10.7s-4.8-10.7-10.7-10.7-10.7,4.8-10.7,10.7,4.8,10.7,10.7,10.7Z"/><path fill="#8c9bac" d="M493.1,1338.7c7.2,0,13-5.8,13-13s-5.8-13-13-13-13,5.8-13,13,5.8,13,13,13Z"/><path fill="#8c9bac" d="M568.8,1340.8c8.3,0,15.1-6.8,15.1-15.1s-6.8-15.1-15.1-15.1-15.1,6.8-15.1,15.1,6.8,15.1,15.1,15.1Z"/><path fill="#8c9bac" d="M644.5,1342.9c9.5,0,17.2-7.7,17.2-17.2s-7.7-17.2-17.2-17.2-17.2,7.7-17.2,17.2,7.7,17.2,17.2,17.2Z"/><path fill="#8c9bac" d="M720.2,1345.2c10.8,0,19.5-8.7,19.5-19.5s-8.7-19.5-19.5-19.5-19.5,8.7-19.5,19.5,8.7,19.5,19.5,19.5Z"/><path fill="#8c9bac" d="M795.9,1347.3c11.9,0,21.6-9.7,21.6-21.6s-9.7-21.6-21.6-21.6-21.6,9.7-21.6,21.6,9.7,21.6,21.6,21.6Z"/><circle fill="#8c9bac" r="23.9" cx="871.6" transform="translate(-686.8 1623.6) rotate(-67.5)" cy="1325.7"/><circle fill="#8c9bac" r="26" cx="947.3" cy="1325.7"/><path fill="#8c9bac" d="M1022.9,1353.8c15.5,0,28.1-12.6,28.1-28.1s-12.6-28.1-28.1-28.1-28.1,12.6-28.1,28.1,12.6,28.1,28.1,28.1h0Z"/><path fill="#8c9bac" d="M1098.6,1355.9c16.7,0,30.2-13.5,30.2-30.2s-13.5-30.2-30.2-30.2-30.2,13.5-30.2,30.2,13.5,30.2,30.2,30.2Z"/><path fill="#8c9bac" d="M1174.3,1357.8c17.7,0,32.1-14.4,32.1-32.1s-14.4-32.1-32.1-32.1-32.1,14.4-32.1,32.1,14.4,32.1,32.1,32.1Z"/><circle fill="#8c9bac" r="32.9" cx="1250" cy="1325.7"/><path fill="#8c9bac" d="M1325.7,1357.8c17.7,0,32.1-14.4,32.1-32.1s-14.4-32.1-32.1-32.1-32.1,14.4-32.1,32.1,14.4,32.1,32.1,32.1Z"/><circle fill="#8c9bac" r="30.4" cx="1401.4" cy="1325.7"/><path fill="#8c9bac" d="M1477.1,1354c15.7,0,28.3-12.7,28.3-28.3s-12.7-28.3-28.3-28.3-28.3,12.7-28.3,28.3,12.7,28.3,28.3,28.3Z"/><path fill="#8c9bac" d="M1552.8,1351.9c14.5,0,26.2-11.8,26.2-26.2s-11.8-26.2-26.2-26.2-26.2,11.8-26.2,26.2,11.8,26.2,26.2,26.2Z"/><path fill="#8c9bac" d="M1628.4,1349.8c13.3,0,24.1-10.8,24.1-24.1s-10.8-24.1-24.1-24.1-24.1,10.8-24.1,24.1,10.8,24.1,24.1,24.1Z"/><path fill="#8c9bac" d="M1704.1,1347.5c12.1,0,21.8-9.8,21.8-21.8s-9.8-21.8-21.8-21.8-21.8,9.8-21.8,21.8,9.8,21.8,21.8,21.8Z"/><path fill="#8c9bac" d="M1779.8,1345.4c10.9,0,19.7-8.8,19.7-19.7s-8.8-19.7-19.7-19.7-19.7,8.8-19.7,19.7,8.8,19.7,19.7,19.7Z"/><circle fill="#8c9bac" r="17.4" cx="1855.5" cy="1325.7"/><path fill="#8c9bac" d="M1931.2,1341c8.5,0,15.3-6.9,15.3-15.3s-6.9-15.3-15.3-15.3-15.3,6.9-15.3,15.3,6.9,15.3,15.3,15.3Z"/><path fill="#8c9bac" d="M2006.9,1338.9c7.3,0,13.2-5.9,13.2-13.2s-5.9-13.2-13.2-13.2-13.2,5.9-13.2,13.2,5.9,13.2,13.2,13.2Z"/><circle fill="#8c9bac" r="10.9" cx="2082.6" cy="1325.7"/><path fill="#8c9bac" d="M2158.3,1334.3c4.8,0,8.6-3.8,8.6-8.6s-3.9-8.6-8.6-8.6-8.6,3.8-8.6,8.6,3.9,8.6,8.6,8.6Z"/><path fill="#8c9bac" d="M2233.9,1332.2c3.6,0,6.5-2.9,6.5-6.5s-2.9-6.5-6.5-6.5-6.5,2.9-6.5,6.5,2.9,6.5,6.5,6.5Z"/><path fill="#8c9bac" d="M2309.6,1329.9c2.3,0,4.2-1.9,4.2-4.2s-1.9-4.2-4.2-4.2-4.2,1.9-4.2,4.2,1.9,4.2,4.2,4.2Z"/><path fill="#8c9bac" d="M2385.3,1327.8c1.2,0,2.1-.9,2.1-2.1s-.9-2.1-2.1-2.1-2.1.9-2.1,2.1.9,2.1,2.1,2.1Z"/><path fill="#8c9bac" d="M2461,1325.9c.1,0,.2,0,.2-.2s0-.2-.2-.2-.2,0-.2.2,0,.2.2.2Z"/><path fill="#8c9bac" d="M114.7,1403.1c.9,0,1.7-.8,1.7-1.7s-.8-1.7-1.7-1.7-1.7.8-1.7,1.7.8,1.7,1.7,1.7Z"/><path fill="#8c9bac" d="M190.4,1405.2c2.1,0,3.8-1.7,3.8-3.8s-1.7-3.8-3.8-3.8-3.8,1.7-3.8,3.8,1.7,3.8,3.8,3.8Z"/><path fill="#8c9bac" d="M266,1407.5c3.4,0,6.1-2.7,6.1-6.1s-2.7-6.1-6.1-6.1-6.1,2.7-6.1,6.1,2.7,6.1,6.1,6.1Z"/><path fill="#8c9bac" d="M341.7,1409.6c4.5,0,8.2-3.7,8.2-8.2s-3.7-8.2-8.2-8.2-8.2,3.7-8.2,8.2,3.7,8.2,8.2,8.2Z"/><circle fill="#8c9bac" r="10.5" cx="417.5" cy="1401.4"/><path fill="#8c9bac" d="M493.1,1414c7,0,12.6-5.6,12.6-12.6s-5.6-12.6-12.6-12.6-12.6,5.6-12.6,12.6,5.6,12.6,12.6,12.6Z"/><path fill="#8c9bac" d="M568.8,1416.1c8.1,0,14.7-6.6,14.7-14.7s-6.6-14.7-14.7-14.7-14.7,6.6-14.7,14.7,6.6,14.7,14.7,14.7Z"/><path fill="#8c9bac" d="M644.5,1418.4c9.4,0,17-7.6,17-17s-7.6-17-17-17-17,7.6-17,17,7.6,17,17,17Z"/><path fill="#8c9bac" d="M720.2,1420.5c10.5,0,19.1-8.6,19.1-19.1s-8.5-19.1-19.1-19.1-19.1,8.6-19.1,19.1,8.5,19.1,19.1,19.1Z"/><path fill="#8c9bac" d="M795.9,1422.6c11.7,0,21.2-9.5,21.2-21.2s-9.5-21.2-21.2-21.2-21.2,9.5-21.2,21.2,9.5,21.2,21.2,21.2Z"/><path fill="#8c9bac" d="M871.6,1424.7c12.9,0,23.3-10.4,23.3-23.3s-10.4-23.3-23.3-23.3-23.3,10.4-23.3,23.3,10.4,23.3,23.3,23.3Z"/><circle fill="#8c9bac" r="25.4" cx="947.2" cy="1401.4"/><path fill="#8c9bac" d="M1022.9,1428.7c15.1,0,27.3-12.2,27.3-27.3s-12.2-27.3-27.3-27.3-27.3,12.2-27.3,27.3,12.2,27.3,27.3,27.3h0Z"/><circle fill="#8c9bac" r="29" cx="1098.6" cy="1401.4"/><circle fill="#8c9bac" r="30.4" cx="1174.3" cy="1401.4"/><circle fill="#8c9bac" r="30.8" cx="1250" cy="1401.3"/><circle fill="#8c9bac" r="30.4" cx="1325.7" cy="1401.4"/><path fill="#8c9bac" d="M1401.4,1430.6c16.1,0,29.2-13.1,29.2-29.2s-13.1-29.2-29.2-29.2-29.2,13.1-29.2,29.2,13.1,29.2,29.2,29.2Z"/><path fill="#8c9bac" d="M1477.1,1428.7c15.1,0,27.3-12.2,27.3-27.3s-12.2-27.3-27.3-27.3-27.3,12.2-27.3,27.3,12.2,27.3,27.3,27.3Z"/><circle fill="#8c9bac" r="25.4" cx="1552.8" cy="1401.4"/><circle fill="#8c9bac" r="23.5" cx="1628.4" cy="1401.4"/><circle fill="#8c9bac" r="21.4" cx="1704.2" cy="1401.3"/><path fill="#8c9bac" d="M1779.8,1420.7c10.7,0,19.3-8.6,19.3-19.3s-8.6-19.3-19.3-19.3-19.3,8.6-19.3,19.3,8.6,19.3,19.3,19.3Z"/><circle fill="#8c9bac" r="17" cx="1855.5" cy="1401.4"/><circle fill="#8c9bac" r="14.9" cx="1931.2" cy="1401.4"/><path fill="#8c9bac" d="M2006.9,1414.2c7.1,0,12.8-5.7,12.8-12.8s-5.7-12.8-12.8-12.8-12.8,5.7-12.8,12.8,5.7,12.8,12.8,12.8Z"/><circle fill="#8c9bac" r="10.5" cx="2082.6" cy="1401.4"/><path fill="#8c9bac" d="M2158.3,1409.8c4.6,0,8.4-3.8,8.4-8.4s-3.8-8.4-8.4-8.4-8.4,3.8-8.4,8.4,3.8,8.4,8.4,8.4Z"/><path fill="#8c9bac" d="M2233.9,1407.7c3.5,0,6.3-2.8,6.3-6.3s-2.8-6.3-6.3-6.3-6.3,2.8-6.3,6.3,2.8,6.3,6.3,6.3Z"/><path fill="#8c9bac" d="M2309.6,1405.4c2.2,0,4-1.8,4-4s-1.8-4-4-4-4,1.8-4,4,1.8,4,4,4Z"/><path fill="#8c9bac" d="M2385.3,1403.3c1,0,1.9-.8,1.9-1.9s-.9-1.9-1.9-1.9-1.9.8-1.9,1.9.9,1.9,1.9,1.9Z"/><path fill="#8c9bac" d="M2461,1401.6c.1,0,.2,0,.2-.2s0-.2-.2-.2-.2,0-.2.2,0,.2.2.2Z"/><path fill="#8c9bac" d="M114.7,1478.3c.7,0,1.3-.6,1.3-1.3s-.6-1.3-1.3-1.3-1.3.6-1.3,1.3.6,1.3,1.3,1.3Z"/><path fill="#8c9bac" d="M190.4,1480.6c2,0,3.6-1.6,3.6-3.6s-1.6-3.6-3.6-3.6-3.6,1.6-3.6,3.6,1.6,3.6,3.6,3.6Z"/><path fill="#8c9bac" d="M266,1482.7c3.1,0,5.7-2.5,5.7-5.7s-2.5-5.7-5.7-5.7-5.7,2.5-5.7,5.7,2.5,5.7,5.7,5.7Z"/><path fill="#8c9bac" d="M341.7,1484.8c4.3,0,7.8-3.5,7.8-7.8s-3.5-7.8-7.8-7.8-7.8,3.5-7.8,7.8,3.5,7.8,7.8,7.8Z"/><path fill="#8c9bac" d="M417.4,1486.9c5.5,0,9.9-4.4,9.9-9.9s-4.4-9.9-9.9-9.9-9.9,4.4-9.9,9.9,4.4,9.9,9.9,9.9Z"/><path fill="#8c9bac" d="M493.1,1489.2c6.7,0,12.2-5.4,12.2-12.2s-5.5-12.2-12.2-12.2-12.2,5.4-12.2,12.2,5.5,12.2,12.2,12.2Z"/><path fill="#8c9bac" d="M568.8,1491.3c7.9,0,14.3-6.4,14.3-14.3s-6.4-14.3-14.3-14.3-14.3,6.4-14.3,14.3,6.4,14.3,14.3,14.3Z"/><path fill="#8c9bac" d="M644.5,1493.2c8.9,0,16.2-7.2,16.2-16.2s-7.2-16.2-16.2-16.2-16.2,7.2-16.2,16.2,7.2,16.2,16.2,16.2Z"/><circle fill="#8c9bac" r="18.5" cx="720.2" cy="1477.1"/><path fill="#8c9bac" d="M795.9,1497.4c11.2,0,20.4-9.1,20.4-20.4s-9.1-20.4-20.4-20.4-20.4,9.1-20.4,20.4,9.1,20.4,20.4,20.4Z"/><path fill="#8c9bac" d="M871.6,1499.3c12.3,0,22.2-10,22.2-22.2s-10-22.2-22.2-22.2-22.2,10-22.2,22.2,10,22.2,22.2,22.2Z"/><path fill="#8c9bac" d="M947.2,1501.2c13.3,0,24.1-10.8,24.1-24.1s-10.8-24.1-24.1-24.1-24.1,10.8-24.1,24.1,10.8,24.1,24.1,24.1Z"/><path fill="#8c9bac" d="M1022.9,1502.9c14.3,0,25.8-11.6,25.8-25.8s-11.6-25.8-25.8-25.8-25.8,11.6-25.8,25.8,11.6,25.8,25.8,25.8Z"/><path fill="#8c9bac" d="M1098.6,1504.3c15.1,0,27.3-12.2,27.3-27.3s-12.2-27.3-27.3-27.3-27.3,12.2-27.3,27.3,12.2,27.3,27.3,27.3Z"/><circle fill="#8c9bac" r="28.3" cx="1174.3" cy="1477.1"/><path fill="#8c9bac" d="M1250,1505.8c15.9,0,28.8-12.9,28.8-28.8s-12.9-28.8-28.8-28.8-28.8,12.9-28.8,28.8,12.9,28.8,28.8,28.8Z"/><circle fill="#8c9bac" r="28.3" cx="1325.7" cy="1477.1"/><path fill="#8c9bac" d="M1401.4,1504.3c15.1,0,27.3-12.2,27.3-27.3s-12.2-27.3-27.3-27.3-27.3,12.2-27.3,27.3,12.2,27.3,27.3,27.3Z"/><circle fill="#8c9bac" r="26" cx="1477" cy="1477.1"/><circle fill="#8c9bac" r="24.3" cx="1552.8" cy="1477.1"/><circle fill="#8c9bac" r="22.5" cx="1628.4" cy="1477.1"/><circle fill="#8c9bac" r="20.6" cx="1704.1" cy="1477.1"/><circle fill="#8c9bac" r="18.5" cx="1779.8" cy="1477.1"/><circle fill="#8c9bac" r="16.4" cx="1855.5" cy="1477.1"/><path fill="#8c9bac" d="M1931.2,1491.3c7.9,0,14.3-6.4,14.3-14.3s-6.4-14.3-14.3-14.3-14.3,6.4-14.3,14.3,6.4,14.3,14.3,14.3Z"/><path fill="#8c9bac" d="M2006.9,1489.2c6.7,0,12.2-5.4,12.2-12.2s-5.4-12.2-12.2-12.2-12.2,5.4-12.2,12.2,5.4,12.2,12.2,12.2Z"/><circle fill="#8c9bac" r="10.1" cx="2082.6" cy="1477.1"/><path fill="#8c9bac" d="M2158.3,1485c4.4,0,8-3.6,8-8s-3.6-8-8-8-8,3.6-8,8,3.6,8,8,8Z"/><path fill="#8c9bac" d="M2233.9,1482.9c3.2,0,5.9-2.6,5.9-5.9s-2.6-5.9-5.9-5.9-5.9,2.6-5.9,5.9,2.6,5.9,5.9,5.9Z"/><path fill="#8c9bac" d="M2309.6,1480.6c2,0,3.6-1.6,3.6-3.6s-1.6-3.6-3.6-3.6-3.6,1.6-3.6,3.6,1.6,3.6,3.6,3.6Z"/><path fill="#8c9bac" d="M2385.3,1478.5c.8,0,1.5-.7,1.5-1.5s-.7-1.5-1.5-1.5-1.5.7-1.5,1.5.7,1.5,1.5,1.5Z"/><path fill="#8c9bac" d="M114.7,1553.6c.5,0,.8-.4.8-.8s-.4-.8-.8-.8-.8.4-.8.8.4.8.8.8Z"/><path fill="#8c9bac" d="M190.4,1555.7c1.6,0,2.9-1.3,2.9-2.9s-1.3-2.9-2.9-2.9-2.9,1.3-2.9,2.9,1.3,2.9,2.9,2.9Z"/><circle fill="#8c9bac" r="5" cx="266" cy="1552.8"/><path fill="#8c9bac" d="M341.7,1559.9c3.9,0,7.1-3.2,7.1-7.1s-3.2-7.1-7.1-7.1-7.1,3.2-7.1,7.1,3.2,7.1,7.1,7.1Z"/><path fill="#8c9bac" d="M417.4,1562c5.1,0,9.2-4.1,9.2-9.2s-4.1-9.2-9.2-9.2-9.2,4.1-9.2,9.2,4.1,9.2,9.2,9.2Z"/><path fill="#8c9bac" d="M493.1,1564.1c6.3,0,11.3-5.1,11.3-11.3s-5.1-11.3-11.3-11.3-11.3,5.1-11.3,11.3,5.1,11.3,11.3,11.3Z"/><path fill="#8c9bac" d="M568.8,1566.2c7.4,0,13.4-6,13.4-13.4s-6-13.4-13.4-13.4-13.4,6-13.4,13.4,6,13.4,13.4,13.4Z"/><path fill="#8c9bac" d="M644.5,1568.1c8.5,0,15.3-6.9,15.3-15.3s-6.9-15.3-15.3-15.3-15.3,6.9-15.3,15.3,6.9,15.3,15.3,15.3Z"/><circle fill="#8c9bac" r="17.4" cx="720.2" cy="1552.8"/><path fill="#8c9bac" d="M795.9,1572.1c10.7,0,19.3-8.6,19.3-19.3s-8.6-19.3-19.3-19.3-19.3,8.7-19.3,19.3,8.6,19.3,19.3,19.3Z"/><circle fill="#8c9bac" r="21" cx="871.6" cy="1552.8"/><path fill="#8c9bac" d="M947.2,1575.4c12.5,0,22.7-10.2,22.7-22.7s-10.2-22.7-22.7-22.7-22.7,10.2-22.7,22.7,10.2,22.7,22.7,22.7Z"/><path fill="#8c9bac" d="M1022.9,1576.9c13.3,0,24.1-10.8,24.1-24.1s-10.8-24.1-24.1-24.1-24.1,10.8-24.1,24.1,10.8,24.1,24.1,24.1h0Z"/><circle fill="#8c9bac" r="25.4" cx="1098.6" cy="1552.8"/><path fill="#8c9bac" d="M1174.3,1579c14.5,0,26.2-11.8,26.2-26.2s-11.8-26.2-26.2-26.2-26.2,11.8-26.2,26.2,11.8,26.2,26.2,26.2Z"/><circle fill="#8c9bac" r="26.4" cx="1250" cy="1552.8"/><path fill="#8c9bac" d="M1325.7,1579c14.5,0,26.2-11.8,26.2-26.2s-11.8-26.2-26.2-26.2-26.2,11.8-26.2,26.2,11.8,26.2,26.2,26.2Z"/><circle fill="#8c9bac" r="25.4" cx="1401.4" cy="1552.8"/><circle fill="#8c9bac" r="24.3" cx="1477" cy="1552.8"/><circle fill="#8c9bac" r="22.9" cx="1552.8" cy="1552.8"/><path fill="#8c9bac" d="M1628.4,1573.9c11.7,0,21.2-9.5,21.2-21.2s-9.5-21.2-21.2-21.2-21.2,9.5-21.2,21.2,9.5,21.2,21.2,21.2Z"/><circle fill="#8c9bac" r="19.5" cx="1704.1" cy="1552.7"/><path fill="#8c9bac" d="M1779.8,1570.4c9.7,0,17.6-7.9,17.6-17.6s-7.9-17.6-17.6-17.6-17.6,7.9-17.6,17.6,7.9,17.6,17.6,17.6Z"/><circle fill="#8c9bac" r="15.5" cx="1855.5" cy="1552.8"/><path fill="#8c9bac" d="M1931.2,1566.4c7.5,0,13.6-6.1,13.6-13.6s-6.1-13.6-13.6-13.6-13.6,6.1-13.6,13.6,6.1,13.6,13.6,13.6Z"/><path fill="#8c9bac" d="M2006.9,1564.3c6.4,0,11.5-5.2,11.5-11.5s-5.2-11.5-11.5-11.5-11.5,5.2-11.5,11.5,5.2,11.5,11.5,11.5Z"/><circle fill="#8c9bac" r="9.4" cx="2082.5" cy="1552.9"/><path fill="#8c9bac" d="M2158.3,1560.1c4.1,0,7.4-3.3,7.4-7.3s-3.3-7.3-7.4-7.3-7.4,3.3-7.4,7.3,3.3,7.3,7.4,7.3Z"/><path fill="#8c9bac" d="M2233.9,1558c2.9,0,5.2-2.3,5.2-5.2s-2.4-5.2-5.2-5.2-5.2,2.3-5.2,5.2,2.4,5.2,5.2,5.2Z"/><path fill="#8c9bac" d="M2309.6,1555.9c1.7,0,3.1-1.4,3.1-3.2s-1.4-3.2-3.1-3.2-3.1,1.4-3.1,3.2,1.4,3.2,3.1,3.2Z"/><path fill="#8c9bac" d="M2385.3,1553.8c.6,0,1.1-.5,1.1-1.1s-.5-1.1-1.1-1.1-1.1.5-1.1,1.1.5,1.1,1.1,1.1Z"/><path fill="#8c9bac" d="M114.7,1628.9c.2,0,.4-.2.4-.4s-.2-.4-.4-.4-.4.2-.4.4.2.4.4.4Z"/><path fill="#8c9bac" d="M190.4,1630.8c1.3,0,2.3-1,2.3-2.3s-1-2.3-2.3-2.3-2.3,1-2.3,2.3,1,2.3,2.3,2.3Z"/><path fill="#8c9bac" d="M266,1632.8c2.4,0,4.4-2,4.4-4.4s-2-4.4-4.4-4.4-4.4,2-4.4,4.4,2,4.4,4.4,4.4Z"/><path fill="#8c9bac" d="M341.7,1634.9c3.6,0,6.5-2.9,6.5-6.5s-2.9-6.5-6.5-6.5-6.5,2.9-6.5,6.5,2.9,6.5,6.5,6.5Z"/><path fill="#8c9bac" d="M417.4,1636.8c4.6,0,8.4-3.8,8.4-8.4s-3.8-8.4-8.4-8.4-8.4,3.8-8.4,8.4,3.8,8.4,8.4,8.4Z"/><path fill="#8c9bac" d="M493.1,1638.9c5.8,0,10.5-4.7,10.5-10.5s-4.7-10.5-10.5-10.5-10.5,4.7-10.5,10.5,4.7,10.5,10.5,10.5Z"/><path fill="#8c9bac" d="M568.8,1640.8c6.8,0,12.4-5.5,12.4-12.4s-5.5-12.4-12.4-12.4-12.4,5.5-12.4,12.4,5.5,12.4,12.4,12.4Z"/><path fill="#8c9bac" d="M644.5,1642.7c7.9,0,14.3-6.4,14.3-14.3s-6.4-14.3-14.3-14.3-14.3,6.4-14.3,14.3,6.4,14.3,14.3,14.3Z"/><path fill="#8c9bac" d="M720.2,1644.6c8.9,0,16.2-7.2,16.2-16.2s-7.2-16.2-16.2-16.2-16.2,7.2-16.2,16.2,7.2,16.2,16.2,16.2Z"/><path fill="#8c9bac" d="M795.9,1646.5c10,0,18-8.1,18-18.1s-8.1-18.1-18-18.1-18,8.1-18,18.1,8.1,18.1,18,18.1Z"/><path fill="#8c9bac" d="M871.6,1648.2c10.9,0,19.7-8.8,19.7-19.7s-8.8-19.7-19.7-19.7-19.7,8.8-19.7,19.7,8.8,19.7,19.7,19.7Z"/><path fill="#8c9bac" d="M947.2,1649.6c11.7,0,21.2-9.5,21.2-21.2s-9.5-21.2-21.2-21.2-21.2,9.5-21.2,21.2,9.5,21.2,21.2,21.2Z"/><path fill="#8c9bac" d="M1022.9,1650.7c12.3,0,22.2-10,22.2-22.2s-10-22.2-22.2-22.2-22.2,10-22.2,22.2,10,22.2,22.2,22.2h0Z"/><path fill="#8c9bac" d="M1098.6,1651.7c12.9,0,23.3-10.4,23.3-23.3s-10.4-23.3-23.3-23.3-23.3,10.4-23.3,23.3,10.4,23.3,23.3,23.3Z"/><path fill="#8c9bac" d="M1174.3,1652.6c13.3,0,24.1-10.8,24.1-24.1s-10.8-24.1-24.1-24.1-24.1,10.8-24.1,24.1,10.8,24.1,24.1,24.1Z"/><circle fill="#8c9bac" r="24.3" cx="1249.9" cy="1628.5"/><path fill="#8c9bac" d="M1325.7,1652.6c13.3,0,24.1-10.8,24.1-24.1s-10.8-24.1-24.1-24.1-24.1,10.8-24.1,24.1,10.8,24.1,24.1,24.1Z"/><circle fill="#8c9bac" r="23.5" cx="1401.4" cy="1628.4"/><circle fill="#8c9bac" r="22.5" cx="1477.1" cy="1628.4"/><path fill="#8c9bac" d="M1552.8,1649.6c11.7,0,21.2-9.5,21.2-21.2s-9.5-21.2-21.2-21.2-21.2,9.5-21.2,21.2,9.5,21.2,21.2,21.2Z"/><path fill="#8c9bac" d="M1628.4,1648.2c10.9,0,19.7-8.8,19.7-19.7s-8.8-19.7-19.7-19.7-19.7,8.8-19.7,19.7,8.8,19.7,19.7,19.7Z"/><circle fill="#8c9bac" r="18.1" cx="1704.2" cy="1628.4"/><circle fill="#8c9bac" r="16.4" cx="1779.7" cy="1628.6"/><circle fill="#8c9bac" r="14.5" cx="1855.5" cy="1628.5"/><circle fill="#8c9bac" r="12.6" cx="1931.2" cy="1628.4"/><path fill="#8c9bac" d="M2006.9,1639.1c5.9,0,10.7-4.8,10.7-10.7s-4.8-10.7-10.7-10.7-10.7,4.8-10.7,10.7,4.8,10.7,10.7,10.7Z"/><path fill="#8c9bac" d="M2082.6,1637.1c4.8,0,8.6-3.8,8.6-8.6s-3.9-8.6-8.6-8.6-8.6,3.8-8.6,8.6,3.9,8.6,8.6,8.6Z"/><path fill="#8c9bac" d="M2158.3,1635.2c3.7,0,6.7-3,6.7-6.7s-3-6.7-6.7-6.7-6.7,3-6.7,6.7,3,6.7,6.7,6.7Z"/><path fill="#8c9bac" d="M2233.9,1633.1c2.6,0,4.6-2.1,4.6-4.6s-2.1-4.6-4.6-4.6-4.6,2.1-4.6,4.6,2.1,4.6,4.6,4.6Z"/><path fill="#8c9bac" d="M2309.6,1631c1.4,0,2.5-1.1,2.5-2.5s-1.1-2.5-2.5-2.5-2.5,1.1-2.5,2.5,1.1,2.5,2.5,2.5Z"/><path fill="#8c9bac" d="M2385.3,1628.9c.2,0,.4-.2.4-.4s-.2-.4-.4-.4-.4.2-.4.4.2.4.4.4Z"/><path fill="#8c9bac" d="M190.4,1705.6c.8,0,1.5-.7,1.5-1.5s-.7-1.5-1.5-1.5-1.5.7-1.5,1.5.7,1.5,1.5,1.5Z"/><path fill="#8c9bac" d="M266,1707.7c2,0,3.6-1.6,3.6-3.6s-1.6-3.6-3.6-3.6-3.6,1.6-3.6,3.6,1.6,3.6,3.6,3.6Z"/><path fill="#8c9bac" d="M341.7,1709.6c3,0,5.5-2.4,5.5-5.5s-2.4-5.5-5.5-5.5-5.5,2.4-5.5,5.5,2.4,5.5,5.5,5.5Z"/><path fill="#8c9bac" d="M417.4,1711.7c4.2,0,7.6-3.4,7.6-7.6s-3.4-7.6-7.6-7.6-7.5,3.4-7.5,7.6,3.4,7.6,7.5,7.6Z"/><path fill="#8c9bac" d="M493.1,1713.6c5.2,0,9.5-4.2,9.5-9.4s-4.2-9.4-9.5-9.4-9.4,4.2-9.4,9.4,4.2,9.4,9.4,9.4Z"/><path fill="#8c9bac" d="M568.8,1715.5c6.3,0,11.3-5.1,11.3-11.3s-5.1-11.3-11.3-11.3-11.3,5.1-11.3,11.3,5.1,11.3,11.3,11.3Z"/><path fill="#8c9bac" d="M644.5,1717.1c7.2,0,13-5.8,13-13s-5.8-13-13-13-13,5.8-13,13,5.8,13,13,13Z"/><path fill="#8c9bac" d="M720.2,1719c8.2,0,14.9-6.7,14.9-14.9s-6.7-14.9-14.9-14.9-14.9,6.7-14.9,14.9,6.7,14.9,14.9,14.9Z"/><path fill="#8c9bac" d="M795.9,1720.5c9,0,16.4-7.3,16.4-16.4s-7.3-16.4-16.4-16.4-16.4,7.3-16.4,16.4,7.3,16.4,16.4,16.4Z"/><circle fill="#8c9bac" r="18.1" cx="871.6" cy="1704.1"/><path fill="#8c9bac" d="M947.2,1723.4c10.7,0,19.3-8.6,19.3-19.3s-8.6-19.3-19.3-19.3-19.3,8.6-19.3,19.3,8.6,19.3,19.3,19.3Z"/><circle fill="#8c9bac" r="20.4" cx="1022.9" transform="translate(-964.5 1678.4) rotate(-58.3)" cy="1704.1"/><path fill="#8c9bac" d="M1098.6,1725.3c11.7,0,21.2-9.5,21.2-21.2s-9.5-21.2-21.2-21.2-21.2,9.5-21.2,21.2,9.5,21.2,21.2,21.2Z"/><circle fill="#8c9bac" r="21.8" cx="1174.3" cy="1704.1"/><circle fill="#8c9bac" r="22" cx="1250.1" cy="1704.1"/><circle fill="#8c9bac" r="21.8" cx="1325.7" cy="1704.1"/><circle fill="#8c9bac" r="21.4" cx="1401.4" cy="1704.1"/><circle fill="#8c9bac" r="20.6" cx="1477.1" cy="1704"/><circle fill="#8c9bac" r="19.5" cx="1552.8" cy="1704.1"/><circle fill="#8c9bac" r="18.1" cx="1628.4" cy="1704.1"/><circle fill="#8c9bac" r="16.6" cx="1704.1" cy="1704.1"/><circle fill="#8c9bac" r="14.9" cx="1779.9" cy="1704.1"/><path fill="#8c9bac" d="M1855.5,1717.3c7.3,0,13.2-5.9,13.2-13.2s-5.9-13.2-13.2-13.2-13.2,5.9-13.2,13.2,5.9,13.2,13.2,13.2Z"/><path fill="#8c9bac" d="M1931.2,1715.5c6.3,0,11.3-5.1,11.3-11.3s-5.1-11.3-11.3-11.3-11.3,5.1-11.3,11.3,5.1,11.3,11.3,11.3Z"/><path fill="#8c9bac" d="M2006.9,1713.8c5.3,0,9.7-4.3,9.7-9.7s-4.3-9.7-9.7-9.7-9.7,4.3-9.7,9.7,4.3,9.7,9.7,9.7Z"/><path fill="#8c9bac" d="M2082.6,1711.9c4.3,0,7.8-3.5,7.8-7.8s-3.5-7.8-7.8-7.8-7.8,3.5-7.8,7.8,3.5,7.8,7.8,7.8Z"/><path fill="#8c9bac" d="M2158.3,1709.8c3.1,0,5.7-2.5,5.7-5.7s-2.5-5.7-5.7-5.7-5.7,2.5-5.7,5.7,2.5,5.7,5.7,5.7Z"/><path fill="#8c9bac" d="M2233.9,1707.7c2,0,3.6-1.6,3.6-3.6s-1.6-3.6-3.6-3.6-3.6,1.6-3.6,3.6,1.6,3.6,3.6,3.6Z"/><path fill="#8c9bac" d="M2309.6,1705.8c.9,0,1.7-.8,1.7-1.7s-.8-1.7-1.7-1.7-1.7.8-1.7,1.7.8,1.7,1.7,1.7Z"/><path fill="#8c9bac" d="M2385.3,1704.3c.1,0,.2,0,.2-.2s0-.2-.2-.2-.2,0-.2.2,0,.2.2.2Z"/><path fill="#8c9bac" d="M190.4,1780.4c.4,0,.6-.3.6-.6s-.3-.6-.6-.6-.6.3-.6.6.3.6.6.6Z"/><path fill="#8c9bac" d="M266,1782.3c1.4,0,2.5-1.1,2.5-2.5s-1.1-2.5-2.5-2.5-2.5,1.1-2.5,2.5,1.1,2.5,2.5,2.5Z"/><path fill="#8c9bac" d="M341.7,1784.2c2.4,0,4.4-2,4.4-4.4s-2-4.4-4.4-4.4-4.4,2-4.4,4.4,2,4.4,4.4,4.4Z"/><path fill="#8c9bac" d="M417.4,1786.1c3.5,0,6.3-2.8,6.3-6.3s-2.8-6.3-6.3-6.3-6.3,2.8-6.3,6.3,2.8,6.3,6.3,6.3Z"/><path fill="#8c9bac" d="M493.1,1788c4.5,0,8.2-3.7,8.2-8.2s-3.7-8.2-8.2-8.2-8.2,3.7-8.2,8.2,3.7,8.2,8.2,8.2Z"/><path fill="#8c9bac" d="M568.8,1789.7c5.5,0,9.9-4.4,9.9-9.9s-4.4-9.9-9.9-9.9-9.9,4.4-9.9,9.9,4.4,9.9,9.9,9.9Z"/><path fill="#8c9bac" d="M644.5,1791.6c6.5,0,11.8-5.3,11.8-11.8s-5.3-11.8-11.8-11.8-11.8,5.3-11.8,11.8,5.3,11.8,11.8,11.8Z"/><path fill="#8c9bac" d="M720.2,1793c7.3,0,13.2-5.9,13.2-13.2s-5.9-13.2-13.2-13.2-13.2,5.9-13.2,13.2,5.9,13.2,13.2,13.2Z"/><path fill="#8c9bac" d="M795.9,1794.7c8.2,0,14.9-6.7,14.9-14.9s-6.7-14.9-14.9-14.9-14.9,6.7-14.9,14.9,6.7,14.9,14.9,14.9Z"/><path fill="#8c9bac" d="M871.6,1796c8.9,0,16.2-7.2,16.2-16.2s-7.2-16.2-16.2-16.2-16.2,7.2-16.2,16.2,7.2,16.2,16.2,16.2Z"/><circle fill="#8c9bac" r="17.4" cx="947.2" cy="1779.8"/><circle fill="#8c9bac" r="18.5" cx="1022.9" transform="translate(-123.5 76.9) rotate(-4.1)" cy="1779.9"/><path fill="#8c9bac" d="M1098.6,1799.1c10.7,0,19.3-8.6,19.3-19.3s-8.6-19.3-19.3-19.3-19.3,8.6-19.3,19.3,8.7,19.3,19.3,19.3Z"/><path fill="#8c9bac" d="M1174.3,1799.6c10.9,0,19.7-8.8,19.7-19.7s-8.8-19.7-19.7-19.7-19.7,8.8-19.7,19.7,8.8,19.7,19.7,19.7Z"/><circle fill="#8c9bac" r="19.9" cx="1250" cy="1779.8"/><path fill="#8c9bac" d="M1325.7,1799.6c10.9,0,19.7-8.8,19.7-19.7s-8.8-19.7-19.7-19.7-19.7,8.8-19.7,19.7,8.8,19.7,19.7,19.7Z"/><circle fill="#8c9bac" r="19.3" cx="1401.4" cy="1779.8"/><circle fill="#8c9bac" r="18.5" cx="1477.2" cy="1779.7"/><circle fill="#8c9bac" r="17.6" cx="1552.7" cy="1779.9"/><circle fill="#8c9bac" r="16.4" cx="1628.4" cy="1779.9"/><circle fill="#8c9bac" r="14.9" cx="1704.1" cy="1779.8"/><circle fill="#8c9bac" r="13.4" cx="1779.8" cy="1779.9"/><path fill="#8c9bac" d="M1855.5,1791.6c6.5,0,11.8-5.3,11.8-11.8s-5.3-11.8-11.8-11.8-11.8,5.3-11.8,11.8,5.3,11.8,11.8,11.8Z"/><circle fill="#8c9bac" r="10.1" cx="1931.2" cy="1779.8"/><circle fill="#8c9bac" r="8.4" cx="2006.9" cy="1779.8"/><path fill="#8c9bac" d="M2082.6,1786.3c3.6,0,6.5-2.9,6.5-6.5s-2.9-6.5-6.5-6.5-6.5,2.9-6.5,6.5,2.9,6.5,6.5,6.5Z"/><path fill="#8c9bac" d="M2158.3,1784.4c2.6,0,4.6-2.1,4.6-4.6s-2.1-4.6-4.6-4.6-4.6,2.1-4.6,4.6,2.1,4.6,4.6,4.6Z"/><path fill="#8c9bac" d="M2233.9,1782.6c1.5,0,2.7-1.2,2.7-2.7s-1.2-2.7-2.7-2.7-2.7,1.2-2.7,2.7,1.2,2.7,2.7,2.7Z"/><path fill="#8c9bac" d="M2309.6,1780.7c.5,0,.8-.4.8-.8s-.4-.8-.8-.8-.8.4-.8.8.4.8.8.8Z"/><circle fill="#8c9bac" r="1.5" cx="266" cy="1855.5"/><path fill="#8c9bac" d="M341.7,1858.9c1.9,0,3.4-1.5,3.4-3.4s-1.5-3.4-3.4-3.4-3.4,1.5-3.4,3.4,1.5,3.4,3.4,3.4Z"/><path fill="#8c9bac" d="M417.4,1860.5c2.8,0,5-2.3,5-5s-2.2-5-5-5-5,2.2-5,5,2.2,5,5,5Z"/><path fill="#8c9bac" d="M493.1,1862.4c3.8,0,6.9-3.1,6.9-6.9s-3.1-6.9-6.9-6.9-6.9,3.1-6.9,6.9,3.1,6.9,6.9,6.9Z"/><path fill="#8c9bac" d="M568.8,1864.1c4.8,0,8.6-3.8,8.6-8.6s-3.8-8.6-8.6-8.6-8.6,3.8-8.6,8.6,3.8,8.6,8.6,8.6Z"/><path fill="#8c9bac" d="M644.5,1865.8c5.7,0,10.3-4.6,10.3-10.3s-4.6-10.3-10.3-10.3-10.3,4.6-10.3,10.3,4.6,10.3,10.3,10.3Z"/><path fill="#8c9bac" d="M720.2,1867.3c6.5,0,11.8-5.3,11.8-11.8s-5.3-11.8-11.8-11.8-11.8,5.3-11.8,11.8,5.3,11.8,11.8,11.8Z"/><path fill="#8c9bac" d="M795.9,1868.7c7.3,0,13.2-5.9,13.2-13.2s-5.9-13.2-13.2-13.2-13.2,5.9-13.2,13.2,5.9,13.2,13.2,13.2Z"/><path fill="#8c9bac" d="M871.6,1869.8c7.9,0,14.3-6.4,14.3-14.3s-6.4-14.3-14.3-14.3-14.3,6.4-14.3,14.3,6.4,14.3,14.3,14.3Z"/><circle fill="#8c9bac" r="15.5" cx="947.3" cy="1855.5"/><circle fill="#8c9bac" r="16.4" cx="1022.9" transform="translate(-891.8 948.4) rotate(-35.8)" cy="1855.5"/><circle fill="#8c9bac" r="17" cx="1098.7" cy="1855.5"/><circle fill="#8c9bac" r="17.4" cx="1174.3" cy="1855.5"/><circle fill="#8c9bac" r="17.6" cx="1249.9" cy="1855.6"/><circle fill="#8c9bac" r="17.4" cx="1325.7" cy="1855.5"/><circle fill="#8c9bac" r="17" cx="1401.4" cy="1855.5"/><circle fill="#8c9bac" r="16.4" cx="1477.1" cy="1855.4"/><circle fill="#8c9bac" r="15.5" cx="1552.8" cy="1855.5"/><circle fill="#8c9bac" r="14.5" cx="1628.4" cy="1855.6"/><path fill="#8c9bac" d="M1704.1,1868.7c7.3,0,13.2-5.9,13.2-13.2s-5.9-13.2-13.2-13.2-13.2,5.9-13.2,13.2,5.9,13.2,13.2,13.2Z"/><path fill="#8c9bac" d="M1779.8,1867.3c6.5,0,11.8-5.3,11.8-11.8s-5.3-11.8-11.8-11.8-11.8,5.3-11.8,11.8,5.3,11.8,11.8,11.8Z"/><path fill="#8c9bac" d="M1855.5,1865.8c5.7,0,10.3-4.6,10.3-10.3s-4.6-10.3-10.3-10.3-10.3,4.6-10.3,10.3,4.6,10.3,10.3,10.3Z"/><path fill="#8c9bac" d="M1931.2,1864.3c4.9,0,8.8-3.9,8.8-8.8s-3.9-8.8-8.8-8.8-8.8,3.9-8.8,8.8,3.9,8.8,8.8,8.8Z"/><path fill="#8c9bac" d="M2006.9,1862.6c3.9,0,7.1-3.2,7.1-7.1s-3.2-7.1-7.1-7.1-7.1,3.2-7.1,7.1,3.2,7.1,7.1,7.1Z"/><path fill="#8c9bac" d="M2082.6,1860.8c2.9,0,5.2-2.3,5.2-5.2s-2.4-5.2-5.2-5.2-5.2,2.3-5.2,5.2,2.4,5.2,5.2,5.2Z"/><path fill="#8c9bac" d="M2158.3,1858.9c1.9,0,3.4-1.5,3.4-3.4s-1.5-3.4-3.4-3.4-3.4,1.5-3.4,3.4,1.5,3.4,3.4,3.4Z"/><path fill="#8c9bac" d="M2233.9,1857.2c.9,0,1.7-.8,1.7-1.7s-.8-1.7-1.7-1.7-1.7.8-1.7,1.7.8,1.7,1.7,1.7Z"/><path fill="#8c9bac" d="M2309.6,1855.7c.1,0,.2,0,.2-.2s0-.2-.2-.2-.2,0-.2.2,0,.2.2.2Z"/><path fill="#8c9bac" d="M266,1931.6c.2,0,.4-.2.4-.4s-.2-.4-.4-.4-.4.2-.4.4.2.4.4.4Z"/><path fill="#8c9bac" d="M341.7,1933.3c1.2,0,2.1-.9,2.1-2.1s-.9-2.1-2.1-2.1-2.1.9-2.1,2.1.9,2.1,2.1,2.1Z"/><path fill="#8c9bac" d="M417.4,1935c2.1,0,3.8-1.7,3.8-3.8s-1.7-3.8-3.8-3.8-3.8,1.7-3.8,3.8,1.7,3.8,3.8,3.8Z"/><path fill="#8c9bac" d="M493.1,1936.7c3,0,5.5-2.4,5.5-5.5s-2.4-5.5-5.5-5.5-5.5,2.4-5.5,5.5,2.4,5.5,5.5,5.5Z"/><path fill="#8c9bac" d="M568.8,1938.3c3.9,0,7.1-3.2,7.1-7.1s-3.2-7.1-7.1-7.1-7.1,3.2-7.1,7.1,3.2,7.1,7.1,7.1Z"/><path fill="#8c9bac" d="M644.5,1939.8c4.8,0,8.6-3.8,8.6-8.6s-3.8-8.6-8.6-8.6-8.6,3.8-8.6,8.6,3.8,8.6,8.6,8.6Z"/><path fill="#8c9bac" d="M720.2,1941.3c5.6,0,10.1-4.5,10.1-10.1s-4.5-10.1-10.1-10.1-10.1,4.5-10.1,10.1,4.5,10.1,10.1,10.1Z"/><path fill="#8c9bac" d="M795.9,1942.5c6.3,0,11.3-5.1,11.3-11.3s-5.1-11.3-11.3-11.3-11.3,5.1-11.3,11.3,5.1,11.3,11.3,11.3Z"/><path fill="#8c9bac" d="M871.6,1943.8c7,0,12.6-5.6,12.6-12.6s-5.6-12.6-12.6-12.6-12.6,5.6-12.6,12.6,5.6,12.6,12.6,12.6Z"/><circle fill="#8c9bac" r="13.4" cx="947.2" transform="translate(-1088.1 1235.4) rotate(-45)" cy="1931.2"/><path fill="#8c9bac" d="M1022.9,1945.5c7.9,0,14.3-6.4,14.3-14.3s-6.4-14.3-14.3-14.3-14.3,6.4-14.3,14.3,6.4,14.3,14.3,14.3h0Z"/><circle fill="#8c9bac" r="14.9" cx="1098.6" cy="1931.2"/><circle fill="#8c9bac" r="15.3" cx="1174.3" cy="1931.2"/><circle fill="#8c9bac" r="15.3" cx="1250" cy="1931.2"/><circle fill="#8c9bac" r="15.3" cx="1325.7" cy="1931.2"/><circle fill="#8c9bac" r="14.9" cx="1401.4" cy="1931.2"/><path fill="#8c9bac" d="M1477.1,1945.5c7.9,0,14.3-6.4,14.3-14.3s-6.4-14.3-14.3-14.3-14.3,6.4-14.3,14.3,6.4,14.3,14.3,14.3Z"/><circle fill="#8c9bac" r="13.6" cx="1552.7" cy="1931.3"/><circle fill="#8c9bac" r="12.6" cx="1628.4" cy="1931.2"/><path fill="#8c9bac" d="M1704.1,1942.5c6.3,0,11.3-5.1,11.3-11.3s-5.1-11.3-11.3-11.3-11.3,5.1-11.3,11.3,5.1,11.3,11.3,11.3Z"/><circle fill="#8c9bac" r="10.1" cx="1779.8" cy="1931.2"/><path fill="#8c9bac" d="M1855.5,1940c4.9,0,8.8-3.9,8.8-8.8s-3.9-8.8-8.8-8.8-8.8,3.9-8.8,8.8,3.9,8.8,8.8,8.8Z"/><path fill="#8c9bac" d="M1931.2,1938.3c3.9,0,7.1-3.2,7.1-7.1s-3.2-7.1-7.1-7.1-7.1,3.2-7.1,7.1,3.2,7.1,7.1,7.1Z"/><path fill="#8c9bac" d="M2006.9,1936.9c3.1,0,5.7-2.5,5.7-5.7s-2.5-5.7-5.7-5.7-5.7,2.5-5.7,5.7,2.5,5.7,5.7,5.7Z"/><circle fill="#8c9bac" r="4" cx="2082.6" cy="1931.2"/><path fill="#8c9bac" d="M2158.3,1933.3c1.2,0,2.1-.9,2.1-2.1s-.9-2.1-2.1-2.1-2.1.9-2.1,2.1.9,2.1,2.1,2.1Z"/><path fill="#8c9bac" d="M2233.9,1931.6c.2,0,.4-.2.4-.4s-.2-.4-.4-.4-.4.2-.4.4.2.4.4.4Z"/><path fill="#8c9bac" d="M341.7,2007.5c.4,0,.6-.3.6-.6s-.3-.6-.6-.6-.6.3-.6.6.3.6.6.6Z"/><path fill="#8c9bac" d="M417.4,2009.2c1.3,0,2.3-1,2.3-2.3s-1-2.3-2.3-2.3-2.3,1-2.3,2.3,1,2.3,2.3,2.3Z"/><circle fill="#8c9bac" r="4" cx="493.1" cy="2006.9"/><path fill="#8c9bac" d="M568.8,2012.3c3,0,5.5-2.4,5.5-5.5s-2.4-5.5-5.5-5.5-5.5,2.4-5.5,5.5,2.4,5.5,5.5,5.5Z"/><path fill="#8c9bac" d="M644.5,2013.8c3.8,0,6.9-3.1,6.9-6.9s-3.1-6.9-6.9-6.9-6.9,3.1-6.9,6.9,3.1,6.9,6.9,6.9Z"/><path fill="#8c9bac" d="M720.2,2015.1c4.5,0,8.2-3.7,8.2-8.2s-3.7-8.2-8.2-8.2-8.2,3.7-8.2,8.2,3.7,8.2,8.2,8.2Z"/><circle fill="#8c9bac" r="9.4" cx="796" transform="translate(-311.3 153.5) rotate(-9.2)" cy="2006.8"/><circle fill="#8c9bac" r="10.5" cx="871.6" cy="2006.9"/><path fill="#8c9bac" d="M947.2,2018.2c6.3,0,11.3-5.1,11.3-11.3s-5.1-11.3-11.3-11.3-11.3,5.1-11.3,11.3,5.1,11.3,11.3,11.3Z"/><path fill="#8c9bac" d="M1022.9,2019.1c6.7,0,12.2-5.4,12.2-12.2s-5.4-12.2-12.2-12.2-12.2,5.4-12.2,12.2,5.5,12.2,12.2,12.2Z"/><path fill="#8c9bac" d="M1098.6,2019.7c7.1,0,12.8-5.7,12.8-12.8s-5.7-12.8-12.8-12.8-12.8,5.7-12.8,12.8,5.7,12.8,12.8,12.8Z"/><circle fill="#8c9bac" r="13" cx="1174.3" cy="2006.9"/><path fill="#8c9bac" d="M1250,2020.1c7.3,0,13.2-5.9,13.2-13.2s-5.9-13.2-13.2-13.2-13.2,5.9-13.2,13.2,5.9,13.2,13.2,13.2Z"/><path fill="#8c9bac" d="M1325.7,2020.1c7.3,0,13.2-5.9,13.2-13.2s-5.9-13.2-13.2-13.2-13.2,5.9-13.2,13.2,5.9,13.2,13.2,13.2Z"/><circle fill="#8c9bac" r="12.8" cx="1401.4" cy="2006.9"/><path fill="#8c9bac" d="M1477.1,2019.1c6.7,0,12.2-5.4,12.2-12.2s-5.4-12.2-12.2-12.2-12.2,5.4-12.2,12.2,5.4,12.2,12.2,12.2Z"/><circle fill="#8c9bac" r="11.5" cx="1552.7" cy="2006.9"/><path fill="#8c9bac" d="M1628.4,2017.6c5.9,0,10.7-4.8,10.7-10.7s-4.8-10.7-10.7-10.7-10.7,4.8-10.7,10.7,4.8,10.7,10.7,10.7Z"/><path fill="#8c9bac" d="M1704.1,2016.5c5.3,0,9.7-4.3,9.7-9.7s-4.3-9.7-9.7-9.7-9.7,4.3-9.7,9.7,4.3,9.7,9.7,9.7Z"/><circle fill="#8c9bac" r="8.4" cx="1779.9" cy="2006.8"/><path fill="#8c9bac" d="M1855.5,2014c3.9,0,7.1-3.2,7.1-7.1s-3.2-7.1-7.1-7.1-7.1,3.2-7.1,7.1,3.2,7.1,7.1,7.1Z"/><path fill="#8c9bac" d="M1931.2,2012.6c3.1,0,5.7-2.5,5.7-5.7s-2.5-5.7-5.7-5.7-5.7,2.5-5.7,5.7,2.5,5.7,5.7,5.7Z"/><circle fill="#8c9bac" r="4" cx="2006.9" cy="2006.9"/><circle fill="#8c9bac" r="2.5" cx="2082.6" cy="2006.9"/><path fill="#8c9bac" d="M2158.3,2007.7c.5,0,.8-.4.8-.8s-.4-.8-.8-.8-.8.4-.8.8.4.8.8.8Z"/><path fill="#8c9bac" d="M417.4,2083.4c.5,0,.8-.4.8-.8s-.4-.8-.8-.8-.8.4-.8.8.4.8.8.8Z"/><path fill="#8c9bac" d="M493.1,2084.9c1.3,0,2.3-1,2.3-2.3s-1-2.3-2.3-2.3-2.3,1-2.3,2.3,1,2.3,2.3,2.3Z"/><path fill="#8c9bac" d="M568.8,2086.4c2.1,0,3.8-1.7,3.8-3.8s-1.7-3.8-3.8-3.8-3.8,1.7-3.8,3.8,1.7,3.8,3.8,3.8Z"/><path fill="#8c9bac" d="M644.5,2087.6c2.8,0,5-2.2,5-5s-2.2-5-5-5-5,2.3-5,5,2.2,5,5,5Z"/><path fill="#8c9bac" d="M720.2,2089.1c3.6,0,6.5-2.9,6.5-6.5s-2.9-6.5-6.5-6.5-6.5,2.9-6.5,6.5,2.9,6.5,6.5,6.5Z"/><path fill="#8c9bac" d="M795.9,2090.1c4.2,0,7.5-3.4,7.5-7.6s-3.4-7.6-7.5-7.6-7.6,3.4-7.6,7.6,3.4,7.6,7.6,7.6Z"/><path fill="#8c9bac" d="M871.6,2091.2c4.8,0,8.6-3.9,8.6-8.6s-3.8-8.6-8.6-8.6-8.6,3.9-8.6,8.6,3.8,8.6,8.6,8.6Z"/><circle fill="#8c9bac" r="9.4" cx="947.3" transform="translate(-321.4 178.7) rotate(-9.2)" cy="2082.5"/><path fill="#8c9bac" d="M1022.9,2092.6c5.6,0,10.1-4.5,10.1-10.1s-4.5-10.1-10.1-10.1-10.1,4.5-10.1,10.1,4.5,10.1,10.1,10.1Z"/><circle fill="#8c9bac" r="10.5" cx="1098.6" cy="2082.6"/><circle fill="#8c9bac" r="10.9" cx="1174.3" cy="2082.6"/><circle fill="#8c9bac" r="10.9" cx="1250" cy="2082.6"/><circle fill="#8c9bac" r="10.9" cx="1325.7" cy="2082.6"/><circle fill="#8c9bac" r="10.5" cx="1401.4" cy="2082.6"/><path fill="#8c9bac" d="M1477.1,2092.6c5.6,0,10.1-4.5,10.1-10.1s-4.5-10.1-10.1-10.1-10.1,4.5-10.1,10.1,4.5,10.1,10.1,10.1Z"/><circle fill="#8c9bac" r="9.4" cx="1552.8" cy="2082.5"/><circle fill="#8c9bac" r="8.6" cx="1628.5" transform="translate(-312.6 287.8) rotate(-9.2)" cy="2082.5"/><path fill="#8c9bac" d="M1704.1,2090.3c4.3,0,7.8-3.5,7.8-7.8s-3.5-7.8-7.8-7.8-7.8,3.5-7.8,7.8,3.5,7.8,7.8,7.8Z"/><path fill="#8c9bac" d="M1779.8,2089.1c3.6,0,6.5-2.9,6.5-6.5s-2.9-6.5-6.5-6.5-6.5,2.9-6.5,6.5,2.9,6.5,6.5,6.5Z"/><path fill="#8c9bac" d="M1855.5,2087.8c2.9,0,5.2-2.4,5.2-5.2s-2.3-5.2-5.2-5.2-5.2,2.4-5.2,5.2,2.3,5.2,5.2,5.2Z"/><circle fill="#8c9bac" r="4" cx="1931.2" cy="2082.6"/><circle fill="#8c9bac" r="2.5" cx="2006.9" cy="2082.6"/><path fill="#8c9bac" d="M2082.6,2083.4c.5,0,.8-.4.8-.8s-.4-.8-.8-.8-.8.4-.8.8.4.8.8.8Z"/><path fill="#8c9bac" d="M493.1,2159.1c.5,0,.8-.4.8-.8s-.4-.8-.8-.8-.8.4-.8.8.4.8.8.8Z"/><path fill="#8c9bac" d="M568.8,2160.4c1.2,0,2.1-.9,2.1-2.1s-.9-2.1-2.1-2.1-2.1.9-2.1,2.1.9,2.1,2.1,2.1Z"/><path fill="#8c9bac" d="M644.5,2161.6c1.8,0,3.4-1.5,3.4-3.4s-1.5-3.4-3.4-3.4-3.4,1.5-3.4,3.4,1.5,3.4,3.4,3.4Z"/><path fill="#8c9bac" d="M720.2,2162.7c2.4,0,4.4-2,4.4-4.4s-2-4.4-4.4-4.4-4.4,2-4.4,4.4,2,4.4,4.4,4.4Z"/><path fill="#8c9bac" d="M795.9,2163.9c3.1,0,5.7-2.5,5.7-5.7s-2.5-5.7-5.7-5.7-5.7,2.5-5.7,5.7,2.5,5.7,5.7,5.7Z"/><path fill="#8c9bac" d="M871.6,2164.8c3.6,0,6.5-2.9,6.5-6.5s-2.9-6.5-6.5-6.5-6.5,2.9-6.5,6.5,2.9,6.5,6.5,6.5Z"/><path fill="#8c9bac" d="M947.2,2165.6c4.1,0,7.3-3.3,7.3-7.4s-3.3-7.4-7.3-7.4-7.3,3.3-7.3,7.4,3.3,7.4,7.3,7.4Z"/><path fill="#8c9bac" d="M1022.9,2166.2c4.4,0,8-3.6,8-8s-3.6-8-8-8-8,3.6-8,8,3.6,8,8,8h0Z"/><circle fill="#8c9bac" r="8.4" cx="1098.6" transform="translate(-1204.3 1409) rotate(-45)" cy="2158.3"/><circle fill="#8c9bac" r="8.6" cx="1174.3" cy="2158.3"/><circle fill="#8c9bac" r="8.8" cx="1250.1" cy="2158.2"/><circle fill="#8c9bac" r="8.6" cx="1325.7" cy="2158.3"/><circle fill="#8c9bac" r="8.4" cx="1401.4" cy="2158.3"/><path fill="#8c9bac" d="M1477.1,2166.2c4.4,0,8-3.6,8-8s-3.6-8-8-8-8,3.6-8,8,3.6,8,8,8Z"/><path fill="#8c9bac" d="M1552.8,2165.6c4.1,0,7.3-3.3,7.3-7.4s-3.3-7.4-7.3-7.4-7.3,3.3-7.3,7.4,3.3,7.4,7.3,7.4Z"/><path fill="#8c9bac" d="M1628.4,2165c3.7,0,6.7-3,6.7-6.7s-3-6.7-6.7-6.7-6.7,3-6.7,6.7,3,6.7,6.7,6.7Z"/><path fill="#8c9bac" d="M1704.1,2163.9c3.1,0,5.7-2.5,5.7-5.7s-2.5-5.7-5.7-5.7-5.7,2.5-5.7,5.7,2.5,5.7,5.7,5.7Z"/><path fill="#8c9bac" d="M1779.8,2162.9c2.6,0,4.6-2.1,4.6-4.6s-2.1-4.6-4.6-4.6-4.6,2.1-4.6,4.6,2.1,4.6,4.6,4.6Z"/><path fill="#8c9bac" d="M1855.5,2161.6c1.8,0,3.4-1.5,3.4-3.4s-1.5-3.4-3.4-3.4-3.4,1.5-3.4,3.4,1.5,3.4,3.4,3.4Z"/><circle fill="#8c9bac" r="2.1" cx="1931.2" cy="2158.3"/><path fill="#8c9bac" d="M2006.9,2159.1c.5,0,.8-.4.8-.8s-.4-.8-.8-.8-.8.4-.8.8.4.8.8.8Z"/><path fill="#8c9bac" d="M568.8,2234.4c.2,0,.4-.2.4-.4s-.2-.4-.4-.4-.4.2-.4.4.2.4.4.4Z"/><path fill="#8c9bac" d="M644.5,2235.4c.8,0,1.5-.7,1.5-1.5s-.7-1.5-1.5-1.5-1.5.7-1.5,1.5.7,1.5,1.5,1.5Z"/><circle fill="#8c9bac" r="2.5" cx="720.2" cy="2233.9"/><path fill="#8c9bac" d="M795.9,2237.5c2,0,3.6-1.6,3.6-3.6s-1.6-3.6-3.6-3.6-3.6,1.6-3.6,3.6,1.6,3.6,3.6,3.6Z"/><path fill="#8c9bac" d="M871.6,2238.4c2.4,0,4.4-2,4.4-4.4s-2-4.4-4.4-4.4-4.4,2-4.4,4.4,2,4.4,4.4,4.4Z"/><path fill="#8c9bac" d="M947.2,2239.2c2.9,0,5.2-2.4,5.2-5.2s-2.3-5.2-5.2-5.2-5.2,2.4-5.2,5.2,2.3,5.2,5.2,5.2Z"/><path fill="#8c9bac" d="M1022.9,2239.8c3.2,0,5.9-2.6,5.9-5.9s-2.6-5.9-5.9-5.9-5.9,2.6-5.9,5.9,2.6,5.9,5.9,5.9h0Z"/><path fill="#8c9bac" d="M1098.6,2240.2c3.5,0,6.3-2.8,6.3-6.3s-2.8-6.3-6.3-6.3-6.3,2.8-6.3,6.3,2.8,6.3,6.3,6.3Z"/><path fill="#8c9bac" d="M1174.3,2240.4c3.6,0,6.5-2.9,6.5-6.5s-2.9-6.5-6.5-6.5-6.5,2.9-6.5,6.5,2.9,6.5,6.5,6.5Z"/><path fill="#8c9bac" d="M1250,2240.4c3.6,0,6.5-2.9,6.5-6.5s-2.9-6.5-6.5-6.5-6.5,2.9-6.5,6.5,2.9,6.5,6.5,6.5Z"/><path fill="#8c9bac" d="M1325.7,2240.4c3.6,0,6.5-2.9,6.5-6.5s-2.9-6.5-6.5-6.5-6.5,2.9-6.5,6.5,2.9,6.5,6.5,6.5Z"/><path fill="#8c9bac" d="M1401.4,2240.2c3.5,0,6.3-2.8,6.3-6.3s-2.8-6.3-6.3-6.3-6.3,2.8-6.3,6.3,2.8,6.3,6.3,6.3Z"/><path fill="#8c9bac" d="M1477.1,2239.8c3.2,0,5.9-2.6,5.9-5.9s-2.6-5.9-5.9-5.9-5.9,2.6-5.9,5.9,2.6,5.9,5.9,5.9Z"/><path fill="#8c9bac" d="M1552.8,2239.2c2.9,0,5.2-2.4,5.2-5.2s-2.3-5.2-5.2-5.2-5.2,2.4-5.2,5.2,2.3,5.2,5.2,5.2Z"/><path fill="#8c9bac" d="M1628.4,2238.6c2.6,0,4.6-2.1,4.6-4.6s-2.1-4.6-4.6-4.6-4.6,2.1-4.6,4.6,2.1,4.6,4.6,4.6Z"/><path fill="#8c9bac" d="M1704.1,2237.5c2,0,3.6-1.6,3.6-3.6s-1.6-3.6-3.6-3.6-3.6,1.6-3.6,3.6,1.6,3.6,3.6,3.6Z"/><path fill="#8c9bac" d="M1779.8,2236.7c1.5,0,2.7-1.2,2.7-2.7s-1.2-2.7-2.7-2.7-2.7,1.2-2.7,2.7,1.2,2.7,2.7,2.7Z"/><path fill="#8c9bac" d="M1855.5,2235.6c.9,0,1.7-.8,1.7-1.7s-.8-1.7-1.7-1.7-1.7.8-1.7,1.7.8,1.7,1.7,1.7Z"/><path fill="#8c9bac" d="M1931.2,2234.4c.2,0,.4-.2.4-.4s-.2-.4-.4-.4-.4.2-.4.4.2.4.4.4Z"/><path fill="#8c9bac" d="M644.5,2309.9c.1,0,.2,0,.2-.2s0-.2-.2-.2-.2,0-.2.2,0,.2.2.2Z"/><path fill="#8c9bac" d="M720.2,2310.3c.3,0,.6-.3.6-.6s-.3-.6-.6-.6-.6.3-.6.6.3.6.6.6Z"/><path fill="#8c9bac" d="M795.9,2311.3c.9,0,1.7-.8,1.7-1.7s-.8-1.7-1.7-1.7-1.7.8-1.7,1.7.8,1.7,1.7,1.7Z"/><path fill="#8c9bac" d="M871.6,2311.9c1.3,0,2.3-1,2.3-2.3s-1-2.3-2.3-2.3-2.3,1-2.3,2.3,1,2.3,2.3,2.3Z"/><path fill="#8c9bac" d="M947.2,2312.8c1.7,0,3.2-1.4,3.2-3.1s-1.4-3.1-3.2-3.1-3.2,1.4-3.2,3.1,1.4,3.1,3.2,3.1Z"/><path fill="#8c9bac" d="M1022.9,2313.2c2,0,3.6-1.6,3.6-3.6s-1.6-3.6-3.6-3.6-3.6,1.6-3.6,3.6,1.6,3.6,3.6,3.6Z"/><path fill="#8c9bac" d="M1098.6,2313.6c2.2,0,4-1.8,4-4s-1.8-4-4-4-4,1.8-4,4,1.8,4,4,4Z"/><path fill="#8c9bac" d="M1174.3,2313.8c2.3,0,4.2-1.9,4.2-4.2s-1.9-4.2-4.2-4.2-4.2,1.9-4.2,4.2,1.9,4.2,4.2,4.2Z"/><path fill="#8c9bac" d="M1250,2314c2.4,0,4.4-2,4.4-4.4s-2-4.4-4.4-4.4-4.4,2-4.4,4.4,2,4.4,4.4,4.4Z"/><path fill="#8c9bac" d="M1325.7,2313.8c2.3,0,4.2-1.9,4.2-4.2s-1.9-4.2-4.2-4.2-4.2,1.9-4.2,4.2,1.9,4.2,4.2,4.2Z"/><path fill="#8c9bac" d="M1401.4,2313.6c2.2,0,4-1.8,4-4s-1.8-4-4-4-4,1.8-4,4,1.8,4,4,4Z"/><path fill="#8c9bac" d="M1477.1,2313.2c2,0,3.6-1.6,3.6-3.6s-1.6-3.6-3.6-3.6-3.6,1.6-3.6,3.6,1.6,3.6,3.6,3.6Z"/><path fill="#8c9bac" d="M1552.8,2312.8c1.7,0,3.2-1.4,3.2-3.1s-1.4-3.1-3.2-3.1-3.2,1.4-3.2,3.1,1.4,3.1,3.2,3.1Z"/><circle fill="#8c9bac" r="2.5" cx="1628.4" cy="2309.6"/><path fill="#8c9bac" d="M1704.1,2311.3c.9,0,1.7-.8,1.7-1.7s-.8-1.7-1.7-1.7-1.7.8-1.7,1.7.8,1.7,1.7,1.7Z"/><path fill="#8c9bac" d="M1779.8,2310.5c.5,0,.8-.4.8-.8s-.4-.8-.8-.8-.8.4-.8.8.4.8.8.8Z"/><path fill="#8c9bac" d="M1855.5,2309.9c.1,0,.2,0,.2-.2s0-.2-.2-.2-.2,0-.2.2,0,.2.2.2Z"/><path fill="#8c9bac" d="M795.9,2385.5c.1,0,.2,0,.2-.2s0-.2-.2-.2-.2,0-.2.2,0,.2.2.2Z"/><path fill="#8c9bac" d="M871.6,2385.7c.2,0,.4-.2.4-.4s-.2-.4-.4-.4-.4.2-.4.4.2.4.4.4Z"/><path fill="#8c9bac" d="M947.2,2386.4c.6,0,1-.5,1-1.1s-.5-1.1-1-1.1-1,.5-1,1.1.5,1.1,1,1.1Z"/><path fill="#8c9bac" d="M1022.9,2386.8c.8,0,1.5-.7,1.5-1.5s-.7-1.5-1.5-1.5-1.5.7-1.5,1.5.7,1.5,1.5,1.5h0Z"/><path fill="#8c9bac" d="M1098.6,2387.2c1,0,1.9-.8,1.9-1.9s-.8-1.9-1.9-1.9-1.9.9-1.9,1.9.8,1.9,1.9,1.9Z"/><path fill="#8c9bac" d="M1174.3,2387.4c1.2,0,2.1-.9,2.1-2.1s-.9-2.1-2.1-2.1-2.1.9-2.1,2.1.9,2.1,2.1,2.1Z"/><path fill="#8c9bac" d="M1250,2387.4c1.2,0,2.1-.9,2.1-2.1s-.9-2.1-2.1-2.1-2.1.9-2.1,2.1.9,2.1,2.1,2.1Z"/><path fill="#8c9bac" d="M1325.7,2387.4c1.2,0,2.1-.9,2.1-2.1s-.9-2.1-2.1-2.1-2.1.9-2.1,2.1.9,2.1,2.1,2.1Z"/><path fill="#8c9bac" d="M1401.4,2387.2c1,0,1.9-.8,1.9-1.9s-.8-1.9-1.9-1.9-1.9.9-1.9,1.9.8,1.9,1.9,1.9Z"/><path fill="#8c9bac" d="M1477.1,2386.8c.8,0,1.5-.7,1.5-1.5s-.7-1.5-1.5-1.5-1.5.7-1.5,1.5.7,1.5,1.5,1.5Z"/><path fill="#8c9bac" d="M1552.8,2386.4c.6,0,1.1-.5,1.1-1.1s-.5-1.1-1.1-1.1-1.1.5-1.1,1.1.5,1.1,1.1,1.1Z"/><path fill="#8c9bac" d="M1628.4,2385.7c.2,0,.4-.2.4-.4s-.2-.4-.4-.4-.4.2-.4.4.2.4.4.4Z"/><path fill="#8c9bac" d="M1704.1,2385.5c.1,0,.2,0,.2-.2s0-.2-.2-.2-.2,0-.2.2,0,.2.2.2Z"/><path fill="#8c9bac" d="M1098.6,2461.2c.1,0,.2,0,.2-.2s0-.2-.2-.2-.2,0-.2.2,0,.2.2.2Z"/><path fill="#8c9bac" d="M1174.3,2461.2c.1,0,.2,0,.2-.2s0-.2-.2-.2-.2,0-.2.2,0,.2.2.2Z"/><path fill="#8c9bac" d="M1250,2461.2c.1,0,.2,0,.2-.2s0-.2-.2-.2-.2,0-.2.2,0,.2.2.2Z"/><path fill="#8c9bac" d="M1325.7,2461.2c.1,0,.2,0,.2-.2s0-.2-.2-.2-.2,0-.2.2,0,.2.2.2Z"/><path fill="#8c9bac" d="M1401.4,2461.2c.1,0,.2,0,.2-.2s0-.2-.2-.2-.2,0-.2.2,0,.2.2.2Z"/></svg>