<svg id="Layer_1" data-name="Layer 1" xmlns="http://www.w3.org/2000/svg" viewBox="0 0 55 65"><title>DandHUS_logo_Red_RGB</title><rect id="Red_Square" data-name="Red Square" width="55" height="65" rx="3.74" style="fill:#d11c23"/><g id="D_H" data-name="D&amp;H"><path d="M17.07,36.73a8.42,8.42,0,0,0-4.31-1.1H7.34V54.17h5.28A8.83,8.83,0,0,0,17,53.09,7.33,7.33,0,0,0,20,50a10,10,0,0,0,1-4.64v-.93a10.09,10.09,0,0,0-1-4.61A7.41,7.41,0,0,0,17.07,36.73Zm.75,8.73A7,7,0,0,1,16.45,50a4.76,4.76,0,0,1-3.84,1.58H10.53V38.23h2.23a4.57,4.57,0,0,1,3.76,1.59,7.11,7.11,0,0,1,1.3,4.61Z" transform="translate(-1)" style="fill:#fff"/><polygon points="45.48 35.63 45.48 43.35 37.29 43.35 37.29 35.63 34.1 35.63 34.1 54.17 37.29 54.17 37.29 45.95 45.48 45.95 45.48 54.17 48.66 54.17 48.66 35.63 45.48 35.63" style="fill:#fff"/><path d="M33.63,46.45H31.08a6.23,6.23,0,0,1-.62,2.78l-2.61-3.17L29,45.19a4.21,4.21,0,0,0,1.83-3.33,3.53,3.53,0,0,0-1.09-2.63,3.83,3.83,0,0,0-2.78-1,4,4,0,0,0-3,1.15,4.41,4.41,0,0,0-.74,4.73,11.21,11.21,0,0,0,1.06,1.78,8.38,8.38,0,0,0-2.15,2.07,3.75,3.75,0,0,0-.59,2,4.17,4.17,0,0,0,1.35,3.23,5.14,5.14,0,0,0,3.6,1.23,6.62,6.62,0,0,0,3.85-1.15l.78.94h3.41l-2.27-2.75A8.37,8.37,0,0,0,33.63,46.45Zm-7.7-5.31a1.33,1.33,0,0,1,1-.43,1.33,1.33,0,0,1,1.37,1.34,1.83,1.83,0,0,1-.23.93,2.89,2.89,0,0,1-.85.81l-.8.55a3.79,3.79,0,0,1-.92-2.05A1.65,1.65,0,0,1,25.93,41.14ZM26.4,52a2.12,2.12,0,0,1-2.18-1.91,3,3,0,0,1,1.49-2.46l3,3.59A3.86,3.86,0,0,1,26.4,52Z" transform="translate(-1)" style="fill:#fff"/></g></svg>