<svg xmlns="http://www.w3.org/2000/svg" viewBox="0 0 1000 215.996" width="1000" height="215.996">
  <defs/>
  <g data-name="Layer 2">
    <g data-name="Layer 1">
      <path class="ninja-logo-1" d="M919.308 75.59q-7.895 6.929-9.646 18.933h58.105q-1.761-11.786-9.646-18.838a27.93 27.93 0 0 0-19.302-7.062q-11.615.019-19.51 6.967m72.258 73.838q-16.644 20.022-48.593 20.022c-13.253 0-25.067-2.755-35.282-8.217a57.84 57.84 0 0 1-23.666-22.795q-8.378-14.503-8.378-33.019a66.27 66.27 0 0 1 8.236-32.934 59 59 0 0 1 22.549-22.89 66.69 66.69 0 0 1 63.492-.369 56.1 56.1 0 0 1 22.057 22.53c5.33 9.836 7.99 21.176 7.99 34.127 0 .473-.246 3.692-.634 9.675h-89.221a29.22 29.22 0 0 0 11.36 18.318c5.973 4.468 13.423 6.627 22.35 6.627a43.2 43.2 0 0 0 16.339-2.84 28 28 0 0 0 3.351-1.609Z" fill="#008ab6"/>
      <path class="ninja-letters" d="M107.123 56.912q13.48 13.878 13.48 41.16v71.216H86.4v-65.669q0-14.796-6.144-22.085t-17.777-7.279q-12.931 0-20.609 8.435t-7.677 25.086v61.532H0V55.294l32.678-15.61v19.775a45.16 45.16 0 0 1 16.879-12.127 56 56 0 0 1 22.152-4.288q21.924-.009 35.414 13.868m38.936-1.6v113.986h34.193V39.702ZM180.251.028v29.251L146.058 44.88V15.639zm171.154 15.639v29.251l34.183-15.667V0zm-37.724 41.245q13.48 13.878 13.48 41.16v71.216h-34.202v-65.669q0-14.796-6.144-22.085t-17.759-7.28q-12.941 0-20.609 8.435t-7.677 25.086v61.532h-34.212V55.294l32.678-15.61v19.775a45.16 45.16 0 0 1 16.879-12.127 56 56 0 0 1 22.199-4.297q21.877 0 35.367 13.878"/>
      <path class="ninja-letters" d="M385.598 40.005v129.047q0 21.773-11.729 34.354t-32.792 12.59q-17.986 0-27.396-6.929l9.192-26.127q5.926 4.383 14.474 4.374c4.392 0 7.81-1.486 10.309-4.497s3.73-7.516 3.73-13.528V55.691ZM531.41 55.293v113.995h-32.678v-14.342q-12.723 16.207-36.834 16.188a58.7 58.7 0 0 1-30.151-7.857 54.9 54.9 0 0 1-21.158-22.436q-7.687-14.55-7.677-33.757t7.677-33.757a54.9 54.9 0 0 1 21.158-22.426 58.7 58.7 0 0 1 30.151-7.867q22.578 0 35.3 15.033V39.683Zm-42.107 76.877q8.52-9.353 8.52-25.086t-8.52-25.086a27.85 27.85 0 0 0-21.489-9.362q-13.149 0-21.707 9.362t-8.52 25.086q0 15.733 8.52 25.086t21.707 9.362a27.85 27.85 0 0 0 21.489-9.362"/>
      <path class="ninja-logo-1" d="M591.162 161.195a78.4 78.4 0 0 1-30.047-29.952q-10.849-19.065-10.849-42.883t10.85-42.921a78.44 78.44 0 0 1 30.047-29.914q19.188-10.858 43.09-10.867t42.968 10.868a79.36 79.36 0 0 1 30.047 29.913q10.962 19.065 10.962 42.893t-10.962 42.883a79.33 79.33 0 0 1-30.047 29.952q-19.065 10.896-42.968 10.896t-43.091-10.868m67.647-27.633a46.23 46.23 0 0 0 17.22-18.384 56.5 56.5 0 0 0 6.248-26.819 56.5 56.5 0 0 0-6.248-26.828 46.3 46.3 0 0 0-17.22-18.393 49.07 49.07 0 0 0-49.122 0 46.23 46.23 0 0 0-17.209 18.394 56.4 56.4 0 0 0-6.257 26.819 56.4 56.4 0 0 0 6.257 26.819 46.15 46.15 0 0 0 17.21 18.384 49.07 49.07 0 0 0 49.122 0Zm185.401-76.65q13.452 13.878 13.452 41.161v71.216h-34.183V103.62q0-14.796-6.134-22.085t-17.759-7.28q-12.941 0-20.609 8.435t-7.687 25.086v61.532h-34.202V55.294l32.678-15.61v19.775a45.16 45.16 0 0 1 16.898-12.127 56 56 0 0 1 22.152-4.288q21.886-.009 35.395 13.868" fill="#008ab6"/>
    </g>
  </g>
</svg>
