<?xml version="1.0" encoding="UTF-8" standalone="no"?><svg xmlns="http://www.w3.org/2000/svg" xmlns:xlink="http://www.w3.org/1999/xlink" contentScriptType="text/ecmascript" fill="none" width="21" zoomAndPan="magnify" style="fill: none" contentStyleType="text/css" viewBox="1.5 3.5 21.0 17.0" height="17" preserveAspectRatio="xMidYMid meet" version="1"><g id="change1_1"><path fill="#e6e7e8" clip-rule="evenodd" d="M1.5 5C1.5 4.17157 2.17157 3.5 3 3.5H21C21.8284 3.5 22.5 4.17157 22.5 5V9H21.5V5C21.5 4.72386 21.2761 4.5 21 4.5H3C2.72386 4.5 2.5 4.72386 2.5 5V17C2.5 17.2761 2.72386 17.5 3 17.5H10V18.5H3C2.17157 18.5 1.5 17.8284 1.5 17V5Z" fill-rule="evenodd"/></g><g id="change1_2"><path fill="#e6e7e8" clip-rule="evenodd" d="M22 8H2V7H22V8Z" fill-rule="evenodd"/></g><g id="change1_3"><path fill="#e6e7e8" clip-rule="evenodd" d="M9.5 15H4.5V14H9.5V15Z" fill-rule="evenodd"/></g><g id="change1_4"><path fill="#e6e7e8" clip-rule="evenodd" d="M17 10.5C14.5147 10.5 12.5 12.5147 12.5 15C12.5 17.4853 14.5147 19.5 17 19.5C19.4853 19.5 21.5 17.4853 21.5 15C21.5 12.5147 19.4853 10.5 17 10.5ZM11.5 15C11.5 11.9624 13.9624 9.5 17 9.5C20.0376 9.5 22.5 11.9624 22.5 15C22.5 18.0376 20.0376 20.5 17 20.5C13.9624 20.5 11.5 18.0376 11.5 15Z" fill-rule="evenodd"/></g><g id="change1_5"><path fill="#e6e7e8" clip-rule="evenodd" d="M16.6408 16.0429L18.8433 12.9594L19.6571 13.5406L17.1571 17.0406C17.0788 17.1502 16.9597 17.2235 16.8267 17.2441C16.6936 17.2647 16.5579 17.2308 16.4502 17.15L14.4502 15.65L15.0502 14.85L16.6408 16.0429Z" fill-rule="evenodd"/></g></svg>