<?xml version="1.0" encoding="UTF-8" standalone="no"?><svg xmlns="http://www.w3.org/2000/svg" xmlns:xlink="http://www.w3.org/1999/xlink" contentScriptType="text/ecmascript" fill="#000000" width="1167" zoomAndPan="magnify" contentStyleType="text/css" viewBox="0 0 1167.32 845.22" height="845" data-name="Layer 1" preserveAspectRatio="xMidYMid meet" version="1"><path fill="#78d8f8" d="M583.66,24.2c34,0,65.38,15.46,86.1,42.42l445.52,579.62c13.04,16.97,20.78,36.82,22.39,57.42,1.51,19.36-2.32,38.98-11.07,56.75-8.75,17.77-21.98,32.77-38.25,43.37-17.31,11.28-37.77,17.24-59.17,17.24H138.14c-21.4,0-41.86-5.96-59.17-17.24-16.27-10.6-29.5-25.6-38.25-43.37-8.75-17.77-12.58-37.4-11.07-56.75,1.61-20.6,9.35-40.45,22.39-57.42L497.56,66.62c20.72-26.96,52.1-42.42,86.1-42.42M583.66,16.2c-34.55,0-69.11,15.18-92.45,45.54L45.7,641.36c-58.94,76.68-4.27,187.66,92.45,187.66h891.03c96.72,0,151.39-110.97,92.45-187.66L676.1,61.75c-23.34-30.36-57.89-45.54-92.45-45.54h0Z"/></svg>