<?xml version="1.0" encoding="UTF-8" standalone="no"?><svg xmlns="http://www.w3.org/2000/svg" xmlns:xlink="http://www.w3.org/1999/xlink" contentScriptType="text/ecmascript" fill="none" width="225" zoomAndPan="magnify" style="fill: none" contentStyleType="text/css" viewBox="0 0 225 29" height="29" preserveAspectRatio="xMidYMid meet" version="1"><g clip-path="url(#a)"><path fill="#339c21" d="M70.8118 10.7596C70.8118 9.72288 70.6988 8.90211 70.4719 8.29638C70.2443 7.6916 69.8693 7.23357 69.346 6.92158C68.8218 6.61045 68.1351 6.412 67.2839 6.32552C66.4327 6.23985 65.379 6.19521 64.1223 6.19521H58.2438C57.1275 6.19521 56.1866 6.22781 55.4227 6.29297C54.659 6.35812 54.0291 6.48981 53.5314 6.68821C53.0346 6.88747 52.6499 7.17334 52.3789 7.54395C52.1089 7.9163 51.9125 8.40831 51.7899 9.02195C51.6681 9.6364 51.5984 10.3904 51.5808 11.285C51.563 12.1796 51.5543 13.2497 51.5543 14.4944C51.5543 15.7391 51.5654 16.809 51.5872 17.7036C51.6095 18.5982 51.6809 19.3523 51.8027 19.9659C51.9253 20.5803 52.1192 21.0733 52.3854 21.4447C52.6523 21.8171 53.0346 22.102 53.5314 22.3004C54.0291 22.4996 54.659 22.6307 55.4227 22.6957C56.1866 22.76 57.1275 22.7926 58.2438 22.7926H64.1223C65.0991 22.7926 65.9415 22.7671 66.6492 22.7148C67.3561 22.6631 67.9587 22.5687 68.4556 22.4297C68.9534 22.2917 69.3548 22.102 69.6602 21.8591C69.9654 21.6179 70.2034 21.313 70.3735 20.9454C70.5441 20.5779 70.6595 20.1374 70.7203 19.6221C70.7813 19.1078 70.8118 18.5062 70.8118 17.814H73.3251C73.3251 18.6434 73.2729 19.3935 73.168 20.0636C73.0638 20.7335 72.8778 21.3304 72.6127 21.852C72.3457 22.3758 71.9907 22.8276 71.545 23.2076C71.1003 23.5887 70.5369 23.9015 69.8566 24.1484C69.176 24.3945 68.3643 24.5755 67.4218 24.693C66.4785 24.8089 65.379 24.8675 64.1223 24.8675H58.2438C56.7082 24.8675 55.4139 24.7739 54.3624 24.5889C53.3111 24.4024 52.4447 24.1222 51.7642 23.7458C51.0839 23.3706 50.5574 22.8965 50.1862 22.3259C49.8152 21.7551 49.5451 21.086 49.3743 20.3167C49.2044 19.5467 49.1068 18.6784 49.0802 17.7099C49.0546 16.7423 49.041 15.67 49.041 14.4944C49.041 13.3186 49.0546 12.2472 49.0802 11.2787C49.1068 10.3111 49.2044 9.44193 49.3743 8.67191C49.5451 7.9027 49.8152 7.23357 50.1862 6.66276C50.5574 6.09215 51.0839 5.61829 51.7642 5.24276C52.4447 4.86647 53.3111 4.58547 54.3624 4.39972C55.4139 4.21411 56.7082 4.12109 58.2438 4.12109H64.1223C65.379 4.12109 66.4785 4.17995 67.4218 4.29585C68.3643 4.41332 69.176 4.59021 69.8566 4.82757C70.5369 5.06568 71.1003 5.36577 71.545 5.72846C71.9907 6.09215 72.3458 6.5208 72.6127 7.01204C72.8778 7.50585 73.0638 8.06301 73.168 8.68532C73.2729 9.30769 73.3251 9.9999 73.3251 10.7596H70.8118Z"/><path fill="#339c21" d="M77.5137 24.4528V4.53601H97.6232V6.61008H80.0278V13.2494H96.785V15.3243H80.0278V22.3779H97.6232V24.4528H77.5137Z"/><path fill="#339c21" d="M103.489 14.4941H115.205C116.323 14.4941 117.264 14.4749 118.027 14.4352C118.79 14.3971 119.421 14.3249 119.918 14.2218C120.417 14.1178 120.8 13.9709 121.07 13.7811C121.341 13.5906 121.539 13.3398 121.667 13.0287C121.793 12.7175 121.867 12.3436 121.889 11.907C121.91 11.4705 121.922 10.9498 121.922 10.3449C121.922 9.78297 121.91 9.29945 121.889 8.89231C121.867 8.48655 121.793 8.14443 121.667 7.86817C121.539 7.5912 121.341 7.37142 121.07 7.20695C120.8 7.04271 120.417 6.91496 119.918 6.8245C119.421 6.73309 118.79 6.67523 118.027 6.64898C117.264 6.62354 116.323 6.61008 115.205 6.61008H103.489V14.4941ZM124.016 24.4528H121.502V20.718C121.502 20.1132 121.491 19.5926 121.47 19.155C121.448 18.7185 121.374 18.3446 121.247 18.0344C121.12 17.7232 120.922 17.4723 120.651 17.2817C120.381 17.0912 119.997 16.9453 119.5 16.8413C119.003 16.7372 118.371 16.6657 117.607 16.6268C116.844 16.5879 115.904 16.5682 114.787 16.5682H103.489V24.4528H100.975V4.53601H115.205C116.741 4.53601 118.035 4.58989 119.087 4.69788C120.139 4.80587 121.007 4.96779 121.692 5.18358C122.377 5.40037 122.906 5.66872 123.277 5.98776C123.647 6.30762 123.918 6.68395 124.088 7.11573C124.259 7.54831 124.359 8.03188 124.389 8.56753C124.419 9.10417 124.435 9.69631 124.435 10.3449C124.435 11.1743 124.376 11.9031 124.259 12.5293C124.141 13.1564 123.942 13.6899 123.663 14.1304C123.383 14.5719 123.012 14.9243 122.55 15.1877C122.087 15.4513 121.507 15.6347 120.808 15.7387C121.507 15.8426 122.065 16.0244 122.483 16.2833C122.903 16.5427 123.226 16.8802 123.453 17.2946C123.68 17.7096 123.831 18.2026 123.905 18.7732C123.979 19.3432 124.016 19.9918 124.016 20.718L124.016 24.4528Z"/><path fill="#339c21" d="M128.623 24.4528V4.53601H148.732V6.61008H131.137V13.2494H147.893V15.3243H131.137V22.3779H148.732V24.4528H128.623Z"/><path fill="#339c21" d="M173.867 4.53601V6.61008H163.814V24.4528H161.3V6.61008H151.246V4.53601H173.867Z"/><path fill="#339c21" d="M189.754 17.8137L183.091 6.18148L176.404 17.8137H189.754ZM190.942 19.8885H175.211L172.588 24.4528H169.678L181.15 4.53601H184.758L196.193 24.4528H193.556L190.942 19.8885Z"/><path fill="#339c21" d="M213.156 13.9472L224.977 24.4528H221.416L211.405 15.5561L201.727 24.4528H198.166L209.595 13.9472L199.003 4.53601H202.564L211.345 12.3381L219.832 4.53601H223.393L213.156 13.9472Z"/><path fill="#147c33" d="M35.9858 21.4609C35.8961 21.4687 35.8062 21.4751 35.7165 21.4782C34.012 21.5466 32.2849 20.9368 30.9834 19.6478C29.6817 18.3587 29.0671 16.6489 29.1361 14.9606C29.1393 14.8715 29.1457 14.7826 29.1528 14.6938C29.1544 14.6389 29.1504 14.585 29.1496 14.5301C29.1504 14.4754 29.1544 14.4216 29.1528 14.3666C29.1457 14.2778 29.1393 14.1889 29.1361 14.0991C29.0671 12.4116 29.6825 10.7018 30.9834 9.41266C32.2849 8.12358 34.012 7.51392 35.7165 7.5822C35.8062 7.58537 35.8961 7.59168 35.9858 7.59879C36.9965 7.62978 38.0175 7.26396 38.7892 6.49944C40.2727 5.03011 40.2727 2.64718 38.7892 1.17803C37.3056 -0.2913 34.8998 -0.2913 33.4163 1.17803C32.6447 1.94232 32.2751 2.95281 32.3056 3.95464C32.3136 4.04349 32.3193 4.13234 32.3234 4.22218C32.3921 5.90968 31.7768 7.61954 30.4753 8.90862C29.2539 10.1183 27.6582 10.7217 26.0568 10.7359C25.7564 10.6724 25.4495 10.6408 25.1433 10.6502C25.0536 10.6573 24.9637 10.6636 24.874 10.6676C23.1694 10.7359 21.4431 10.1262 20.1416 8.83636C18.8889 7.59642 18.2782 5.96616 18.2951 4.34046C18.473 3.19647 18.1211 1.98757 17.2308 1.10577C16.4855 0.36755 15.507 0.000690322 14.5292 0.00467071C13.5514 0.000690322 12.5729 0.36755 11.8275 1.10577C10.9373 1.98757 10.5854 3.19647 10.7633 4.34046C10.7794 5.96616 10.1694 7.59642 8.91675 8.83636C7.61526 10.1262 5.88894 10.7359 4.18439 10.6676C4.09468 10.6636 4.00479 10.6573 3.91508 10.6502C2.90443 10.62 1.88339 10.9851 1.11175 11.7496C0.364026 12.4902 -0.00473823 13.4618 4.59532e-05 14.4318C-0.00473823 15.4018 0.364026 16.3734 1.11175 17.1133C1.88339 17.8775 2.90443 18.2436 3.91508 18.2134C4.00479 18.2055 4.09468 18.1991 4.18439 18.196C5.88894 18.1277 7.61526 18.7374 8.91675 20.0265C10.2182 21.3155 10.8338 23.0254 10.7648 24.7137C10.7616 24.8026 10.7553 24.8916 10.7473 24.9804C10.7168 25.9822 11.0862 26.9927 11.858 27.7571C13.3415 29.2264 15.7474 29.2264 17.2308 27.7571C18.7141 26.2877 18.7141 23.9048 17.2308 22.4356C16.459 21.6711 15.438 21.3053 14.4273 21.3353C14.3376 21.3432 14.2479 21.3497 14.1582 21.3536C12.4535 21.421 10.7271 20.8115 9.42564 19.5224C8.12334 18.2341 7.50858 16.5235 7.57756 14.835V14.0278C7.50858 12.3401 8.12416 10.6295 9.42564 9.3404C10.7271 8.05132 12.7228 7.45919 14.4273 7.52752C14.4586 7.52908 14.4538 7.52832 14.4427 7.52752C14.595 7.53145 14.7463 7.52259 14.8977 7.50918C14.8986 7.50918 14.8994 7.50994 14.9009 7.50994C16.6049 7.44165 18.3312 8.05132 19.6327 9.3404C20.9342 10.6295 21.5498 12.3393 21.4808 14.0278C21.4776 14.1167 21.4712 14.2055 21.4638 14.2944C21.4423 14.985 21.6154 15.6773 21.9752 16.2933C22.1516 16.633 22.3824 16.9537 22.6701 17.2386C23.4419 18.0031 24.4621 18.369 25.4734 18.338C25.5633 18.3309 25.653 18.3245 25.7427 18.3206C27.4475 18.2523 29.1737 18.8628 30.4753 20.1519C31.7768 21.4409 32.3921 23.1507 32.3234 24.8383C32.3193 24.9273 32.3136 25.017 32.3056 25.1058C32.2751 26.1069 32.6447 27.1181 33.4163 27.8824C34.8998 29.3518 37.3056 29.3518 38.7892 27.8824C40.2727 26.4132 40.2727 24.0304 38.7892 22.5602C38.0175 21.7957 36.9965 21.4306 35.9858 21.4609Z"/></g><defs><clipPath id="a"><path fill="#ffffff" d="M0 0H225V29H0z"/></clipPath></defs></svg>