<?xml version="1.0" encoding="UTF-8" standalone="no"?><svg xmlns="http://www.w3.org/2000/svg" xmlns:xlink="http://www.w3.org/1999/xlink" contentScriptType="text/ecmascript" fill="#1a3756" width="479.2" zoomAndPan="magnify" contentStyleType="text/css" viewBox="16.5 11.0 479.2 490.5" height="490.5" preserveAspectRatio="xMidYMid meet" version="1"><g id="change1_1"><path d="M144.339,259.884l-14.26,13.383c-6.071,5.698-10.14,12.8-12.05,20.4l-96.307,0c-1.519,0-2.827-0.605-3.811-1.763 c-0.983-1.158-1.37-2.545-1.124-4.045c8.182-49.972,51.559-88.106,103.845-88.106c17.131,0,33.305,4.094,47.598,11.356 c-8.133,5.752-14.121,14.392-16.542,24.729l-4.46,19.04C146.729,257.008,145.934,258.387,144.339,259.884z M495.216,287.859 c-8.183-49.972-51.559-88.105-103.845-88.105c-17.13,0-33.304,4.094-47.598,11.355c8.133,5.753,14.121,14.393,16.542,24.729 l4.46,19.04c0.499,2.13,1.295,3.509,2.89,5.005l14.259,13.383c6.071,5.698,10.14,12.8,12.05,20.4l96.307,0 C493.382,293.667,495.718,290.92,495.216,287.859z M256.003,135.784c34.458,0,62.392-27.934,62.392-62.392 c0-34.458-27.934-62.392-62.392-62.392s-62.392,27.934-62.392,62.392C193.611,107.85,221.545,135.784,256.003,135.784z M338.958,417.165c-1.408,0.766-2.393,1.72-3.363,3.203l-10.704,16.366c-9.002,13.764-24.75,20.79-40.597,18.66l20.61,44.268 c0.79,1.698,3.157,1.804,4.098,0.186l17.888-30.782l35.071,6.128c1.847,0.323,3.288-1.557,2.496-3.256L338.958,417.165z M291.501,304.912l-19.683,0.038c-2.266,0.004-4.193-1.396-4.89-3.553l-6.046-18.731c-1.518-4.702-8.241-4.701-9.759,0 l-6.046,18.732c-0.696,2.157-2.624,3.557-4.89,3.552l-19.683-0.038c-4.97-0.009-7.042,6.368-3.016,9.282l15.946,11.539 c1.836,1.329,2.572,3.594,1.868,5.748l-6.118,18.708c-1.543,4.717,3.886,8.661,7.896,5.736l15.902-11.6 c1.831-1.335,4.213-1.335,6.043,0l15.902,11.6c4.01,2.924,9.438-1.019,7.896-5.736l-6.118-18.708 c-0.705-2.154,0.031-4.419,1.867-5.748l15.946-11.539C298.543,311.281,296.471,304.903,291.501,304.912z M370.978,284.931 c8.538,8.013,10.69,20.22,5.408,30.67c-13.753,27.207-12.73,21.407-9.112,51.677c1.39,11.627-4.808,22.361-15.572,26.971 c-28.024,12.001-23.511,8.216-40.198,33.729c-6.409,9.8-18.056,14.039-29.265,10.652c-29.182-8.819-23.292-8.82-52.474,0 c-11.208,3.387-22.856-0.852-29.265-10.652c-16.686-25.513-12.174-21.728-40.198-33.729c-10.764-4.61-16.961-15.344-15.572-26.971 c3.618-30.27,4.642-24.47-9.112-51.677c-5.282-10.45-3.13-22.657,5.408-30.67c22.229-20.863,19.284-15.762,26.237-45.444 c2.67-11.401,12.166-19.368,23.857-20.019c30.438-1.693,24.904,0.321,49.31-17.947c9.374-7.017,21.769-7.017,31.143,0 c24.406,18.268,18.871,16.254,49.31,17.947c11.691,0.65,21.187,8.618,23.857,20.019C351.694,269.169,348.75,264.069,370.978,284.931 z M324.33,318.021c0-37.736-30.591-68.327-68.328-68.327s-68.327,30.591-68.327,68.327c0,37.736,30.591,68.328,68.327,68.328 S324.33,355.757,324.33,318.021z M176.409,420.368c-0.97-1.483-1.955-2.436-3.362-3.203l-25.5,54.772 c-0.792,1.699,0.649,3.578,2.496,3.256l35.072-6.128l17.888,30.782c0.941,1.618,3.309,1.511,4.098-0.186l20.609-44.268 C199.698,459.159,189.187,439.907,176.409,420.368z M391.372,189.754c29.386,0,53.208-23.823,53.208-53.209 c0-29.386-23.822-53.208-53.208-53.208s-53.208,23.823-53.208,53.208C338.163,165.931,361.985,189.754,391.372,189.754z M160.853,190.617c9.384,3.304,18.265,7.735,26.468,13.142c6.961-0.858,23.238,0.142,27.869-3.325l15.656-11.718 c15.056-11.269,35.26-11.269,50.315,0l15.656,11.718c4.635,3.469,20.904,2.464,27.868,3.325c8.203-5.406,17.083-9.838,26.468-13.142 c-22.633-27.381-56.851-44.833-95.149-44.833C217.703,145.784,183.485,163.235,160.853,190.617z M120.634,189.754 c29.386,0,53.208-23.823,53.208-53.209c0-29.386-23.823-53.208-53.208-53.208c-29.386,0-53.209,23.823-53.209,53.208 C67.425,165.931,91.248,189.754,120.634,189.754z"/></g></svg>