<?xml version="1.0" encoding="UTF-8" standalone="no"?><svg xmlns="http://www.w3.org/2000/svg" xmlns:xlink="http://www.w3.org/1999/xlink" contentScriptType="text/ecmascript" fill="#ffffff" width="367.3" zoomAndPan="magnify" contentStyleType="text/css" viewBox="79.1 71.5 367.3 367.3" height="367.3" preserveAspectRatio="xMidYMid meet" version="1"><g id="change1_1"><circle r="8.64" cx="87.76" cy="80.14"/></g><g id="change1_2"><circle r="8.64" cx="137.76" cy="80.14"/></g><g id="change1_3"><circle r="8.64" cx="187.76" cy="80.14"/></g><g id="change1_4"><circle r="8.64" cx="237.76" cy="80.14"/></g><g id="change1_5"><circle r="8.64" cx="287.76" cy="80.14"/></g><g id="change1_6"><circle r="8.64" cx="87.76" cy="130.14"/></g><g id="change1_7"><circle r="8.64" cx="137.76" cy="130.14"/></g><g id="change1_8"><circle r="8.64" cx="187.76" cy="130.14"/></g><g id="change1_9"><circle r="8.64" cx="237.76" cy="130.14"/></g><g id="change1_10"><circle r="8.64" cx="287.76" cy="130.14"/></g><g id="change1_11"><circle r="8.64" cx="87.76" cy="180.14"/></g><g id="change1_12"><circle r="8.64" cx="137.76" cy="180.14"/></g><g id="change1_13"><circle r="8.64" cx="187.76" cy="180.14"/></g><g id="change1_14"><circle r="8.64" cx="237.76" cy="180.14"/></g><g id="change1_15"><circle r="8.64" cx="287.76" cy="180.14"/></g><g id="change1_16"><circle r="8.64" cx="87.76" cy="230.14"/></g><g id="change1_17"><circle r="8.64" cx="137.76" cy="230.14"/></g><g id="change1_18"><circle r="8.64" cx="187.76" cy="230.14"/></g><g id="change1_19"><circle r="8.64" cx="237.76" cy="230.14"/></g><g id="change1_20"><circle r="8.64" cx="287.76" cy="230.14"/></g><g id="change1_21"><circle r="8.64" cx="337.76" cy="230.14"/></g><g id="change1_22"><circle r="8.64" cx="387.76" cy="230.14"/></g><g id="change1_23"><circle r="8.64" cx="437.76" cy="230.14"/></g><g id="change1_24"><circle r="8.64" cx="87.76" cy="280.14"/></g><g id="change1_25"><circle r="8.64" cx="137.76" cy="280.14"/></g><g id="change1_26"><circle r="8.64" cx="187.76" cy="280.14"/></g><g id="change1_27"><circle r="8.64" cx="237.76" cy="280.14"/></g><g id="change1_28"><circle r="8.64" cx="287.76" cy="280.14"/></g><g id="change1_29"><circle r="8.64" cx="337.76" cy="280.14"/></g><g id="change1_30"><circle r="8.64" cx="387.76" cy="280.14"/></g><g id="change1_31"><circle r="8.64" cx="437.76" cy="280.14"/></g><g id="change1_32"><circle r="8.64" cx="237.76" cy="330.14"/></g><g id="change1_33"><circle r="8.64" cx="287.76" cy="330.14"/></g><g id="change1_34"><circle r="8.64" cx="337.76" cy="330.14"/></g><g id="change1_35"><circle r="8.64" cx="387.76" cy="330.14"/></g><g id="change1_36"><circle r="8.64" cx="437.76" cy="330.14"/></g><g id="change1_37"><circle r="8.64" cx="237.76" cy="380.14"/></g><g id="change1_38"><circle r="8.64" cx="287.76" cy="380.14"/></g><g id="change1_39"><circle r="8.64" cx="337.76" cy="380.14"/></g><g id="change1_40"><circle r="8.64" cx="387.76" cy="380.14"/></g><g id="change1_41"><circle r="8.64" cx="437.76" cy="380.14"/></g><g id="change1_42"><circle r="8.64" cx="237.76" cy="430.14"/></g><g id="change1_43"><circle r="8.64" cx="287.76" cy="430.14"/></g><g id="change1_44"><circle r="8.64" cx="337.76" cy="430.14"/></g><g id="change1_45"><circle r="8.64" cx="387.76" cy="430.14"/></g><g id="change1_46"><circle r="8.64" cx="437.76" cy="430.14"/></g></svg>