<?xml version="1.0" encoding="UTF-8" standalone="no"?><svg xmlns="http://www.w3.org/2000/svg" xmlns:xlink="http://www.w3.org/1999/xlink" contentScriptType="text/ecmascript" fill="#000000" width="340.8" zoomAndPan="magnify" contentStyleType="text/css" viewBox="79.6 79.6 340.8 340.8" height="340.8" preserveAspectRatio="xMidYMid meet" version="1"><g><g id="change1_1"><path fill="#2499b6" d="M250,79.6c-94.1,0-170.4,76.3-170.4,170.4c0,94.1,76.3,170.4,170.4,170.4c94.1,0,170.4-76.3,170.4-170.4 C420.4,155.9,344.1,79.6,250,79.6z M345.9,223.7l-99.7,99.7c-4.8,4.8-11.3,7.5-18.1,7.5c-6.7,0-13.2-2.7-18-7.5l-49.8-49.8 c-10-10-10-26.1,0-36.1c10-9.9,26-9.9,36,0l31.8,31.9l81.7-81.7c10-10,26.1-10,36.1,0C355.8,197.6,355.8,213.7,345.9,223.7z"/></g><g id="change2_1"><path fill="#ffffff" d="M345.9,223.7l-99.7,99.7c-4.8,4.8-11.3,7.5-18.1,7.5c-6.7,0-13.2-2.7-18-7.5l-49.8-49.8c-10-10-10-26.1,0-36.1 c10-9.9,26-9.9,36,0l31.8,31.9l81.7-81.7c10-10,26.1-10,36.1,0C355.8,197.6,355.8,213.7,345.9,223.7z"/></g></g></svg>